<?xml version="1.0" standalone="no"?>
<!DOCTYPE svg PUBLIC "-//W3C//DTD SVG 1.1//EN" "http://www.w3.org/Graphics/SVG/1.1/DTD/svg11.dtd" >
<svg xmlns="http://www.w3.org/2000/svg" xmlns:xlink="http://www.w3.org/1999/xlink" version="1.1">
<metadata></metadata>
<defs>
<font id="komika_handregular" horiz-adv-x="1202" >
<font-face units-per-em="2048" ascent="1638" descent="-410" />
<missing-glyph horiz-adv-x="608" />
<glyph horiz-adv-x="0" />
<glyph unicode="&#xd;" horiz-adv-x="1024" />
<glyph unicode=" "  horiz-adv-x="608" />
<glyph unicode="&#x09;" horiz-adv-x="608" />
<glyph unicode="&#xa0;" horiz-adv-x="608" />
<glyph unicode="!" horiz-adv-x="712" d="M676 1495q0 -39 -84 -258q-102 -258 -111 -289q-16 -59 -40.5 -151t-63.5 -215q-37 -117 -74 -138q-23 -14 -55 -14q-41 0 -64.5 25.5t-23.5 66.5q0 8 51 180l100 371q16 45 35 107.5t45 150.5q16 47 29.5 90t30.5 80q29 61 41 74q27 37 73 37q37 0 76 -39q35 -37 35 -78 zM360 145q0 -76 -67 -122q-68 -49 -146 -50q-53 0 -96 47q-41 47 -41 99q0 78 70 123q66 39 139 39q141 -1 141 -136z" />
<glyph unicode="&#x22;" horiz-adv-x="626" d="M322 1548q0 125 -99 125q-12 0 -49 -18q-29 -12 -37 -31q-16 -66 -25.5 -117t-13.5 -84q-10 -29 -20 -58.5t-27 -57.5q-10 -18 -19 -30.5t-14 -23.5q-10 -23 -14 -43t-4 -41q0 -51 18 -69q29 -29 66 -29q63 0 129 92q25 37 41 75t25 79q10 47 16 83t12 60 q10 41 12.5 62.5t2.5 25.5zM623 1538q0 125 -99 125q-12 0 -49 -18q-29 -12 -37 -31q-16 -66 -25.5 -117t-13.5 -84q-10 -29 -20 -58.5t-27 -58.5q-10 -18 -19 -30.5t-14 -22.5q-10 -23 -14 -43t-4 -41q0 -51 18 -69q29 -29 66 -29q63 0 129 92q25 37 41 75t25 79 q10 47 16 82.5t12 60.5q10 41 12.5 62.5t2.5 25.5z" />
<glyph unicode="#" horiz-adv-x="1167" d="M1147 866q0 -18 -23 -47q-18 -29 -39 -33q-43 -4 -90 -10t-100 -16q-10 -10 -18 -43q-6 -29 -7 -51q0 -29 16.5 -49.5t43.5 -20.5h145q16 0 27.5 -19.5t11.5 -35.5q0 -29 -37 -76q-37 -41 -69 -47h-43q-68 0 -68 -51q0 -6 2 -19.5t2 -19.5v-146q0 -20 -20.5 -43.5 t-38.5 -23.5q-10 0 -30.5 15t-29.5 26q-4 10 -11 24.5t-11 36.5q-6 23 -8 40t-2 30q0 10 1 25.5t1 25.5q0 70 -76 70q-156 0 -223 -19q-27 -8 -27 -47q0 -10 3 -30.5t3 -30.5q0 -23 -2 -42.5t-10 -37.5q-14 -51 -47 -51q-16 0 -45 28q-25 29 -31 51q-4 31 -11 71t-20 89 q-2 6 -26 10q-23 2 -52.5 4.5t-70.5 6.5q-29 2 -54 30q-27 33 -26 64q0 33 29 53q27 16 59 16q23 -2 40 -4t44 -4h29q35 0 47 17q8 18 8 51q0 92 -21 102q-12 4 -26 4q-16 0 -42 -3t-42 -3q-14 0 -32.5 5t-37 12.5t-34 17.5t-21.5 20q-12 18 -20.5 36t-8.5 34q0 61 64 62 q10 0 31.5 -2.5t45 -5.5t46 -5t34.5 -2q55 0 76 23q12 6 17 26q0 27 2 64t6 88l6 92q6 61 55 62q47 0 60 -64q2 -10 3 -33.5t1 -62.5v-142q0 -4 18 -22h180q70 0 86 31q6 16 11.5 45.5t7.5 77.5q2 84 24 118q12 18 43 19q74 0 74 -88q0 -10 -2 -28.5t-4 -39t-4 -39t-2 -28.5 q0 -41 28 -41h160q23 0 47 -35q25 -37 25 -62zM731 682q0 57 -33 70q-25 10 -84 10q-100 0 -145 -25q-18 -10 -18 -45v-39v-39q0 -45 38 -45q10 0 24.5 2t21.5 2q170 0 182 33q14 29 14 76z" />
<glyph unicode="$" horiz-adv-x="917" d="M903 707q0 -6 -5 -21.5t-5 -19.5q0 -156 -207 -277q-2 0 -31.5 -9t-89.5 -32q-90 -35 -90 -55v-180q0 -29 -26 -64q-29 -41 -54 -41q-23 0 -55 39q-31 37 -31 62v157q0 8 -4 19.5t-10 27.5q-16 25 -88 56q-100 39 -133 63q-68 47 -68 117q0 31 37 72q35 41 70 41 q14 0 39 -19q18 -18 36 -29q59 -37 148 -55q27 -8 64.5 -10t91.5 -2q23 0 52 8t70 25q51 23 97 82q20 23 20 47q0 70 -133 100q-72 10 -137.5 18.5t-136.5 18.5q-170 20 -215 74q-57 57 -58 131q0 82 135 202q18 10 43 28.5t56 41.5q35 29 34 109q0 16 -1 41.5t-1 37.5v35 q0 16 5 29q4 18 28.5 34.5t44.5 16.5q29 0 57.5 -20.5t32.5 -49.5q2 -4 2 -18v-18q0 -6 -1 -18.5t-1 -28.5q0 -12 -1 -25.5t-1 -20.5q0 -14 21 -34h69h29q14 0 25 2q6 0 25.5 2t29.5 2q35 0 67.5 -17.5t32.5 -52.5q0 -8 -4 -20.5t-14 -30.5q-14 -41 -25 -45q-23 -8 -77 -8 h-15q-27 0 -85 -6.5t-150 -22.5q-39 -6 -84 -45q-47 -37 -47 -72q0 -43 120 -49q41 -4 80 -6t80 -2q178 -37 260 -109q6 -2 43 -65q39 -57 39 -141z" />
<glyph unicode="%" horiz-adv-x="1378" d="M901 856q49 76 100 154q66 98 123.5 189t79.5 175v-2q6 18 6 33q0 29 -19.5 39t-60 20.5t-79.5 10.5q-35 0 -65 -12.5t-44 -49.5q-14 -59 -54 -131t-85 -143q-37 -57 -66 -113v2q-51 -88 -88 -150.5t-69.5 -116.5t-67.5 -109.5t-81 -126t-110.5 -167t-154.5 -233.5 q-8 -18 -8 -45q0 -35 22.5 -51.5t50.5 -30.5v2l25 -12q41 -23 63 -23q37 0 80 58q45 90 84 161.5t80 145.5q12 23 25.5 47t29.5 53q35 72 80 135.5t93 128.5q29 39 55 79t55 83zM721 295q-14 -23 -19.5 -46.5t-5.5 -43.5q0 -39 12.5 -73t28.5 -66q27 -51 76 -73t107 -22 q20 0 38.5 2t36.5 7q88 18 164 77.5t121 130.5q49 80 49 160q0 82 -53 141q-29 29 -67 42.5t-79 13.5q-31 0 -62.5 -5t-61.5 -16q-43 -12 -82 -28.5t-75 -42t-67.5 -63.5t-60.5 -95zM641 1147q14 27 19.5 50.5t5.5 45.5q0 37 -12.5 70t-28.5 65q-27 51 -74 71.5t-102 20.5 q-23 0 -42.5 -2t-39.5 -6q-88 -16 -163 -74.5t-122 -132.5q-49 -80 -49 -159q0 -39 12 -75t41 -65q29 -33 66.5 -45t80.5 -12q31 0 63 5t62 16q43 14 82 30.5t75 41t66.5 62.5t59.5 93zM905 197q-2 6 -2 14q0 20 10.5 39.5t24.5 36.5q23 29 55.5 39t57.5 10q14 0 20 -2 q16 -4 29.5 -19.5t13.5 -38.5q0 -4 -1 -6t-1 -6q-6 -23 -20.5 -39t-33 -27.5t-39 -17.5t-34.5 -8q-8 -2 -24 -2q-18 0 -35 4t-21 21v2zM463 1241q0 -23 -11.5 -44t-27.5 -40q-23 -29 -56.5 -39t-56.5 -10q-6 0 -11 1t-9 1q-14 4 -26.5 19.5t-12.5 37.5q0 6 2 13 q10 43 51 66.5t70 25.5h26q18 0 36 -4t24 -19v2q0 -4 1 -6t1 -4z" />
<glyph unicode="&#x26;" horiz-adv-x="1474" d="M1448 860q0 -49 -42 -77.5t-130 -28.5q-96 -2 -125 -19q-23 -10 -29 -34.5t-16 -47.5q-10 -39 -28.5 -88t-45.5 -114q-16 -29 -40.5 -65t-59.5 -81t-63.5 -78.5t-51.5 -56.5q-160 -154 -452 -154q-162 0 -265 115q-96 104 -96 275q0 164 100 327q23 23 40.5 47.5 t33.5 46.5q51 70 51 99q0 4 -2 12t-6 18l-16 33q-18 70 -19 162q0 178 125 297q39 39 63.5 59.5t37.5 30.5q43 35 116 57q55 16 90 25.5t52 9.5q10 0 26.5 -4t45 -10t48 -10t29.5 -7q51 -12 148 -98q74 -90 73 -166q0 -23 -17 -34t-38 -11q-29 0 -108 82q-61 80 -125 80 q-49 0 -108.5 -26.5t-125.5 -84.5q-139 -117 -139 -211q0 -72 53 -71q12 0 103 39q45 23 70.5 32t31.5 9q115 0 115 -140q0 -18 -35 -47q-12 -10 -28.5 -18t-37.5 -19q-27 -10 -44 -20t-27 -16q-37 -23 -68 -45.5t-59 -47.5q-23 -31 -95 -102q-57 -55 -104 -145 q-49 -98 -49 -168q0 -61 41 -98t106 -37q229 0 344 163q23 29 52.5 71t70.5 101q10 20 30.5 77t55.5 155q4 23 10.5 54.5t18.5 72.5q25 53 100 53q10 0 27.5 -2t36 -5t36 -5t29.5 -2q-8 6 35 11t125 21q18 2 27.5 3.5t13.5 1.5q84 -1 84 -146z" />
<glyph unicode="'" horiz-adv-x="339" d="M322 1548q0 125 -99 125q-12 0 -49 -18q-29 -12 -37 -31q-16 -66 -25.5 -117t-13.5 -84q-10 -29 -20 -58.5t-27 -57.5q-10 -18 -19 -30.5t-14 -23.5q-10 -23 -14 -43t-4 -41q0 -51 18 -69q29 -29 66 -29q63 0 129 92q25 37 41 75t25 79q10 47 16 83t12 60 q10 41 12.5 62.5t2.5 25.5z" />
<glyph unicode="(" horiz-adv-x="694" d="M688 1565q0 90 -102 90q-47 0 -99 -39q-20 -16 -40.5 -32.5t-40.5 -39.5q-16 -18 -26.5 -31.5t-21.5 -23.5q-78 -66 -141 -180q-33 -59 -55.5 -111.5t-32.5 -99.5q-16 -59 -33.5 -118.5t-32.5 -121.5q-45 -154 -45 -233q0 8 4.5 -24t12.5 -103q25 -207 190 -379 q41 -41 66 -60q43 -35 104 -34q78 0 78 71q0 47 -59 119q-43 53 -71 89t-40 56q-57 109 -57 232q0 180 82 434q23 49 38 84t31 57q25 41 66 91.5t98 109.5q27 27 46.5 45.5t31.5 30.5q49 58 49 121z" />
<glyph unicode=")" horiz-adv-x="688" d="M678 1139q0 -8 -3 4t-7 45q-8 31 -12.5 52.5t-8.5 33.5q-16 47 -41.5 96t-62.5 100q-29 37 -57.5 71t-59.5 60.5t-61.5 43t-59.5 16.5q-76 0 -76 -72q0 -51 32 -88t63 -71q23 -27 41 -57t38 -62q-4 0 0 -6l19 -54q12 -41 20.5 -66.5t8.5 -37.5q6 -35 6 -78 q0 -82 -47 -281q-16 -59 -23.5 -91.5t-11.5 -41.5l-56 -143q-31 -66 -96 -127q-207 -176 -207 -264q0 -92 101 -92q39 0 65 20q12 8 51 51q18 16 35 30.5t33 27.5q6 10 18.5 23.5t28.5 29.5q41 35 47 55q31 25 78 111q10 23 25.5 53.5t33.5 71.5q23 41 30 60.5t9 21.5l3 6 l1 2v-2v-6q16 72 32 124t26 87q18 94 24 151q10 72 15.5 121t5.5 72z" />
<glyph unicode="*" horiz-adv-x="921" d="M907 1526q0 113 -121 112q-10 0 -30.5 -2t-44 -4t-44 -4t-32.5 -2q-63 0 -80 29q-14 31 -20 123q-2 49 -7.5 80.5t-11.5 48.5q-23 59 -94 59q-47 -4 -76 -44t-24 -87q0 -35 12 -92q-6 -16 -19 -17q-23 23 -40 42.5t-39 41.5q-47 43 -101 43q-33 0 -54.5 -22.5 t-21.5 -52.5q0 -41 56 -111q20 -29 40.5 -55.5t41.5 -50.5q-23 -23 -70 -23h-4h-39q-29 -8 -52.5 -29.5t-23.5 -48.5q0 -68 55 -112q57 -49 119 -50q10 0 33 4.5t35 4.5q47 0 55 -21q12 -12 12 -61q0 -16 -2 -41t-2 -41q0 -98 86 -150q14 -8 47 -8q55 0 70 88q6 55 16.5 89 t20.5 50q8 -4 31.5 -13t60.5 -28q74 -35 80 -34q31 0 53.5 26.5t22.5 59.5q0 39 -58 82q-66 47 -75 71q39 10 77.5 17.5t77.5 17.5q84 25 84 115z" />
<glyph unicode="+" horiz-adv-x="985" d="M973 942q0 -59 -29 -94q-39 -45 -88 -45h-166q-61 0 -100 -55q-35 -43 -47 -111q-4 -20 -10.5 -48t-16.5 -63q-23 -82 -41 -102q-18 -23 -65 -23q-113 0 -113 164q0 29 6 88q2 29 3 49.5t1 36.5q0 51 -67 52q-16 0 -41 -2.5t-35 -2.5q-106 0 -137 58q-23 37 -23 82 q0 78 84 98q41 10 148 10q133 0 141 51q4 23 6 51.5t6 69.5q6 115 14 150q25 90 103 90q113 0 112 -135q0 -12 -3 -34t-6 -45.5t-5 -46t-2 -34.5q0 -49 31 -74q6 -8 90 -14q29 -2 71 -5t97 -11q82 -19 82 -105z" />
<glyph unicode="," horiz-adv-x="339" d="M322 141q0 55 -54 90q-47 35 -104 35q-35 0 -66.5 -27.5t-42.5 -62.5q-10 -57 -14 -99t-6 -75q-2 -8 -6 -30.5t-4 -37.5q0 -55 55 -55q20 0 92 47q29 20 47.5 37t34.5 33q68 69 68 145z" />
<glyph unicode="." horiz-adv-x="352" d="M324 162q0 -61 -54 -115q-51 -51 -114 -51q-66 0 -102 43t-36 108q0 18 5.5 39t15.5 43q29 57 127 58q55 0 102 -35q56 -37 56 -90z" />
<glyph unicode="/" horiz-adv-x="1097" d="M1098 1497q0 59 -31 97t-88 38q-43 0 -70 -20q-20 -23 -34.5 -43.5t-22.5 -36.5l-92 -139q-25 -37 -39 -57.5t-21 -30.5q-66 -88 -136 -189.5t-148 -224.5q-4 -12 -69.5 -118.5t-188.5 -315.5q-23 -37 -44.5 -72t-43.5 -70q-33 -53 -47.5 -89t-14.5 -52q0 -45 53 -98 q49 -59 95 -60q29 0 51 31q6 12 11 22.5t9 16.5q66 117 116 202t85 140q23 45 39 79t27 56q39 68 90 143.5t110 167.5q53 76 106.5 149t106.5 148q37 53 64.5 95.5t50.5 72.5q29 43 43 65l14 21q19 27 19 72z" />
<glyph unicode="0" horiz-adv-x="1777" d="M1751 864q0 -29 -12.5 -77t-34.5 -119q-74 -215 -231 -359q-16 -10 -39 -23.5t-56 -35.5q-90 -68 -175 -114t-165 -73q-12 -4 -33.5 -8t-50.5 -10q-61 -16 -136 -24.5t-161 -8.5q-66 0 -120 2t-91 13q-12 6 -34.5 13t-48 16.5t-51 22.5t-46.5 30q-43 33 -82 73.5 t-75 98.5q-80 117 -80 217q0 186 57 321q25 59 61.5 127t85.5 148q145 227 340 362q225 152 467 152h80q137 0 242 -45q125 -51 194 -152q37 -39 95 -131q100 -193 100 -416zM1497 926q0 37 -8 79t-25 89q-37 100 -90 135q-123 86 -227 86q-90 0 -229 -35q-10 -4 -30 -9 t-50 -22q-90 -35 -201 -116q-119 -92 -225 -279q-111 -203 -111 -346q0 -111 113 -172q92 -47 215 -47q78 0 156.5 12t164.5 45q25 8 61 20.5t83 34.5q51 29 98 62t90 69q49 47 84 92.5t57 92.5q10 23 22.5 48.5t22.5 51.5q29 62 29 109z" />
<glyph unicode="1" horiz-adv-x="579" d="M575 1456q0 35 -7 63.5t-19 57.5q-31 68 -92 68q-33 0 -62 -17q-45 -39 -77.5 -65.5t-53.5 -46.5q-68 -59 -115 -102.5t-73 -70.5q-18 -18 -37 -57q-18 -41 -19 -61q0 -45 41 -74q39 -37 82 -37q10 0 35 7t37 7q18 0 18 -26q0 -16 -2 -19l-131 -925q-2 -2 -2 -13 q0 -55 33 -94q31 -43 86 -43q76 0 109 150q10 53 17 105t15 106q23 117 41.5 200.5t30.5 139.5q20 92 37.5 157.5t28.5 108.5q23 106 34 186t21 133q10 78 17 117t7 45z" />
<glyph unicode="2" horiz-adv-x="1312" d="M1280 162q0 -80 -96 -80q-16 0 -40 3t-57 7q-66 6 -96 6h-336q-72 0 -156.5 -18.5t-189.5 -52.5q-147 -55 -159 -56q-41 0 -95 47q-49 45 -49 91q0 59 127 192l180 180q92 96 174 182.5t154 161.5q59 61 117.5 121t118.5 119q164 182 163 264q0 35 -18 43q-16 4 -47 4 q-10 0 -49 -4t-105 -16q-57 -10 -121 -33q-297 -100 -381 -248l-38 -90q-18 -43 -76 -43q-66 0 -86 41q-18 27 -19 94q0 88 70 185q100 137 266 208q74 31 136.5 52.5t115.5 36.5q186 49 313 49q123 0 194 -80t71 -203q0 -47 -7.5 -85t-19.5 -71q-68 -162 -365 -448 q-29 -33 -69.5 -76t-95.5 -102q-23 -23 -42.5 -41.5t-41.5 -38.5q-55 -55 -56 -86q0 -25 23 -43h350q88 0 146.5 -4t91.5 -11q37 -10 67 -61q33 -53 33 -96z" />
<glyph unicode="3" horiz-adv-x="1462" d="M1442 627q0 -31 -19 -92q-20 -68 -32 -93q-86 -180 -334 -305q-231 -123 -445 -123q-4 0 -22.5 4.5t-50.5 8.5q-27 6 -66 14t-90 20q-90 23 -135 45q-16 14 -70 46q-8 4 -22.5 10t-36.5 16q-94 43 -94 123q0 45 41 82q49 37 94 37t239 -84q10 -4 24.5 -10.5t37.5 -12.5 q76 -16 201 -16h28q18 0 25 2q16 2 46 11t77 30q127 59 209 125q133 98 133 186q0 131 -195 131q-16 0 -47 -3t-47 -3q-2 0 -21.5 -4t-56.5 -10q-18 -4 -36.5 -7t-39.5 -7q-10 -2 -65 -15q-47 -10 -60 -10q-59 0 -100 39t-41 98q0 55 53 103q4 4 29 18t72 47q35 23 86 52.5 t123 70.5q33 23 66.5 42t68.5 42q102 66 102 100q0 102 -176 103h-76q-41 0 -93 -8.5t-112 -28.5q-18 -2 -59 -17q-35 -12 -86 -37.5t-117 -68.5q-16 -16 -37.5 -33.5t-52.5 -38.5q-18 -8 -51 -8q-47 0 -86 35t-39 82q0 16 11.5 39.5t35.5 52.5q20 29 38.5 47.5t35.5 28.5 q78 53 167 89t187 58q80 14 175 22.5t212 6.5h41q160 -4 285 -70q147 -84 147 -235q0 -55 -59 -137q-10 -16 -38 -44t-71 -73q-59 -63 -59 -84q0 -23 49 -55q16 -10 34.5 -20.5t37.5 -20.5q57 -39 94 -134q16 -41 24.5 -79.5t8.5 -79.5z" />
<glyph unicode="4" horiz-adv-x="1269" d="M1243 811q0 -39 -17.5 -67.5t-33.5 -57.5q-4 -10 -7 -24.5t-7 -30.5l-17 -107v-35v-20t-2 -23q-4 -59 -6 -178q0 -31 -2 -78t-6 -108q-6 -27 -34 -49.5t-56 -22.5q-33 0 -65 24.5t-48 53.5q-8 14 -14 82q-12 72 -10 80l26 307q6 88 -55 88q4 0 -3 -2t-30 -8 q-12 -4 -28.5 -7t-45.5 -7q-31 -4 -74.5 -13.5t-105.5 -21.5q-240 -61 -358 -62q-100 0 -168 72q-72 66 -72 166q0 31 13.5 70.5t41.5 93.5q23 39 45.5 75.5t47.5 75.5q31 59 75.5 148.5t108.5 206.5q16 27 27.5 53t23.5 53q41 80 64 90q33 14 47 14q45 0 75 -51 q27 -51 27 -98q0 -51 -35 -121l-149 -289q-129 -250 -129 -256q0 -39 35 -39q10 0 37.5 4.5t70.5 12.5q43 10 86 20.5t92 20.5q37 8 93.5 19.5t129.5 27.5q117 25 117 86l-12 330q-2 29 5 53t17 47q27 49 80 49q10 0 43 -16q31 -23 35 -33q43 -57 53 -174q4 -47 6.5 -93 t6.5 -93q0 -20 3 -46t7 -61q4 -10 11 -22.5t18 -26.5q22 -62 22 -82z" />
<glyph unicode="5" horiz-adv-x="1501" d="M1481 1485q0 -16 -33 -49q-12 -10 -24.5 -20.5t-22.5 -22.5q-23 -10 -57.5 -18.5t-81.5 -20.5q-23 -4 -71 -8.5t-132 -10.5q-29 -4 -67 -5t-89 -3l10 -2q-12 -6 -51 -8t-104 -2q-20 0 -59.5 3t-61.5 3q-117 0 -117 -94q0 -14 25 -35h309q25 0 66 -14q33 -10 49 -13.5 t20 -5.5q109 -23 162 -55q68 -35 119 -88t88 -125q66 -137 65 -293q0 -268 -266 -434q-233 -147 -514 -148q-141 0 -367 101q-258 117 -258 231q0 27 39 66q37 45 64 49q4 2 16 2h31q35 0 117 -45q33 -16 62.5 -31.5t58.5 -32.5q117 -53 231 -53q90 0 173 22.5t161 69.5 q182 109 182 275q0 141 -123 200q-98 47 -246 48l-147 -7l-297 -16q-4 -2 -16 -2h-13q-78 0 -110.5 31.5t-32.5 109.5q0 57 88 295q6 16 15.5 41t19.5 57q2 16 7 36t11 46q14 23 51 60q39 31 72 30h55q33 0 78 -2t80 -2h57q43 0 74 1t49 3q16 0 47 5.5t48 5.5h88h92 q10 0 34.5 2t67.5 8l152 25q16 4 22 4t2 0q43 0 72 -62q31 -59 31 -102z" />
<glyph unicode="6" horiz-adv-x="1452" d="M1440 662q0 -111 -146 -267q-133 -139 -245 -196q-104 -53 -140 -70q-39 -18 -75.5 -32.5t-73.5 -24.5q-160 -51 -248 -52q-16 0 -38.5 6.5t-39.5 6.5q-141 0 -272 88q-139 100 -139 237q0 152 96 387q8 20 18 48t27 63q29 72 63.5 127t57.5 96q29 51 59.5 97.5 t73.5 89.5q10 12 51 52t111 107q37 33 63.5 56.5t42.5 38.5q55 49 115 75q72 35 142.5 51.5t135.5 16.5q92 0 155.5 -50t63.5 -140q0 -92 -79 -93q-23 0 -57 4.5t-54 4.5q-113 0 -162 -17q-55 -16 -131 -78q-72 -59 -125 -123.5t-98 -142.5q-45 -74 41 -45q43 14 70.5 20.5 t42 8.5t31 4t36.5 6q35 6 60.5 10t48.5 4q199 0 352 -88q61 -35 117 -127q49 -85 49 -159zM1126 676q0 94 -161 94h-80t-109 -2q-68 -16 -114 -30.5t-68 -26.5q-25 -12 -43.5 -22.5t-34.5 -21t-32.5 -19.5t-32.5 -21q-18 -12 -39 -30.5t-41.5 -42.5t-36 -51.5t-21.5 -58.5 q-18 -18 -6 -51q0 -92 170 -92q-6 0 22.5 3t94.5 13q16 0 49 11.5t82 31.5q66 29 125 62t111 67q165 107 165 187z" />
<glyph unicode="7" horiz-adv-x="1419" d="M1382 1434q0 -82 -149 -299q-66 -98 -133.5 -204t-138.5 -218q-12 -27 -33 -61t-49 -83q-29 -43 -63 -98t-77 -131q-27 -51 -52 -101.5t-52 -103.5q-86 -139 -150 -139q-72 0 -110 51q-39 47 -39 127q0 45 55 131q35 55 82 138t105 194q4 8 11 16.5t17 24.5l51 78 q328 463 328 536q0 49 -74 49q-49 0 -129 -8t-184 -24q-113 -18 -189.5 -35t-115.5 -33q-29 -16 -51.5 -33.5t-46.5 -44.5q-31 -25 -58 -24q-43 0 -86 57q-41 57 -41 109q0 55 27 96q10 12 30.5 27.5t51.5 35.5q43 25 166 62q45 10 118 20q55 8 86 12.5t35 4.5q23 8 55.5 14 t77.5 16q39 6 100.5 13.5t151.5 13.5q59 8 94 9t46 1q10 0 21 1t28 3q31 6 51 6q47 0 131 -30q39 -14 72 -72q30 -59 30 -104z" />
<glyph unicode="8" horiz-adv-x="1243" d="M1219 1296q0 -78 -70 -153q-18 -23 -50 -50.5t-79 -64.5q-70 -51 -70 -70q0 -12 47 -42.5t47 -36.5q0 -8 31 -26.5t73 -75t58 -138.5q20 -78 8 -119q-12 -39 -8 -71q0 -154 -157 -269q-119 -88 -301 -135q-127 -35 -211 -35q-225 0 -310 58q-205 150 -204 368 q0 121 92 242q2 2 9 11t30 32q10 10 21 26.5t30 36.5q4 8 14 15.5t23 19.5q102 90 102 115q0 18 -16 27q-145 94 -189 161q-43 74 -43 127q0 117 133 224q213 170 492 169q225 0 340 -59q158 -82 158 -287zM985 1343q0 59 -78 80q-82 23 -147 15q-35 -4 -62.5 -5t-50.5 -3 q-43 0 -131 -37q-86 -35 -113 -90q-29 -14 -34 -56q-4 -18 6 -33.5t27.5 -31t40 -31.5t46.5 -37q45 -16 80 -23.5t58 -0.5q47 8 69 16q31 10 73 36.5t105 74.5q111 81 111 126zM969 524q0 68 -72 146q-63 68 -133 104q-33 16 -52.5 24.5t-29.5 8.5q-12 0 -35.5 -5t-60.5 -18 q-72 -18 -197 -168q-125 -145 -125 -221q0 -59 76 -96q72 -33 131 -33q86 0 215 37q123 35 191 82q33 23 62.5 63.5t29.5 75.5z" />
<glyph unicode="9" horiz-adv-x="1224" d="M1206 1483q0 -16 -1 -28.5t-11 -29.5q-4 -12 -6 -24t-6 -23q-10 -72 -19.5 -141.5t-32.5 -136.5q-10 -27 -14 -56.5t-10 -58.5q-16 -53 -24.5 -106.5t-20.5 -106.5q-4 -47 -8 -92t-9 -94q-4 -20 -4 -39q0 -18 -4 -41q-2 -27 -3 -54.5t-3 -54.5q-4 -47 -6 -92t-6 -92 q-4 -27 2 -49.5t2 -48.5q-2 -45 -43 -73t-84 -30q-31 2 -62.5 9.5t-54.5 23.5q-25 33 -32 72t-6 79t7.5 80.5t8.5 79.5q2 72 11 144.5t-7 138.5q-16 -4 -27.5 -6t-23.5 -6l-62 -17q-47 -10 -92 -16t-92 -8q-92 -2 -174 29.5t-152 86.5q-47 33 -74.5 80t-41 101.5t-15.5 113 t2 113.5q4 68 31 134.5t80 113.5q12 16 25.5 29.5l29.5 29.5q41 33 87 56.5t95 46.5q31 16 65 30.5t66 30.5q18 4 35 8t33 8q12 6 24.5 10.5t22.5 8.5q78 23 157 34t156 11q51 -2 100.5 -4t94.5 -19q47 -18 75.5 -60t20.5 -95zM932 1288q2 23 2 47q0 27 -27 58 q-20 8 -38.5 12t-41.5 4q-74 4 -144.5 -14.5t-142 -47t-137 -64.5t-118.5 -91q-29 -31 -41.5 -68t-10 -74.5t18.5 -71.5t45 -58q23 -23 49.5 -43.5t61.5 -24.5q33 -2 61.5 -6t56.5 -8q74 -4 144.5 26.5t124.5 83.5q66 72 95.5 161t41.5 179z" />
<glyph unicode=":" horiz-adv-x="415" d="M395 920q0 68 -65 108q-59 41 -121 41q-37 0 -86 -16q-51 -18 -64 -52q-27 -55 -26 -98q0 -86 43 -129q41 -53 119 -53q74 0 139 61q61 62 61 138zM387 293q0 66 -63 104q-59 43 -125 43q-20 0 -42 -3t-42 -13q-49 -16 -66 -51q-23 -47 -22 -99q0 -78 43 -128t120 -50 q74 0 134 60q63 61 63 137z" />
<glyph unicode=";" horiz-adv-x="417" d="M416 1004q0 -76 -62 -138q-61 -63 -137 -63t-119 52t-43 130q0 27 6.5 49.5t18.5 48.5q12 33 63 50q23 10 43.5 14t42.5 4q63 0 123 -41q64 -43 64 -106zM373 389q0 -100 -74 -231q-86 -145 -176 -146q-23 0 -55 27q-31 27 -27 49q4 33 11 78t18 110v27v19q0 8 2 18 q12 184 149 184q66 0 109 -34.5t43 -100.5z" />
<glyph unicode="&#x3c;" horiz-adv-x="761" d="M754 1331q0 47 -36 83t-77 36q-45 0 -176 -127q-27 -29 -53.5 -54.5t-55.5 -51.5l-53 -54h2q-47 -37 -84 -63.5t-65 -44.5h2q-16 -12 -23 -15q-139 -102 -139 -176q0 -29 5 -54.5t19 -49.5q16 -29 42 -69t65 -87q35 -45 57.5 -77.5t38.5 -55.5q14 -16 17 -22v2 q35 -63 76.5 -120t89.5 -110l22 -22q6 -6 11 -11.5t16 -11.5l77 -92q57 -61 103 -61q80 0 80 112q0 39 -43 98q-6 8 -16.5 19.5t-26.5 28.5q-20 23 -47 51t-62 67q-51 53 -86 98.5t-51 80.5l-6 9t-6 7q-12 12 -13 16q-115 158 -114 178q0 39 180 193l117 98q29 25 57.5 48.5 t58.5 50.5q97 92 97 153z" />
<glyph unicode="=" horiz-adv-x="808" d="M780 858q0 -43 -14 -58.5t-55 -15.5q-25 0 -64 -6q-23 -4 -39 -7t-24 -5l-369 -21q-45 -4 -74.5 -0.5t-48.5 9.5q-23 16 -45 56t-27 83q0 25 31 43q25 18 51 27q4 2 21.5 4t46.5 8q125 20 227.5 29.5t186.5 9.5q66 0 123 -23q72 -35 71 -90q0 -16 2 -22v-21zM754 483 q0 -31 -13 -57q-18 -37 -41 -43q-2 0 -16 -1t-43 -3q-66 -6 -142.5 -12.5t-166.5 -10.5q-96 -6 -103 -6q-70 0 -123 45q-59 43 -59 111q0 27 16.5 51.5t38.5 28.5q12 4 54.5 8t115.5 14q49 4 97.5 7t99.5 8q37 4 58.5 5t25.5 1q98 0 143 -23q29 -16 43.5 -46t14.5 -77z" />
<glyph unicode="&#x3e;" horiz-adv-x="761" d="M750 817q0 82 -129 160q-39 23 -81 53.5t-89 71.5h2h-2v2v-2q-27 29 -51.5 54.5t-51.5 51.5l-53 52q-129 123 -168 122q-41 0 -75 -36.5t-34 -77.5q0 -43 29 -84q35 -37 60.5 -65.5t44.5 -47.5q68 -68 120 -116t95 -81q20 -16 40.5 -31.5t43.5 -31.5q57 -51 57 -68 q0 -27 -102 -165q-14 -16 -23.5 -27.5t-13.5 -20.5h2q-37 -68 -129 -165q-66 -68 -99.5 -108t-44.5 -52q-51 -57 -51 -94q0 -47 25 -72v4q23 -41 59 -41q47 0 105 64l36 43q10 12 19.5 23t19.5 24q27 35 49.5 63.5t42.5 52.5q16 18 27.5 35t22.5 29q20 27 38.5 50.5 t34.5 45.5q35 43 61.5 78t49.5 61q18 27 28.5 43.5t17.5 26.5t12 19.5t14 23.5q41 57 41 133z" />
<glyph unicode="?" horiz-adv-x="1343" d="M1325 1288q-6 -33 -24.5 -68.5t-40.5 -80.5q-27 -43 -52.5 -75t-52.5 -56q-100 -88 -293 -172q-92 -41 -171 -66t-146 -35q-29 -4 -44.5 -6t-19.5 -4q-16 -4 -29.5 -14.5t-25.5 -22.5l-12 -35q-55 -158 -123 -157q-80 0 -80 241q-2 33 -1 51.5t1 28.5q10 41 40 78t71 47 q16 4 44.5 10t67.5 17q82 18 142.5 31.5t103.5 19.5q16 4 40.5 11t59.5 20q279 94 307 227q31 145 -305 145h-4q-41 0 -94 -5t-123 -15q-135 -18 -217 -41q-8 -4 -131 -49q-41 -16 -71.5 -24.5t-53.5 -8.5q-35 0 -55.5 23.5t-12.5 58.5q27 129 342 221q68 23 267 49 q72 14 190 15q78 0 135.5 -4.5t100.5 -12.5q111 -20 202 -119q93 -106 68 -223zM479 201q-16 -70 -84 -123q-68 -55 -135 -55q-147 0 -104 200l32 49q39 61 150 62q57 0 102 -35q51 -45 39 -98z" />
<glyph unicode="@" horiz-adv-x="1699" d="M1686 993q0 -174 -72 -317q-78 -158 -213 -244q-72 -45 -170 -45h-14q-10 0 -17 2h-31q-41 0 -78.5 21.5t-68.5 21.5q-16 0 -47 -7t-76 -19q-86 -23 -129 -23q-135 0 -217 70q-92 80 -92 204q0 125 82 271q66 119 149 176q29 23 66 38t80 32q86 31 155 30q66 0 125 -24 q76 -33 76 -88q0 -6 -5 -24.5t-18 -49.5q-10 -35 -15 -56.5t-7 -31.5q-10 -43 -13 -90t-3 -99q0 -143 86 -143q96 0 182 111q37 51 59.5 101t26.5 101q12 76 12 101q0 145 -59 221q-29 41 -127 94q-27 16 -68 29.5t-100 25.5q-29 6 -67 10.5t-89 2.5h-49q-555 -6 -696 -678 q-25 -119 32 -258q59 -141 177 -176q123 -37 204 -37q23 0 63 3t60 3q43 0 74 -16q37 -23 37 -62q0 -66 -40 -116t-106 -50q-295 0 -497 123q-37 20 -92 96q-29 33 -47.5 60.5t-30.5 50.5q-51 96 -51 244q0 369 237 696q37 51 77 92t83 78q94 82 266 131q162 49 297 49 q174 0 342 -72q188 -82 266 -219q8 -10 20.5 -30.5t31.5 -53.5q39 -68 39 -147v-113zM973 975q-16 14 -39 14q-76 0 -176 -92q-96 -90 -96 -172q0 -47 32.5 -87t79.5 -40q6 0 26.5 5t55.5 15q66 27 74 35q4 10 11 46t15 102q10 59 13.5 99t3.5 56v19z" />
<glyph unicode="A" d="M1188 92q0 -88 -92 -88q-117 0 -142 66q-6 14 -32 133q-10 41 -22.5 100t-33.5 137q-4 18 -10 43t-18 60q-4 4 -9.5 11t-9.5 17q-72 -4 -160 -32q-39 -12 -76.5 -24.5t-76.5 -27.5q-35 -10 -57.5 -14t-34.5 -8q-49 -20 -68 -59q-10 -16 -33 -87l-65 -182 q-4 -16 -12.5 -37.5t-24.5 -50.5q-20 -33 -74 -33q-49 0 -82 27q-39 27 -39 78q0 53 47 168q16 45 32 88t32 88q25 82 60.5 175t80.5 200q33 74 69 162t75 192q55 147 149 309q10 16 22.5 40t30.5 54q8 14 39 25q31 12 49 12q82 0 121 -84q4 -10 14.5 -49t28.5 -110 l101 -383q10 -45 19 -79t18 -57q16 -27 73 -51q53 -14 72 -59q2 -4 2 -19q0 -51 -16 -77l-27.5 -27.5t-24.5 -28.5q-8 -8 -8 -20q0 2 3 -16.5t13.5 -57.5t17.5 -77t17 -74q10 -33 20.5 -66t20.5 -68q21 -76 21 -139zM754 815q-4 16 -12.5 63.5t-24.5 120.5q-35 160 -41 166 q-6 8 -25 13q-35 -41 -86 -181q-72 -199 -71 -213q0 -10 8 -32h69l99 22q68 18 84 41z" />
<glyph unicode="B" horiz-adv-x="1316" d="M1323 543q0 -197 -217 -338q-82 -51 -182.5 -91t-221.5 -69q-84 -16 -150.5 -26.5t-127.5 -10.5q-111 0 -229 37q-156 43 -156 129q0 45 49 76q51 31 51 106q0 -8 -1 17.5t-3 85.5q-2 10 -2 98v240v28q0 23 -2 48.5t-2 41.5v33v203q0 53 2 104.5t6 100.5q0 29 -16 45 q-16 25 -8 78q10 29 21 47t24 30q47 53 149.5 68.5t263.5 15.5q23 0 66 -4t114.5 -14t113.5 -18.5t55 -12.5q123 -31 208 -127q90 -94 23 -356q-10 -16 -22.5 -32.5t-34.5 -39.5q-33 -43 -33 -51q0 -18 76 -90q37 -31 67.5 -72t57.5 -90q61 -108 61 -190zM942 1290 q0 141 -321 142l-36 -4q-36 -3 -102 -9q-10 -2 -27.5 -5t-35.5 -13q-43 -39 -43 -283q0 -10 1 -24.5t3 -30.5q6 -41 6 -55q20 -20 47 -21q76 0 182 33q111 31 166 76q160 122 160 194zM983 430q166 135 25 287q-141 150 -166 149q-10 0 -107 -41q-51 -18 -82.5 -29.5 t-44.5 -13.5q-10 -2 -39.5 -9t-81.5 -17l-49 -17q-29 -14 -49 -14q-4 0 -2 2q-12 -20 -12 -74q0 -12 1 -35.5t1 -33.5q0 -84 6 -158t16 -141l21 -23h16q66 -2 178 19q57 10 99.5 19t74.5 22q55 18 102.5 45.5t92.5 62.5z" />
<glyph unicode="C" horiz-adv-x="1298" d="M1288 494q0 -152 -430 -375q-23 -16 -53.5 -30.5t-71.5 -31.5q-84 -23 -138 -34t-83 -11q-209 0 -315 86q-102 80 -140 164q-33 68 -32 207q0 35 5 75t15 87q12 47 24.5 85t28.5 66q39 76 117 222q35 59 102.5 151t171.5 217q16 18 41 44t64 61q68 68 113 96 q100 68 219 67q133 0 184 -102q35 -74 35 -221q0 -168 -90 -168q-47 0 -70 57q-6 29 -13 55.5t-11 55.5q-18 57 -68 57q-125 0 -283 -188q-111 -129 -207 -307q-53 -92 -78.5 -139.5t-27.5 -49.5q-51 -109 -51 -205q0 -109 51 -174q57 -68 166 -67q100 0 215 59q27 10 76 39 t120 74q53 35 99.5 72.5t93.5 74.5q55 41 109 41q51 0 81.5 -29.5t30.5 -80.5z" />
<glyph unicode="D" horiz-adv-x="1236" d="M1235 915q0 -412 -545 -708q-39 -23 -97 -49.5t-142 -61.5q-29 -16 -55.5 -28.5t-53.5 -28.5q-31 -18 -59.5 -26.5t-53.5 -8.5q-100 0 -145 41t-45 141q0 6 6 62l16 135q6 66 17.5 162t23.5 229q4 23 11.5 55.5t13.5 79.5q8 37 11 86t7 113q2 16 4.5 51t6.5 96q4 47 6 83 t2 65q0 16 -3 52t-3 65v34q0 94 145 95q66 0 116 -7.5t87 -19.5q23 -8 74 -14q47 -2 71 -13q49 -16 98.5 -29.5t102.5 -29.5q51 -20 98 -46t88 -60q33 -29 69 -71t73 -102q55 -96 55 -342zM987 971q0 238 -168 336q-131 74 -385 71h-16q-4 -10 -7 -24.5t-8 -36.5 q-2 -16 -3 -33.5t-5 -34.5q0 -4 -1 -13t-5 -19q-2 -8 -5 -31t-9 -62q-10 -59 -16.5 -118.5t-12.5 -118.5q-2 -35 -5 -81t-9 -110q-2 -8 -4 -18t-6 -25q-2 -23 -5.5 -57.5t-7.5 -83.5q-4 -57 -7 -91t-3 -44q0 -53 39 -53q23 0 84 24q174 70 313 184q164 137 219 285 q4 10 9.5 33.5t13.5 60.5q6 35 8 49.5t2 10.5z" />
<glyph unicode="E" horiz-adv-x="1363" d="M1348 231q-4 -45 -37 -74.5t-76 -39.5q-41 -2 -81 -7.5t-81 -5.5q-166 4 -323.5 -21.5t-317.5 -62.5q-45 -10 -93 -11t-97 3q-61 4 -105.5 34t-72 75t-36 98t2.5 107q6 59 13 118.5t17 118.5q10 61 17.5 121.5t13.5 120.5q6 51 6 106v56t-2 55v145v109q0 29 -1 55.5 t-3 54.5q-4 33 10.5 57.5t39 41t56 22.5t60.5 4q41 16 80 23.5t82 21.5q80 12 160 31q72 18 139 28.5t137 14.5q29 6 55.5 5t53.5 7q63 10 106 -10q33 -16 60.5 -46t43 -65.5t16.5 -71.5t-17 -63q-57 -23 -108.5 -27.5t-102.5 -4.5t-103.5 -1t-109.5 -14q-37 -2 -73 -5 t-73 -11q-37 -4 -73.5 -11t-75.5 -24q-10 -6 -21.5 -11t-23.5 -5h-17l-10 -15l-6 -16l-2 -16l-2 -19l-4 -18q-2 -23 -3 -45.5t-1 -44.5q6 -10 0.5 -21.5t-3.5 -21.5q-2 -31 19 -45l14 -6q68 8 135.5 18t135 16t135 5t135.5 -15q16 0 31.5 -3t31.5 -7q43 -16 68 -53t14 -84 q-2 -37 -34.5 -53.5t-65.5 -14.5q-39 4 -79 5t-77 1q-78 6 -149.5 -9t-145.5 -28q-35 -4 -67.5 -11t-67.5 -11q-41 -6 -57 -40t-16 -67q-4 -61 -11.5 -122.5t-5.5 -120.5v-15q0 -10 -2 -16q-12 -27 4.5 -52.5t59.5 -35.5q33 -4 61.5 -3t56.5 3q98 10 190.5 31.5t188.5 37.5 q53 4 104.5 5.5t104.5 7.5q47 -2 94 3t95 11q45 -18 67.5 -62.5t18.5 -93.5z" />
<glyph unicode="F" horiz-adv-x="1132" d="M1128 1540q0 -51 -19 -73.5t-69 -32.5q-59 -10 -146 -27.5t-204 -44.5q-33 -6 -67.5 -13.5t-69.5 -13.5q-90 -18 -129 -43q-29 -18 -37 -46.5t-12 -84t-2 -137.5v-92l88 -2q-2 6 41 16q45 6 102.5 15.5t159.5 21.5q61 10 96 13t43 3q143 0 144 -106q0 -68 -54 -92 l-114 -25q-37 -10 -100.5 -20.5t-157.5 -22.5q-170 -25 -250 -49q-55 -18 -56 -72q0 -8 -12 -254q-4 -78 -9 -139t-11 -115q-16 -92 -54 -104q0 -2 -18 -2q-49 0 -100 18q-53 18 -31 84q-2 10 -3 22.5t-1 31.5v16q0 10 2 20v35v207q0 31 6 103q4 39 -2 61q-4 14 -7 37.5 t-7 58.5q-23 39 -23 64q0 35 25 94q18 18 29.5 36.5t17.5 37.5q2 43 3 106.5t1 151.5q0 47 -55 71q-31 2 -46 11l-20 59q0 59 20 86q76 84 467 168q174 39 304.5 55.5t220.5 16.5q116 0 116 -109z" />
<glyph unicode="G" horiz-adv-x="1556" d="M1493 850q0 113 -31 156q-37 55 -145 55q-23 0 -66 -7t-102 -24q-86 -20 -160 -43.5t-137 -50.5q-207 -86 -207 -184q0 -49 33 -88q37 -43 78 -43q20 0 59 11t100 38q43 16 84 30.5t84 30.5q33 12 53.5 19.5t30.5 7.5q16 0 28.5 -11.5t12.5 -23.5q0 -33 -116 -162 q-264 -279 -627 -278q-88 0 -150 88q-53 78 -53 172q0 92 76 252q66 141 287 350q238 225 364 225q53 0 105 -45q45 -45 57 -45q57 0 57 119q0 106 -39 157q-47 74 -133 74q-70 0 -132 -20.5t-118.5 -51t-108.5 -67.5t-102 -70q-295 -217 -456 -563q-92 -188 -92 -315 q0 -86 17 -160t56 -137q86 -141 232 -199q35 -16 71.5 -22.5t73.5 -6.5q10 0 31.5 1t58.5 6q61 6 94 9t44 5q23 6 41 13t30 11q33 10 56.5 15.5t39.5 9.5q41 16 90.5 44t110.5 65q113 74 196 154.5t140 168.5q39 63 64 158q20 90 20 172z" />
<glyph unicode="H" horiz-adv-x="1114" d="M1149 1427l-76 -1331l-6 -18t-10 -31q-29 -66 -101 -65q-37 0 -82 20q-37 20 -47 61q-6 31 -7 84.5t3 133.5v14q0 10 2 20q2 20 0 52l6 88v28q0 18 3 41v41q2 10 2 17v12l2 47q4 98 -37 127l-238 -23q-16 -2 -37.5 -4t-54.5 -6q-20 0 -59 -6q-51 -6 -54 -106 q-2 -63 0 -193q4 -66 4 -111t-2 -79q-12 -227 -122 -228q-63 0 -121 49q-41 53 -23 119q-23 104 -10 266q8 86 12 168t2 166q0 23 1 60t-1 88q8 289 13 362q12 307 149 307q70 0 102 -69q18 -29 25.5 -60.5t7.5 -64.5l-18 -363q-4 -29 14 -41q31 -16 99.5 -9t199.5 20 q119 10 133 30q18 25 23 93q4 33 0 96v31q0 14 2 26v23q0 10 2 20l10 207q0 8 39 47q35 37 51 47q12 4 25.5 6t28.5 2q153 0 145 -211z" />
<glyph unicode="I" horiz-adv-x="1300" d="M1278 1477q0 -104 -166 -105q-92 -16 -148.5 -26.5t-80.5 -10.5q-47 -57 -47 -280v-15q0 -6 -2 -16l-68 -645v-14q0 -39 6 -46.5t45 -7.5q14 8 35.5 10.5t50.5 2.5q27 0 47.5 1t32.5 3t62.5 9t142.5 19q131 -78 47 -225q-6 0 -74.5 -15.5t-175.5 -27.5 q-29 -2 -190.5 -27.5t-440.5 -70.5q-82 -14 -123 -20.5t-73 -6.5q-16 0 -40 4t-57 10q-66 16 -55 113q0 59 57 86q16 8 43 13.5t68 13.5q16 4 42 9t60 11q43 6 68 10.5t33 6.5q57 12 88 34q35 27 47 103q4 31 6 59.5t6 57.5l45 350q10 98 16.5 186t6.5 164q0 59 6 113 q-53 -4 -82 -6.5t-35 -2.5q-8 0 -15 -1t-17 -3q-25 -4 -62 -10t-84 -12q-29 -4 -45 -6t-20 -2q-174 0 -175 125q0 57 55.5 86.5t166.5 46.5q43 8 88 16t86 14q35 10 84 12.5t98 8.5q27 2 51.5 4t51 6t110.5 10t227 17l133 -11q64 -75 64 -122z" />
<glyph unicode="J" horiz-adv-x="1605" d="M1581 1513q0 127 -242 127q-184 0 -304 -4t-208 -10t-161.5 -16.5t-165.5 -22.5q-129 -25 -174 -49q-86 -47 -86 -145q0 -47 45 -72q35 -23 84 -23q10 0 60 7.5t138 21.5q70 10 138.5 16.5t138.5 6.5q78 0 108 -50q23 -35 60 -243q16 -98 23 -162t7 -100q0 -78 -2 -136.5 t-8 -97.5q-16 -137 -79.5 -194.5t-192.5 -57.5q-94 0 -211 49q-53 23 -100.5 51.5t-90.5 61.5q-57 55 -120 115q-74 68 -144 67q-41 0 -67 -49q-23 -37 -23 -86q0 -135 262 -299q223 -143 381 -182q59 -16 101.5 -22.5t66.5 -6.5q109 0 225 47q115 53 170 154 q10 16 18.5 37.5t18.5 44.5q2 16 7.5 37.5t15.5 52.5q37 156 37 420q0 12 -4.5 41.5t-8.5 83.5q-10 45 -15 89t-15 89q-8 53 -12.5 98t-4.5 82v41q0 66 121 66h45q10 0 22.5 -1t22.5 -4q29 -4 44.5 -7t17.5 -3q8 0 12 10q49 39 49 127z" />
<glyph unicode="K" horiz-adv-x="1267" d="M1245 104q0 -84 -90 -84q-84 0 -237 185q-59 74 -119 145.5t-119 145.5q-197 231 -248 231t-87 -37t-36 -88q0 -4 1 -25.5t3 -62.5l17 -205q6 -98 6 -106q0 -63 -23 -115q-8 -14 -47 -43q-35 -25 -57 -25q-29 0 -66 25q-41 29 -47 51q-12 29 -23.5 84.5t-19.5 141.5 q-6 70 -10 127t-4 106v659q0 10 4 41t8 86q10 88 20.5 150.5t16.5 105.5q16 23 29.5 37.5t46.5 14.5q68 0 117 -56q55 -59 55 -127q0 -6 -12 -82q-16 -102 -22.5 -171.5t-6.5 -108.5q0 -61 51 -62q27 0 90 45q23 16 43.5 33t42.5 33q219 170 357 295q27 27 66.5 64.5 t94.5 84.5q41 39 86 39q37 0 78 -59q16 -27 26.5 -50.5t10.5 -43.5q0 -39 -18 -72q-4 -6 -16.5 -19.5t-30.5 -35.5q-57 -59 -126 -124t-153 -132q-20 -16 -51 -40t-74 -59q-39 -37 -39 -63q0 -33 20.5 -55.5t57.5 -63.5q84 -88 164 -192.5t168 -231.5q102 -162 102 -291z " />
<glyph unicode="L" horiz-adv-x="1259" d="M1253 412q0 51 -28 98q-33 51 -86 51q-29 0 -183 -69q-72 -31 -125 -52.5t-92 -38.5q-47 -16 -92 -32.5t-92 -32.5q-104 -33 -190 -33q-31 0 -46 64l-6 28l179 1069l2 4q2 70 -43 123q-49 53 -115 54q-61 0 -88 -52q-25 -31 -39 -102q-6 -29 -12.5 -56.5t-10.5 -56.5 q-27 -117 -45 -205t-35 -147q-43 -240 -63 -407.5t-20 -284.5q0 -158 65 -236q74 -84 231 -84q31 0 83.5 9.5t129.5 25.5q35 10 72 22.5t80 28.5q37 16 74 30.5t76 31.5q86 35 144 61.5t99 42.5q51 27 115 49q61 38 61 97z" />
<glyph unicode="M" horiz-adv-x="1376" d="M1346 129q0 -45 -26 -73.5t-71 -28.5q-147 0 -147 270v18q2 6 2 15v10v313q0 18 -3 64.5t-3 83.5v41q0 88 -33 88q-14 0 -29 -21q-4 -8 -21.5 -37.5t-47.5 -89.5q-33 -55 -70 -120.5t-78 -137.5q-16 -33 -67 -112q-29 -47 -70 -47q-68 0 -139 141q-16 29 -44 94.5 t-69 169.5q-59 141 -80 141q-39 0 -51 -147l-12 -184q-8 -92 -15.5 -167t-17.5 -139q-2 -55 -7 -113.5t-16 -123.5q-4 -6 -47 -27q-23 -10 -35 -12t-16 -2q-61 0 -88 63q-23 43 -22 115q0 16 3 40t7 52q12 63 12 90q16 197 34.5 370t45.5 333q4 29 8 68.5t8 93.5 q8 45 20.5 108.5t31.5 147.5q6 33 24 98q25 57 68 57q109 0 176 -94q16 -23 39.5 -83t58.5 -161q16 -43 37.5 -107.5t50.5 -150.5q4 -25 11.5 -47t13.5 -45q20 -70 41 -70q53 0 219 461q10 31 26.5 75t40.5 103q33 57 80 58q33 0 88 -39q23 -18 42.5 -35.5t29.5 -34.5 q6 -10 15.5 -33.5t18.5 -52t15 -55.5t8 -41q10 -84 14.5 -181.5t6.5 -219.5q0 -100 2 -198.5t4 -201.5q4 -72 7 -142.5t9 -141.5q7 -60 7 -66z" />
<glyph unicode="N" horiz-adv-x="1312" d="M1270 524q0 -41 -3 -102.5t-7 -138.5q-12 -209 -29 -232q-25 -47 -76 -47q-84 0 -250 139q-72 61 -125 114.5t-88 100.5q-16 23 -35.5 55.5t-48.5 75.5q-18 20 -63 76q-20 35 -51 82t-76 113l8 -8q2 0 0 2q-4 6 -9 14t-14 20q-53 68 -88 68q-10 0 -10 -78v-47v-14 q0 -10 -2 -19v-28v-80v-113l2 -27q2 -28 6 -83l17 -215q8 -49 -17 -91q-25 -49 -67 -49q-29 0 -115 6q-66 39 -80 86q-12 49 0 158q-2 43 -3 86t-1 86q-6 53 -11 122t-9 153q-6 113 -7 139q0 4 7 88l8 184q6 100 6 109v174q0 14 6 43q2 14 3 24.5t1 14.5q14 135 117 135 q92 0 139 -66q16 -23 38 -69.5t54 -130.5q96 -231 170 -340q47 -66 93.5 -133.5t93.5 -135.5q156 -223 188 -223q25 0 27 19q10 31 16 200q10 176 6 211l-47 566q-4 55 22.5 89.5t82.5 34.5q53 0 102 -49q51 -37 68 -92q12 -55 21 -140t13 -208q0 -29 1 -71t3 -101 q2 -12 3.5 -33.5t1.5 -50.5l5 -235z" />
<glyph unicode="O" horiz-adv-x="1644" d="M1589 950q0 -98 -18.5 -194.5t-61.5 -194.5q-80 -201 -219 -321q-35 -29 -77 -55.5t-95 -49.5q-23 -12 -55.5 -27.5t-77.5 -37.5q-119 -47 -313 -47q-53 0 -193 34q-23 4 -52.5 17.5t-74.5 29.5q-90 45 -114 62q-23 18 -41.5 35.5t-34.5 40.5q-43 20 -99 176 q-23 78 -27.5 136t9.5 101q0 16 4 52t14 90q10 57 28 110.5t46 104.5q94 172 179 282.5t171 169.5q131 90 235.5 135.5t188.5 45.5q16 0 48 6t49 6q131 0 268 -88q66 -41 114 -92.5t85 -114.5q20 -35 36.5 -75t26.5 -87q10 -33 16.5 -62.5t16.5 -60.5q18 -72 18 -127z M1333 903q0 176 -96 314q-102 152 -270 151q-133 0 -291 -119q-76 -59 -141.5 -125.5t-120.5 -150.5q-55 -86 -84 -160t-29 -141q0 -176 88 -266q74 -76 250 -115q31 -4 52.5 -7t35.5 -3q139 0 221 41q160 63 273 235q112 168 112 346z" />
<glyph unicode="P" horiz-adv-x="1155" d="M1143 1251q0 -106 -74 -231q-63 -111 -156 -195q-10 -10 -25.5 -23.5t-41.5 -31.5q-12 -10 -32.5 -21.5t-49.5 -27.5q-57 -37 -109.5 -61.5t-97.5 -41.5q-33 -10 -61.5 -19t-61.5 -19q-90 -33 -102 -56q-16 -27 -17 -108q0 -33 -8 -80q-4 -33 -6 -52.5t-2 -29.5l-4 -74 t-6 -78q-14 -94 -88 -94q-133 0 -129 160v6l20 799q0 16 2 39.5t6 58.5q2 33 3 57.5t1 40.5q0 53 -3 91t-13 60.5t-41 65.5q-29 31 -29 68q0 94 193 145q137 37 270 37q88 0 169 -7t153 -23q211 -43 274 -138q43 -49 56 -100q10 -47 10 -117zM897 1237q0 135 -270 135 q-240 0 -277 -53q-29 -51 -28 -447q0 -74 47 -73q16 0 69 22q160 66 289 162q170 133 170 254z" />
<glyph unicode="Q" horiz-adv-x="1654" d="M1284 319q0 -25 68 -118q61 -98 61 -168q0 -43 -28.5 -75t-71.5 -32q-66 0 -160 105q-96 106 -113 106q-244 -100 -434 -100l-34 4q-33 4 -103 14q-16 6 -44 14.5t-69 24.5q-176 70 -256 187q-76 113 -75 317q0 129 45 264t139 279q82 129 179 229t210 178q72 51 203 88 q117 39 221 39q131 0 262 -71q129 -70 213 -193q25 -33 62 -106q8 -16 38 -146q12 -41 13 -92v-45q0 -29 -11.5 -81t-33.5 -128q-20 -82 -59.5 -157.5t-96.5 -153.5q-20 -25 -35.5 -47.5t-34.5 -44.5q-55 -73 -55 -91zM1360 1069q0 147 -73 237.5t-210 90.5 q-186 0 -360 -111q-66 -45 -135.5 -123t-147.5 -190q-162 -238 -162 -391q0 -133 105 -203q88 -61 221 -62q74 0 172 33q125 39 139 94q2 10 2 25v33q0 16 -1 43.5t-7 68.5q-4 41 -7 69t-3 44q0 166 90 166h31q84 0 112 -62q10 -16 15.5 -42.5t11.5 -73.5q6 -61 33 -62 q25 0 78 80q23 37 39 64.5t20 46.5q37 104 37 225z" />
<glyph unicode="R" horiz-adv-x="1265" d="M1245 1315l-41 -158q-43 -63 -74.5 -107t-54 -69t-48.5 -51.5t-54 -55.5q-96 -90 -96 -102l3 -6t11 -21q6 -14 22.5 -37.5t41 -58.5t64.5 -95t93 -146q119 -283 82 -302l-14 -61q-29 -37 -115 -45q-104 0 -172 141q-6 12 -14.5 34t-22.5 50q-10 16 -24.5 43t-30.5 60 q-35 74 -56.5 119t-31.5 59q-63 115 -123 143q-18 6 -39 10.5t-45 4.5q-43 0 -62 -31q-4 -8 -6 -27.5t-6 -54.5q-4 -43 -5 -63.5t-3 -24.5q-6 -16 -10 -47t-11 -92q-6 -49 -12 -96.5t-16 -94.5q-10 -27 -19 -65q-8 -16 -36.5 -44t-77.5 -38q-45 -12 -106.5 16.5t-35.5 175.5 q12 76 18.5 121t8.5 59q12 123 12 461q0 322 -35 412q-4 10 -15 29.5t-32 54.5q-31 45 -30 92q0 84 55 115q10 8 28.5 14t45.5 16q117 43 250 63.5t286 20.5q66 0 119 -3t96 -13q111 -16 217 -104q123 -97 121 -201zM958 1292q-31 119 -196 117q-78 -14 -129 -23.5 t-80 -13.5q-139 -25 -158 -51q-16 -29 -16 -133q0 -254 78 -254q37 0 182 61q294 94 319 297z" />
<glyph unicode="S" horiz-adv-x="1292" d="M483 14q-135 0 -282 88q-164 98 -164 226q0 43 34.5 75.5t78.5 32.5q43 0 83 -30q18 -16 38 -28.5t36 -29.5q10 -6 31.5 -14t54.5 -19q35 -10 57.5 -15t32.5 -5q102 0 170 35q6 4 25.5 16t52.5 33q268 180 268 313q0 70 -92 105q-68 23 -151 22q-20 0 -64.5 -1t-93.5 -2 t-93 -2t-67 -1q-143 0 -217 18q-123 33 -176 121q-43 70 -43 135q0 68 72 162q29 35 61.5 64.5t73.5 58.5q23 16 54.5 41t76.5 57q16 10 46 23.5t69 36.5q131 66 192 86q94 31 209 35h37q12 0 21.5 -1t19.5 -1q66 -12 149 -93q86 -84 86 -143q0 -31 -17 -54.5t-44 -23.5 q-8 0 -51 -14q-47 -12 -68 49q-37 57 -71 57q-29 0 -61 -6t-73 -22q-33 -16 -64.5 -26.5t-66.5 -26.5q-86 -33 -184 -95q-131 -86 -131 -137q0 -45 84 -45q29 0 71 3t97 7q113 12 170 13q258 0 360 -68q133 -86 133 -330q0 -51 -3 -89t-13 -62q-66 -184 -309 -357 q-246 -172 -445 -172z" />
<glyph unicode="T" horiz-adv-x="1404" d="M1409 1487q2 -23 -9 -43.5t-28 -34.5q-12 -4 -24.5 -3t-22.5 -1q-20 4 -37.5 5t-40.5 -3q-92 -12 -183 -22.5t-183 -30.5l-4 -2l-21 -4q0 -2 -8 -2t-10 -3q-23 -18 -32 -42.5t-14.5 -52t-6.5 -56.5t-3 -53q0 -16 -1 -31.5t1 -30.5v-33v-16t-2 -14q-16 -211 -33.5 -419 t-1.5 -419q-4 -23 -2 -47.5t0 -48t-10 -45t-31 -35.5q-10 -23 -33.5 -31t-47.5 -12q-37 -4 -72 12.5t-60 42.5q0 285 18.5 563.5t29.5 561.5q6 25 8 50t-2 64q0 18 -10.5 35t-30.5 14q-80 -10 -157 -21t-155 -36q-29 -4 -57.5 -7t-60.5 1q-12 8 -27.5 16.5t-27 18.5 t-16.5 24.5t3 32.5q-2 47 22.5 90t67.5 66q51 25 105.5 38t107.5 29q129 23 256 31t256 29q70 0 133.5 22.5t130.5 30.5q41 4 80 8t80 8q39 8 74 -8t58.5 -45t32.5 -66.5t1 -74.5z" />
<glyph unicode="U" horiz-adv-x="1443" d="M1425 1444q0 -12 -12 -101q-4 -35 -7 -80.5t-9 -105.5q-16 -207 -33.5 -379t-36.5 -319q-12 -104 -19.5 -157.5t-7.5 -59.5q0 -12 3.5 -27.5t7.5 -38t5 -38t1 -25.5q0 -70 -45 -88q-25 -37 -137 14q-47 61 -107 115q-10 0 -110 -35q-61 -20 -92 -29l-31 -10 q-268 -80 -365 -80q-203 0 -309 82q-29 20 -47.5 49t-28.5 66q-18 70 -18 176q0 61 10 157.5t31 231.5q25 160 52 314.5t60 314.5q8 33 17.5 69.5t25.5 83.5q20 45 66 45q66 0 114 -51q51 -43 52 -106q0 -31 -6.5 -67t-18.5 -85q-16 -55 -24.5 -91t-12.5 -54 q-16 -92 -30.5 -180.5t-30.5 -178.5q-16 -106 -24.5 -197.5t-8.5 -166.5q0 -135 107 -136q143 0 487 127q14 8 36.5 16.5t55.5 24.5q49 27 66 93q35 135 49 360q10 160 18 249t10 116q6 53 10.5 82.5t4.5 37.5v11q0 10 -2 16v27q0 176 168 176q116 0 116 -168z" />
<glyph unicode="V" horiz-adv-x="1259" d="M1245 1489q0 158 -94 158q-117 0 -150 -205q-16 -70 -30.5 -121t-24.5 -84q-16 -66 -37.5 -134.5t-50.5 -154.5q-6 -20 -31.5 -88.5t-68.5 -191.5q-45 -127 -62 -156q-53 -117 -86 -117q-45 0 -100 193q-27 86 -45.5 152.5t-34.5 123.5q-27 92 -46 154.5t-36 107.5 q-61 246 -125 379q-8 12 -10 19.5t-4 9.5q-27 27 -72 27q-43 0 -80 -41t-37 -90q0 -16 39 -134q45 -147 79 -251.5t57 -176.5q53 -188 75 -278q63 -211 148 -389q92 -193 186 -193q10 0 60 17q23 8 36 15t21 11q35 35 51 58q72 94 137 229q12 31 36 92.5t61 155.5l90 235 q33 82 51 134.5t24 76.5q39 147 56.5 261t17.5 196z" />
<glyph unicode="W" horiz-adv-x="1777" d="M1321 49q-109 0 -221 162q-31 45 -73 120t-95 179q-82 162 -101 162q-33 0 -165 -256q-33 -59 -67 -117.5t-75 -118.5q-121 -178 -176 -178q-33 0 -71.5 19.5t-63.5 41.5q-43 53 -79 201t-62 395q-18 174 -26.5 343t-8.5 344q0 215 110 215q100 0 134 -131q0 -14 6 -48 l8 -651q2 -10 4 -27.5t6 -41.5l6 -111q10 -82 49 -82q35 0 91 109q16 37 33.5 70.5t33.5 68.5q16 29 35.5 65.5t42 81.5t55.5 111.5t76 157.5q-18 -31 0 6q10 23 19.5 44t21.5 48q35 59 88 59q72 0 109 -51q27 -41 53 -143q10 -39 18 -78t19 -78q12 -49 31.5 -120.5 t48.5 -170.5q18 -55 55 -114q49 -78 84 -78q61 0 129 221q18 66 34.5 136.5t32.5 150.5q4 23 9.5 56.5t15.5 76.5q12 57 12 131q0 20 -3 59t-6 83t-5 83t-2 59q0 117 100 117q168 0 168 -395q0 -78 -4 -142.5t-14 -119.5q-10 -66 -25.5 -136.5t-36.5 -148.5 q-12 -33 -30.5 -81t-40.5 -113q-39 -100 -64.5 -166t-42.5 -99q-90 -180 -180 -180z" />
<glyph unicode="X" horiz-adv-x="1384" d="M1372 1475q0 45 -26 96q-31 47 -80 47q-111 0 -502 -471q-33 -39 -55.5 -67.5t-38.5 -47.5q-31 -31 -43 -31q-68 0 -156 185q-29 61 -54.5 124.5t-54.5 127.5q-86 182 -98 194q-51 57 -90 58q-92 0 -92 -129q0 -33 20.5 -93.5t63.5 -148.5q31 -59 61.5 -119.5 t61.5 -122.5q4 -2 25.5 -39t64.5 -108q68 -121 67 -139q0 -35 -124 -216q-47 -68 -87 -122t-75 -95q-41 -53 -61.5 -78.5t-24.5 -31.5q-49 -74 -49 -123q0 -43 38 -82q37 -43 78 -43q57 0 144 111l110 163q209 270 254 269q80 -12 174 -121q53 -66 113.5 -116t116.5 -105 q147 -182 247 -138q27 61 27 132q0 35 -29 88q-16 23 -29.5 42t-29.5 31h-2q-6 20 -78 86q-29 20 -52.5 40t-49.5 42l-195 191q-33 37 -45 45q4 49 242 303l-21 -23q43 53 72 88t51 60q31 35 51 47q160 154 160 240z" />
<glyph unicode="Y" horiz-adv-x="1378" d="M1372 1518q0 123 -112 122q-66 0 -222 -153q-53 -51 -102 -105.5t-96 -111.5q-27 -35 -50.5 -67t-46.5 -66q-80 -104 -102 -105q-33 0 -123 90q-35 37 -60.5 66t-45.5 55q-25 41 -40.5 69.5t-25.5 49.5q-16 27 -25.5 46t-17.5 32l-55 133q-39 76 -111 76q-55 0 -84.5 -41 t-29.5 -99q0 -53 55 -176q39 -96 86 -172q49 -82 110.5 -151.5t139.5 -128.5q16 -16 33.5 -27.5t33.5 -24.5q43 -41 43 -69v-8l-131 -578v-6q0 -59 35 -105q47 -53 96 -53q29 0 51 17q25 18 66 133q16 51 26.5 89t14.5 64q20 94 37.5 156.5t28.5 95.5q4 10 12 39t24 80 q10 37 20.5 65.5t20.5 51.5q117 246 469 585q59 59 60 64q18 21 18 68z" />
<glyph unicode="Z" horiz-adv-x="1368" d="M1333 279q0 172 -135 165l-727 -86q-10 0 -22.5 11.5t-12.5 21.5q0 37 51 107q23 27 38.5 51t35.5 51q82 145 240 328q70 76 137.5 148.5t134.5 150.5q45 53 80 95t55 77q55 82 56 114q0 86 -97 117q-53 18 -170 15l-395 -15q-29 -4 -51.5 -6t-40.5 -6 q-86 -10 -130 -15.5t-52 -7.5q-121 -18 -172 -43q-84 -47 -84 -143q0 -131 102 -131q14 0 111 33q117 39 196.5 59.5t124.5 20.5l39 4q29 4 55.5 7t49.5 3q86 0 86 -33q0 -29 -164 -196q-168 -186 -322 -414q-78 -123 -135 -215t-96 -152q-113 -168 -113 -229q0 -57 57 -103 q57 -47 121 -47q2 0 168 43q68 16 120 29.5t89 24.5q70 14 146.5 23t164.5 16q78 4 155 10t157 10q25 2 51.5 3t48 10.5t35.5 31t14 62.5z" />
<glyph unicode="[" horiz-adv-x="688" d="M662 150q0 -51 -48 -95q-49 -49 -98 -49q-6 0 -23.5 2t-50.5 6q-37 4 -70.5 7.5t-70.5 7.5q-86 14 -139 34q-61 29 -58 97v8q2 39 7.5 88t15.5 109q10 82 18.5 130t8.5 68v23v22t2 31q2 66 3 104.5t1 53.5q0 16 -6 102q-4 37 -10.5 92.5t-16.5 128.5q-6 16 -16.5 42 t-22.5 61q-10 33 -20.5 60.5t-22.5 59.5q-16 39 -20.5 67t-4.5 50q0 152 187 152h35h22q14 0 31 2h88h170q61 0 76 -10q35 -29 35 -72q0 -57 -78 -94q-18 -10 -39 -15.5t-45.5 -9.5t-47 -6t-44.5 -6q-16 0 -38 -3t-50 -7q-27 -12 -27 -35q0 -12 18 -70q10 -33 16.5 -51 t8.5 -29q4 -41 11 -99t18 -140q2 -16 3 -49t1 -80q0 -195 -13 -373q0 -8 -2 -27.5t-5 -41t-5 -42t-2 -32.5q0 -10 11.5 -28t21.5 -24q23 -10 106 -16q43 -4 71 -8t38 -8q37 -10 59 -45q11 -14 11 -43z" />
<glyph unicode="\" horiz-adv-x="1097" d="M1108 150q0 -39 -53 -99q-55 -59 -92 -59t-93 106q-4 10 -22.5 40t-50.5 81q-43 68 -86 146.5t-93 173.5q-35 68 -172 270q-47 66 -118.5 165t-165.5 234q-23 33 -52.5 77t-68.5 101q-23 33 -23 84q0 137 152 138q16 0 53 -41q43 -49 99 -142q35 -57 57 -94t35 -53 q29 -39 72.5 -98.5t101.5 -137.5q16 -20 36.5 -47.5t49.5 -70.5q434 -717 434 -774z" />
<glyph unicode="]" horiz-adv-x="688" d="M709 1454q0 -20 -11.5 -61t-35.5 -103q-55 -141 -62 -176q-16 -78 -25.5 -156.5t-9.5 -166.5q0 -47 6 -166v-31v-19q0 -8 2 -18q10 -66 20.5 -164t27.5 -231q2 -2 2 -31q0 -23 -39 -59q-10 -10 -36 -17.5t-71 -15.5l-121 -16q-76 -10 -111.5 -16.5t-31.5 -6.5 q-63 0 -107 51q-41 53 -40 113q0 18 23.5 39.5t45.5 27.5q33 4 81 11.5t114 17.5q53 10 53 55q0 2 -1 13.5t-3 33.5q-12 68 -16.5 199t-4.5 332q0 41 13 149l20 158q2 10 7 30.5t16 49.5q18 57 18 70q0 23 -29 34q-31 14 -106 15q-88 6 -115 14q-59 16 -84.5 59.5 t-25.5 114.5q49 37 69 37q4 0 17.5 -1t36.5 -1l135 -16q80 -6 134 -10.5t85 -4.5q88 0 124 -26.5t36 -110.5z" />
<glyph unicode="^" horiz-adv-x="1249" d="M1145 1659q29 -49 26.5 -106.5t-49.5 -82.5q-53 -27 -91 -22.5t-83 27.5q-53 27 -94 47t-80 35.5t-82 24.5t-104 13q-41 -29 -67.5 -48t-51.5 -36.5t-52.5 -37t-70.5 -48.5q-57 -41 -115.5 -30.5t-91.5 63.5q-18 27 -18 55q0 43 24.5 80t59.5 59.5t53 32t33.5 15.5t36 16 t61.5 35q18 12 29.5 18.5t18.5 10.5t11.5 9t8.5 15q16 59 53 78t90 12q55 -4 120.5 -30.5t115.5 -51.5q49 -23 74.5 -29.5t43 -11t36 -12.5t54.5 -33q29 -18 56 -28t45 -39z" />
<glyph unicode="_" horiz-adv-x="974" d="M948 -88q0 -39 -18 -88q-25 -51 -58 -57q-6 -4 -55 -7q-72 -8 -165 -14t-210 -14q-27 0 -47 -1t-37 -1h-36h-105q-90 0 -141 50t-51 140q0 16 24 47q25 25 43 25h172h86l36 2t108 8l288 25h15h10q8 0 14 -2q127 -19 127 -113z" />
<glyph unicode="`" horiz-adv-x="430" d="M414 1047q0 86 -119 296l-78 150q-66 104 -127 104q-43 0 -74.5 -31.5t-31.5 -74.5q0 -14 4 -30.5t14 -35.5q31 -53 55.5 -92t44.5 -65l-2 2q6 -14 14.5 -27.5t14.5 -25.5q10 -23 15.5 -34.5t15.5 -33.5q29 -55 51 -92t39 -58q31 -35 82 -34q82 0 82 82z" />
<glyph unicode="a" d="M1188 92q0 -88 -92 -88q-117 0 -142 66q-6 14 -32 133q-10 41 -22.5 100t-33.5 137q-4 18 -10 43t-18 60q-4 4 -9.5 11t-9.5 17q-72 -4 -160 -32q-39 -12 -76.5 -24.5t-76.5 -27.5q-35 -10 -57.5 -14t-34.5 -8q-49 -20 -68 -59q-10 -16 -33 -87l-65 -182 q-4 -16 -12.5 -37.5t-24.5 -50.5q-20 -33 -74 -33q-49 0 -82 27q-39 27 -39 78q0 53 47 168q16 45 32 88t32 88q25 82 60.5 175t80.5 200q33 74 69 162t75 192q55 147 149 309q10 16 22.5 40t30.5 54q8 14 39 25q31 12 49 12q82 0 121 -84q4 -10 14.5 -49t28.5 -110 l101 -383q10 -45 19 -79t18 -57q16 -27 73 -51q53 -14 72 -59q2 -4 2 -19q0 -51 -16 -77l-27.5 -27.5t-24.5 -28.5q-8 -8 -8 -20q0 2 3 -16.5t13.5 -57.5t17.5 -77t17 -74q10 -33 20.5 -66t20.5 -68q21 -76 21 -139zM754 815q-4 16 -12.5 63.5t-24.5 120.5q-35 160 -41 166 q-6 8 -25 13q-35 -41 -86 -181q-72 -199 -71 -213q0 -10 8 -32h69l99 22q68 18 84 41z" />
<glyph unicode="b" horiz-adv-x="1316" d="M1323 543q0 -197 -217 -338q-82 -51 -182.5 -91t-221.5 -69q-84 -16 -150.5 -26.5t-127.5 -10.5q-111 0 -229 37q-156 43 -156 129q0 45 49 76q51 31 51 106q0 -8 -1 17.5t-3 85.5q-2 10 -2 98v240v28q0 23 -2 48.5t-2 41.5v33v203q0 53 2 104.5t6 100.5q0 29 -16 45 q-16 25 -8 78q10 29 21 47t24 30q47 53 149.5 68.5t263.5 15.5q23 0 66 -4t114.5 -14t113.5 -18.5t55 -12.5q123 -31 208 -127q90 -94 23 -356q-10 -16 -22.5 -32.5t-34.5 -39.5q-33 -43 -33 -51q0 -18 76 -90q37 -31 67.5 -72t57.5 -90q61 -108 61 -190zM942 1290 q0 141 -321 142l-36 -4q-36 -3 -102 -9q-10 -2 -27.5 -5t-35.5 -13q-43 -39 -43 -283q0 -10 1 -24.5t3 -30.5q6 -41 6 -55q20 -20 47 -21q76 0 182 33q111 31 166 76q160 122 160 194zM983 430q166 135 25 287q-141 150 -166 149q-10 0 -107 -41q-51 -18 -82.5 -29.5 t-44.5 -13.5q-10 -2 -39.5 -9t-81.5 -17l-49 -17q-29 -14 -49 -14q-4 0 -2 2q-12 -20 -12 -74q0 -12 1 -35.5t1 -33.5q0 -84 6 -158t16 -141l21 -23h16q66 -2 178 19q57 10 99.5 19t74.5 22q55 18 102.5 45.5t92.5 62.5z" />
<glyph unicode="c" horiz-adv-x="1298" d="M1288 494q0 -152 -430 -375q-23 -16 -53.5 -30.5t-71.5 -31.5q-84 -23 -138 -34t-83 -11q-209 0 -315 86q-102 80 -140 164q-33 68 -32 207q0 35 5 75t15 87q12 47 24.5 85t28.5 66q39 76 117 222q35 59 102.5 151t171.5 217q16 18 41 44t64 61q68 68 113 96 q100 68 219 67q133 0 184 -102q35 -74 35 -221q0 -168 -90 -168q-47 0 -70 57q-6 29 -13 55.5t-11 55.5q-18 57 -68 57q-125 0 -283 -188q-111 -129 -207 -307q-53 -92 -78.5 -139.5t-27.5 -49.5q-51 -109 -51 -205q0 -109 51 -174q57 -68 166 -67q100 0 215 59q27 10 76 39 t120 74q53 35 99.5 72.5t93.5 74.5q55 41 109 41q51 0 81.5 -29.5t30.5 -80.5z" />
<glyph unicode="d" horiz-adv-x="1236" d="M1235 915q0 -412 -545 -708q-39 -23 -97 -49.5t-142 -61.5q-29 -16 -55.5 -28.5t-53.5 -28.5q-31 -18 -59.5 -26.5t-53.5 -8.5q-100 0 -145 41t-45 141q0 6 6 62l16 135q6 66 17.5 162t23.5 229q4 23 11.5 55.5t13.5 79.5q8 37 11 86t7 113q2 16 4.5 51t6.5 96q4 47 6 83 t2 65q0 16 -3 52t-3 65v34q0 94 145 95q66 0 116 -7.5t87 -19.5q23 -8 74 -14q47 -2 71 -13q49 -16 98.5 -29.5t102.5 -29.5q51 -20 98 -46t88 -60q33 -29 69 -71t73 -102q55 -96 55 -342zM987 971q0 238 -168 336q-131 74 -385 71h-16q-4 -10 -7 -24.5t-8 -36.5 q-2 -16 -3 -33.5t-5 -34.5q0 -4 -1 -13t-5 -19q-2 -8 -5 -31t-9 -62q-10 -59 -16.5 -118.5t-12.5 -118.5q-2 -35 -5 -81t-9 -110q-2 -8 -4 -18t-6 -25q-2 -23 -5.5 -57.5t-7.5 -83.5q-4 -57 -7 -91t-3 -44q0 -53 39 -53q23 0 84 24q174 70 313 184q164 137 219 285 q4 10 9.5 33.5t13.5 60.5q6 35 8 49.5t2 10.5z" />
<glyph unicode="e" horiz-adv-x="1363" d="M1348 231q-4 -45 -37 -74.5t-76 -39.5q-41 -2 -81 -7.5t-81 -5.5q-166 4 -323.5 -21.5t-317.5 -62.5q-45 -10 -93 -11t-97 3q-61 4 -105.5 34t-72 75t-36 98t2.5 107q6 59 13 118.5t17 118.5q10 61 17.5 121.5t13.5 120.5q6 51 6 106v56t-2 55v145v109q0 29 -1 55.5 t-3 54.5q-4 33 10.5 57.5t39 41t56 22.5t60.5 4q41 16 80 23.5t82 21.5q80 12 160 31q72 18 139 28.5t137 14.5q29 6 55.5 5t53.5 7q63 10 106 -10q33 -16 60.5 -46t43 -65.5t16.5 -71.5t-17 -63q-57 -23 -108.5 -27.5t-102.5 -4.5t-103.5 -1t-109.5 -14q-37 -2 -73 -5 t-73 -11q-37 -4 -73.5 -11t-75.5 -24q-10 -6 -21.5 -11t-23.5 -5h-17l-10 -15l-6 -16l-2 -16l-2 -19l-4 -18q-2 -23 -3 -45.5t-1 -44.5q6 -10 0.5 -21.5t-3.5 -21.5q-2 -31 19 -45l14 -6q68 8 135.5 18t135 16t135 5t135.5 -15q16 0 31.5 -3t31.5 -7q43 -16 68 -53t14 -84 q-2 -37 -34.5 -53.5t-65.5 -14.5q-39 4 -79 5t-77 1q-78 6 -149.5 -9t-145.5 -28q-35 -4 -67.5 -11t-67.5 -11q-41 -6 -57 -40t-16 -67q-4 -61 -11.5 -122.5t-5.5 -120.5v-15q0 -10 -2 -16q-12 -27 4.5 -52.5t59.5 -35.5q33 -4 61.5 -3t56.5 3q98 10 190.5 31.5t188.5 37.5 q53 4 104.5 5.5t104.5 7.5q47 -2 94 3t95 11q45 -18 67.5 -62.5t18.5 -93.5z" />
<glyph unicode="f" horiz-adv-x="1132" d="M1128 1540q0 -51 -19 -73.5t-69 -32.5q-59 -10 -146 -27.5t-204 -44.5q-33 -6 -67.5 -13.5t-69.5 -13.5q-90 -18 -129 -43q-29 -18 -37 -46.5t-12 -84t-2 -137.5v-92l88 -2q-2 6 41 16q45 6 102.5 15.5t159.5 21.5q61 10 96 13t43 3q143 0 144 -106q0 -68 -54 -92 l-114 -25q-37 -10 -100.5 -20.5t-157.5 -22.5q-170 -25 -250 -49q-55 -18 -56 -72q0 -8 -12 -254q-4 -78 -9 -139t-11 -115q-16 -92 -54 -104q0 -2 -18 -2q-49 0 -100 18q-53 18 -31 84q-2 10 -3 22.5t-1 31.5v16q0 10 2 20v35v207q0 31 6 103q4 39 -2 61q-4 14 -7 37.5 t-7 58.5q-23 39 -23 64q0 35 25 94q18 18 29.5 36.5t17.5 37.5q2 43 3 106.5t1 151.5q0 47 -55 71q-31 2 -46 11l-20 59q0 59 20 86q76 84 467 168q174 39 304.5 55.5t220.5 16.5q116 0 116 -109z" />
<glyph unicode="g" horiz-adv-x="1556" d="M1493 850q0 113 -31 156q-37 55 -145 55q-23 0 -66 -7t-102 -24q-86 -20 -160 -43.5t-137 -50.5q-207 -86 -207 -184q0 -49 33 -88q37 -43 78 -43q20 0 59 11t100 38q43 16 84 30.5t84 30.5q33 12 53.5 19.5t30.5 7.5q16 0 28.5 -11.5t12.5 -23.5q0 -33 -116 -162 q-264 -279 -627 -278q-88 0 -150 88q-53 78 -53 172q0 92 76 252q66 141 287 350q238 225 364 225q53 0 105 -45q45 -45 57 -45q57 0 57 119q0 106 -39 157q-47 74 -133 74q-70 0 -132 -20.5t-118.5 -51t-108.5 -67.5t-102 -70q-295 -217 -456 -563q-92 -188 -92 -315 q0 -86 17 -160t56 -137q86 -141 232 -199q35 -16 71.5 -22.5t73.5 -6.5q10 0 31.5 1t58.5 6q61 6 94 9t44 5q23 6 41 13t30 11q33 10 56.5 15.5t39.5 9.5q41 16 90.5 44t110.5 65q113 74 196 154.5t140 168.5q39 63 64 158q20 90 20 172z" />
<glyph unicode="h" horiz-adv-x="1107" d="M1102 1427l-98 -1331q-4 -6 -6.5 -18t-10.5 -31q-31 -66 -100 -65q-23 0 -42.5 5t-39.5 15q-37 20 -47 61q-4 31 -4 84t6 134v14q0 10 2 20.5t2 22.5v29l4 88q2 12 2 28q0 18 2 41v41q2 10 2 17q0 6 2 12l2 47q6 96 -33 127l-239 -23q-14 -2 -37 -4t-55 -6q-20 0 -60 -6 q-49 -6 -55 -106q-4 -33 -5 -80t1 -113q4 -66 3 -111t-3 -79q-16 -227 -127 -228q-66 0 -123 49q-37 55 -18 119q-10 51 -11.5 116.5t9.5 149.5q16 170 18 334q-2 23 0 60t2 88q6 145 11 235t7 127q20 307 156 307q66 0 103 -69q16 -29 22 -60.5t4 -64.5l-24 -363 q-4 -31 16 -41q29 -16 98.5 -9t198.5 20q119 8 135 30q10 14 16.5 37t8.5 56q2 16 2 41v55v31q0 14 2 26v43l16 207q2 10 39 47q33 37 55 47q12 4 24.5 6t25.5 2q155 0 141 -211z" />
<glyph unicode="i" horiz-adv-x="1300" d="M1278 1477q0 -104 -166 -105q-92 -16 -148.5 -26.5t-80.5 -10.5q-47 -57 -47 -280v-15q0 -6 -2 -16l-68 -645v-14q0 -39 6 -46.5t45 -7.5q14 8 35.5 10.5t50.5 2.5q27 0 47.5 1t32.5 3t62.5 9t142.5 19q131 -78 47 -225q-6 0 -74.5 -15.5t-175.5 -27.5 q-29 -2 -190.5 -27.5t-440.5 -70.5q-82 -14 -123 -20.5t-73 -6.5q-16 0 -40 4t-57 10q-66 16 -55 113q0 59 57 86q16 8 43 13.5t68 13.5q16 4 42 9t60 11q43 6 68 10.5t33 6.5q57 12 88 34q35 27 47 103q4 31 6 59.5t6 57.5l45 350q10 98 16.5 186t6.5 164q0 59 6 113 q-53 -4 -82 -6.5t-35 -2.5q-8 0 -15 -1t-17 -3q-25 -4 -62 -10t-84 -12q-29 -4 -45 -6t-20 -2q-174 0 -175 125q0 57 55.5 86.5t166.5 46.5q43 8 88 16t86 14q35 10 84 12.5t98 8.5q27 2 51.5 4t51 6t110.5 10t227 17l133 -11q64 -75 64 -122z" />
<glyph unicode="j" horiz-adv-x="1605" d="M1581 1513q0 -88 -49 -127q-4 -10 -12 -10q-2 0 -17.5 3t-44.5 7q-10 2 -22.5 3.5t-22.5 1.5h-45q-121 0 -121 -66v-41q0 -37 4 -82t13 -98q10 -45 15 -89t15 -89q4 -53 8.5 -83t4.5 -42q0 -264 -37 -420q-10 -31 -15.5 -52.5t-7.5 -37.5q-10 -23 -18 -44.5t-19 -37.5 q-55 -100 -170 -154q-113 -47 -225 -47q-25 0 -66.5 6t-101.5 23q-160 41 -381 182q-262 162 -262 299q0 23 5 44.5t18 41.5q27 49 67 49q70 0 144 -67q33 -29 62.5 -57.5t57.5 -57.5q43 -33 90.5 -61.5t100.5 -51.5q117 -49 211 -49q129 0 192.5 57.5t79.5 194.5 q6 39 8 97.5t2 136.5q0 37 -7 100t-23 162q-37 209 -60 243q-31 49 -108 50q-70 0 -138.5 -6.5t-138.5 -16.5q-88 -14 -138 -21.5t-60 -7.5q-49 0 -84 23q-45 25 -45 72q0 98 86 145q47 25 174 49q35 12 100 25q27 2 61.5 3t81.5 5q16 2 48 4t73 6l375 6h21h12q8 0 18 2 q8 2 15 2h14h20q242 0 242 -127z" />
<glyph unicode="k" horiz-adv-x="1445" d="M1298 82q18 39 14.5 78t-20 75.5t-40 71.5t-42.5 70q-98 92 -175 187t-154 208q-27 43 -47.5 72.5t-20.5 70.5q4 23 16.5 36.5t26.5 29.5q39 29 72 54.5t71 54.5q88 68 174.5 136t163.5 146q33 29 61.5 61.5t28.5 75.5q8 49 -26 97q-16 20 -35.5 40.5t-48.5 18.5 q-57 -8 -105 -47q-53 -41 -102 -83t-100 -85q-100 -86 -200.5 -162t-207.5 -153q-23 -16 -47.5 -33t-46.5 -35q-27 -16 -49.5 -26.5t-50.5 -16.5q-27 -4 -44.5 16.5t-13.5 46.5q10 147 43 285q2 6 2 19q0 8 4 20l9 47q2 35 -13.5 69t-43 61.5t-62.5 43t-70 13.5 q-57 0 -84 -52q-23 -41 -31 -91t-11 -101t-5 -102.5t-14 -96.5q0 -168 -8.5 -336t-24.5 -342q-10 -47 -7 -101t-14 -120q2 -29 1 -57.5t-1 -57.5t4.5 -57.5t14.5 -54.5q4 -18 18.5 -28.5t30.5 -20.5q16 -14 34.5 -18.5t35.5 -8.5q23 4 39 8t32 19q16 10 30.5 20t29.5 21 q16 27 20 50t15 62q2 12 3 25.5t1 27.5v27q0 18 2 27q0 53 2 104t4 103q2 6 2 22v23v43q10 53 54 88t95 32q39 -18 72 -44.5t62.5 -57.5t55 -64.5t54.5 -64.5q55 -76 113.5 -145.5t113.5 -143.5q25 -29 54.5 -68.5t60.5 -71.5t61.5 -47t59.5 3q39 -6 71.5 18.5t30.5 65.5h2z " />
<glyph unicode="l" horiz-adv-x="1259" d="M1253 412q0 51 -28 98q-33 51 -86 51q-29 0 -183 -69q-72 -31 -125 -52.5t-92 -38.5q-47 -16 -92 -32.5t-92 -32.5q-104 -33 -190 -33q-31 0 -46 64l-6 28l179 1069l2 4q2 70 -43 123q-49 53 -115 54q-61 0 -88 -52q-25 -31 -39 -102q-6 -29 -12.5 -56.5t-10.5 -56.5 q-27 -117 -45 -205t-35 -147q-43 -240 -63 -407.5t-20 -284.5q0 -158 65 -236q74 -84 231 -84q31 0 83.5 9.5t129.5 25.5q35 10 72 22.5t80 28.5q37 16 74 30.5t76 31.5q86 35 144 61.5t99 42.5q51 27 115 49q61 38 61 97z" />
<glyph unicode="m" horiz-adv-x="1376" d="M1346 129q0 -45 -26 -73.5t-71 -28.5q-147 0 -147 270v18q2 6 2 15v10v313q0 18 -3 64.5t-3 83.5v41q0 88 -33 88q-14 0 -29 -21q-4 -8 -21.5 -37.5t-47.5 -89.5q-33 -55 -70 -120.5t-78 -137.5q-16 -33 -67 -112q-29 -47 -70 -47q-68 0 -139 141q-16 29 -44 94.5 t-69 169.5q-59 141 -80 141q-39 0 -51 -147l-12 -184q-8 -92 -15.5 -167t-17.5 -139q-2 -55 -7 -113.5t-16 -123.5q-4 -6 -47 -27q-23 -10 -35 -12t-16 -2q-61 0 -88 63q-23 43 -22 115q0 16 3 40t7 52q12 63 12 90q16 197 34.5 370t45.5 333q4 29 8 68.5t8 93.5 q8 45 20.5 108.5t31.5 147.5q6 33 24 98q25 57 68 57q109 0 176 -94q16 -23 39.5 -83t58.5 -161q16 -43 37.5 -107.5t50.5 -150.5q4 -25 11.5 -47t13.5 -45q20 -70 41 -70q53 0 219 461q10 31 26.5 75t40.5 103q33 57 80 58q33 0 88 -39q23 -18 42.5 -35.5t29.5 -34.5 q6 -10 15.5 -33.5t18.5 -52t15 -55.5t8 -41q10 -84 14.5 -181.5t6.5 -219.5q0 -100 2 -198.5t4 -201.5q4 -72 7 -142.5t9 -141.5q7 -60 7 -66z" />
<glyph unicode="n" horiz-adv-x="1312" d="M1270 524q0 -41 -3 -102.5t-7 -138.5q-12 -209 -29 -232q-25 -47 -76 -47q-84 0 -250 139q-72 61 -125 114.5t-88 100.5q-16 23 -35.5 55.5t-48.5 75.5q-18 20 -63 76q-20 35 -51 82t-76 113l8 -8q2 0 0 2q-4 6 -9 14t-14 20q-53 68 -88 68q-10 0 -10 -78v-47v-14 q0 -10 -2 -19v-28v-80v-113l2 -27q2 -28 6 -83l17 -215q8 -49 -17 -91q-25 -49 -67 -49q-29 0 -115 6q-66 39 -80 86q-12 49 0 158q-2 43 -3 86t-1 86q-6 53 -11 122t-9 153q-6 113 -7 139q0 4 7 88l8 184q6 100 6 109v174q0 14 6 43q2 14 3 24.5t1 14.5q14 135 117 135 q92 0 139 -66q16 -23 38 -69.5t54 -130.5q96 -231 170 -340q47 -66 93.5 -133.5t93.5 -135.5q156 -223 188 -223q25 0 27 19q10 31 16 200q10 176 6 211l-47 566q-4 55 22.5 89.5t82.5 34.5q53 0 102 -49q51 -37 68 -92q12 -55 21 -140t13 -208q0 -29 1 -71t3 -101 q2 -12 3.5 -33.5t1.5 -50.5l5 -235z" />
<glyph unicode="o" horiz-adv-x="1644" d="M1589 950q0 -98 -18.5 -194.5t-61.5 -194.5q-80 -201 -219 -321q-35 -29 -77 -55.5t-95 -49.5q-23 -12 -55.5 -27.5t-77.5 -37.5q-119 -47 -313 -47q-53 0 -193 34q-23 4 -52.5 17.5t-74.5 29.5q-90 45 -114 62q-23 18 -41.5 35.5t-34.5 40.5q-43 20 -99 176 q-23 78 -27.5 136t9.5 101q0 16 4 52t14 90q10 57 28 110.5t46 104.5q94 172 179 282.5t171 169.5q131 90 235.5 135.5t188.5 45.5q16 0 48 6t49 6q131 0 268 -88q66 -41 114 -92.5t85 -114.5q20 -35 36.5 -75t26.5 -87q10 -33 16.5 -62.5t16.5 -60.5q18 -72 18 -127z M1333 903q0 176 -96 314q-102 152 -270 151q-133 0 -291 -119q-76 -59 -141.5 -125.5t-120.5 -150.5q-55 -86 -84 -160t-29 -141q0 -176 88 -266q74 -76 250 -115q31 -4 52.5 -7t35.5 -3q139 0 221 41q160 63 273 235q112 168 112 346z" />
<glyph unicode="p" horiz-adv-x="1155" d="M1143 1251q0 -106 -74 -231q-63 -111 -156 -195q-10 -10 -25.5 -23.5t-41.5 -31.5q-12 -10 -32.5 -21.5t-49.5 -27.5q-57 -37 -109.5 -61.5t-97.5 -41.5q-33 -10 -61.5 -19t-61.5 -19q-90 -33 -102 -56q-16 -27 -17 -108q0 -33 -8 -80q-4 -33 -6 -52.5t-2 -29.5l-4 -74 t-6 -78q-14 -94 -88 -94q-133 0 -129 160v6l20 799q0 16 2 39.5t6 58.5q2 33 3 57.5t1 40.5q0 53 -3 91t-13 60.5t-41 65.5q-29 31 -29 68q0 94 193 145q137 37 270 37q88 0 169 -7t153 -23q211 -43 274 -138q43 -49 56 -100q10 -47 10 -117zM897 1237q0 135 -270 135 q-240 0 -277 -53q-29 -51 -28 -447q0 -74 47 -73q16 0 69 22q160 66 289 162q170 133 170 254z" />
<glyph unicode="q" horiz-adv-x="1654" d="M1298 285q0 -25 66 -121q63 -96 63 -166q0 -45 -28.5 -78t-73.5 -33q-66 0 -158 107q-100 106 -114 106q-244 -100 -439 -100l-34 4q-33 4 -105 14q-16 4 -45 13.5t-70 25.5q-174 70 -260 187q-74 113 -73 321q0 260 184 547q168 256 393 410q76 53 205 90q119 39 223 39 q68 0 134.5 -17.5t131.5 -56.5q131 -68 213 -191q10 -16 26.5 -42.5t37.5 -65.5q4 -10 13 -47t26 -98q12 -43 12 -95v-47q0 -61 -45 -209q-23 -84 -60.5 -160.5t-95.5 -154.5q-23 -23 -37 -46.5t-34 -45.5q-56 -72 -56 -90zM1374 1040q0 150 -73.5 240t-213.5 90 q-190 0 -362 -110q-133 -90 -285 -318q-164 -242 -164 -393q0 -135 107 -205q88 -61 223 -61q70 0 174 32q125 37 138 95q2 10 3 24.5t1 32.5q0 20 -2 47t-9 66q-4 41 -6 68.5t-2 47.5q0 168 90 168h31q80 0 113 -63q10 -16 15 -44t15 -75q2 -61 31 -61q27 0 80 81 q23 37 38 65t19 46q39 104 39 227z" />
<glyph unicode="r" horiz-adv-x="1265" d="M1245 1315l-41 -158q-43 -63 -74.5 -107t-54 -69t-48.5 -51.5t-54 -55.5q-96 -90 -96 -102l3 -6t11 -21q6 -14 22.5 -37.5t41 -58.5t64.5 -95t93 -146q119 -283 82 -302l-14 -61q-29 -37 -115 -45q-104 0 -172 141q-6 12 -14.5 34t-22.5 50q-10 16 -24.5 43t-30.5 60 q-35 74 -56.5 119t-31.5 59q-63 115 -123 143q-18 6 -39 10.5t-45 4.5q-43 0 -62 -31q-4 -8 -6 -27.5t-6 -54.5q-4 -43 -5 -63.5t-3 -24.5q-6 -16 -10 -47t-11 -92q-6 -49 -12 -96.5t-16 -94.5q-10 -27 -19 -65q-8 -16 -36.5 -44t-77.5 -38q-45 -12 -106.5 16.5t-35.5 175.5 q12 76 18.5 121t8.5 59q12 123 12 461q0 322 -35 412q-4 10 -15 29.5t-32 54.5q-31 45 -30 92q0 84 55 115q10 8 28.5 14t45.5 16q117 43 250 63.5t286 20.5q66 0 119 -3t96 -13q111 -16 217 -104q123 -97 121 -201zM958 1292q-31 119 -196 117q-78 -14 -129 -23.5 t-80 -13.5q-139 -25 -158 -51q-16 -29 -16 -133q0 -254 78 -254q37 0 182 61q294 94 319 297z" />
<glyph unicode="s" horiz-adv-x="1292" d="M483 14q-135 0 -282 88q-164 98 -164 226q0 43 34.5 75.5t78.5 32.5q43 0 83 -30q18 -16 38 -28.5t36 -29.5q10 -6 31.5 -14t54.5 -19q35 -10 57.5 -15t32.5 -5q102 0 170 35q6 4 25.5 16t52.5 33q268 180 268 313q0 70 -92 105q-68 23 -151 22q-20 0 -64.5 -1t-93.5 -2 t-93 -2t-67 -1q-143 0 -217 18q-123 33 -176 121q-43 70 -43 135q0 68 72 162q29 35 61.5 64.5t73.5 58.5q23 16 54.5 41t76.5 57q16 10 46 23.5t69 36.5q131 66 192 86q94 31 209 35h37q12 0 21.5 -1t19.5 -1q66 -12 149 -93q86 -84 86 -143q0 -31 -17 -54.5t-44 -23.5 q-8 0 -51 -14q-47 -12 -68 49q-37 57 -71 57q-29 0 -61 -6t-73 -22q-33 -16 -64.5 -26.5t-66.5 -26.5q-86 -33 -184 -95q-131 -86 -131 -137q0 -45 84 -45q29 0 71 3t97 7q113 12 170 13q258 0 360 -68q133 -86 133 -330q0 -51 -3 -89t-13 -62q-66 -184 -309 -357 q-246 -172 -445 -172z" />
<glyph unicode="t" horiz-adv-x="1472" d="M1382 1419q0 -23 -9 -41t-27 -28q-12 -4 -17.5 -2t-28.5 2q-23 4 -40 7t-35 -1q-41 -2 -82 -2h-80q-78 0 -191 -13l-41 -6q-23 -14 -33 -38.5t-14 -53.5t-4 -57q0 -29 -2 -49q-2 -16 -1 -30.5t1 -31.5q0 -16 1 -31.5t-3 -31.5q-6 -100 -15 -200.5t-16.5 -200t-8.5 -200 t9 -200.5q-2 -23 -1 -47.5t-1 -47t-11 -43t-30 -32.5q-12 -23 -34.5 -29t-46.5 -6q-35 2 -71 23.5t-58 52.5q0 145 5 277.5t11 261.5t13 258t14 270q6 20 8 50t-1 57.5t-13.5 46t-30.5 18.5q-63 0 -149.5 1t-155.5 -13q-49 -4 -117 6q-37 29 -53.5 41t-16.5 30q0 4 1 13.5 t3 19.5q-2 47 21.5 88t68.5 64q49 16 101.5 21t105.5 14q133 0 252 -5.5t250 5.5q41 -4 72.5 -2t60.5 6t57.5 8t63.5 4q39 2 77 -2t74 -2q37 0 71 -17.5t58.5 -45t35.5 -63.5t3 -73z" />
<glyph unicode="u" horiz-adv-x="1439" d="M1389 1409q0 -12 -13 -98q-4 -33 -7 -78t-7 -100q-16 -205 -33.5 -374t-34.5 -310q-12 -102 -19 -154.5t-7 -58.5q0 -25 10 -62q4 -29 5 -42t1 -23q0 -70 -43 -89q-25 -31 -133 17q-49 61 -104 110q-6 0 -33 -7t-76 -21q-59 -23 -89 -33l-30 -10q-131 -37 -219 -56.5 t-137 -19.5q-195 0 -301 78q-51 37 -74 115q-18 74 -18 167q0 63 10 157.5t31 227.5q25 154 50 305.5t58 309.5q8 29 16.5 66.5t24.5 82.5q20 41 68 41q61 0 110 -47q51 -39 51 -106q0 -29 -7 -64t-19 -80q-16 -55 -24.5 -91t-12.5 -54q-16 -90 -30.5 -176t-30.5 -174 q-14 -104 -21.5 -193.5t-7.5 -163.5q0 -131 102 -131q72 0 191 32t284 93q16 6 37 14.5t54 22.5q49 31 61 90q16 68 28.5 155t22.5 197q10 158 17.5 246t9.5 111q8 51 11 80.5t3 40.5v10v12v27q0 174 162 174q113 0 113 -166z" />
<glyph unicode="v" horiz-adv-x="1259" d="M1245 1489q0 158 -94 158q-117 0 -150 -205q-16 -70 -30.5 -121t-24.5 -84q-16 -66 -37.5 -134.5t-50.5 -154.5q-6 -20 -31.5 -88.5t-68.5 -191.5q-45 -127 -62 -156q-53 -117 -86 -117q-45 0 -100 193q-27 86 -45.5 152.5t-34.5 123.5q-27 92 -46 154.5t-36 107.5 q-61 246 -125 379q-8 12 -10 19.5t-4 9.5q-27 27 -72 27q-43 0 -80 -41t-37 -90q0 -16 39 -134q45 -147 79 -251.5t57 -176.5q53 -188 75 -278q63 -211 148 -389q92 -193 186 -193q10 0 60 17q23 8 36 15t21 11q35 35 51 58q72 94 137 229q12 31 36 92.5t61 155.5l90 235 q33 82 51 134.5t24 76.5q39 147 56.5 261t17.5 196z" />
<glyph unicode="w" horiz-adv-x="1777" d="M1321 49q-109 0 -221 162q-31 45 -73 120t-95 179q-82 162 -101 162q-33 0 -165 -256q-33 -59 -67 -117.5t-75 -118.5q-121 -178 -176 -178q-33 0 -71.5 19.5t-63.5 41.5q-43 53 -79 201t-62 395q-18 174 -26.5 343t-8.5 344q0 215 110 215q100 0 134 -131q0 -14 6 -48 l8 -651q2 -10 4 -27.5t6 -41.5l6 -111q10 -82 49 -82q35 0 91 109q16 37 33.5 70.5t33.5 68.5q16 29 35.5 65.5t42 81.5t55.5 111.5t76 157.5q-18 -31 0 6q10 23 19.5 44t21.5 48q35 59 88 59q72 0 109 -51q27 -41 53 -143q10 -39 18 -78t19 -78q12 -49 31.5 -120.5 t48.5 -170.5q18 -55 55 -114q49 -78 84 -78q61 0 129 221q18 66 34.5 136.5t32.5 150.5q4 23 9.5 56.5t15.5 76.5q12 57 12 131q0 20 -3 59t-6 83t-5 83t-2 59q0 117 100 117q168 0 168 -395q0 -78 -4 -142.5t-14 -119.5q-10 -66 -25.5 -136.5t-36.5 -148.5 q-12 -33 -30.5 -81t-40.5 -113q-39 -100 -64.5 -166t-42.5 -99q-90 -180 -180 -180z" />
<glyph unicode="x" horiz-adv-x="1384" d="M1372 1475q0 45 -26 96q-31 47 -80 47q-111 0 -502 -471q-33 -39 -55.5 -67.5t-38.5 -47.5q-31 -31 -43 -31q-68 0 -156 185q-29 61 -54.5 124.5t-54.5 127.5q-86 182 -98 194q-51 57 -90 58q-92 0 -92 -129q0 -33 20.5 -93.5t63.5 -148.5q31 -59 61.5 -119.5 t61.5 -122.5q4 -2 25.5 -39t64.5 -108q68 -121 67 -139q0 -35 -124 -216q-47 -68 -87 -122t-75 -95q-41 -53 -61.5 -78.5t-24.5 -31.5q-49 -74 -49 -123q0 -43 38 -82q37 -43 78 -43q57 0 144 111l110 163q209 270 254 269q80 -12 174 -121q53 -66 113.5 -116t116.5 -105 q147 -182 247 -138q27 61 27 132q0 35 -29 88q-16 23 -29.5 42t-29.5 31h-2q-6 20 -78 86q-29 20 -52.5 40t-49.5 42l-195 191q-33 37 -45 45q4 49 242 303l-21 -23q43 53 72 88t51 60q31 35 51 47q160 154 160 240z" />
<glyph unicode="y" horiz-adv-x="1378" d="M1372 1518q0 123 -112 122q-66 0 -222 -153q-53 -51 -102 -105.5t-96 -111.5q-27 -35 -50.5 -67t-46.5 -66q-80 -104 -102 -105q-33 0 -123 90q-35 37 -60.5 66t-45.5 55q-25 41 -40.5 69.5t-25.5 49.5q-16 27 -25.5 46t-17.5 32l-55 133q-39 76 -111 76q-55 0 -84.5 -41 t-29.5 -99q0 -53 55 -176q39 -96 86 -172q49 -82 110.5 -151.5t139.5 -128.5q16 -16 33.5 -27.5t33.5 -24.5q43 -41 43 -69v-8l-131 -578v-6q0 -59 35 -105q47 -53 96 -53q29 0 51 17q25 18 66 133q16 51 26.5 89t14.5 64q20 94 37.5 156.5t28.5 95.5q4 10 12 39t24 80 q10 37 20.5 65.5t20.5 51.5q117 246 469 585q59 59 60 64q18 21 18 68z" />
<glyph unicode="z" horiz-adv-x="1368" d="M1333 279q0 172 -135 165l-727 -86q-10 0 -22.5 11.5t-12.5 21.5q0 37 51 107q23 27 38.5 51t35.5 51q82 145 240 328q70 76 137.5 148.5t134.5 150.5q45 53 80 95t55 77q55 82 56 114q0 86 -97 117q-53 18 -170 15l-395 -15q-29 -4 -51.5 -6t-40.5 -6 q-86 -10 -130 -15.5t-52 -7.5q-121 -18 -172 -43q-84 -47 -84 -143q0 -131 102 -131q14 0 111 33q117 39 196.5 59.5t124.5 20.5l39 4q29 4 55.5 7t49.5 3q86 0 86 -33q0 -29 -164 -196q-168 -186 -322 -414q-78 -123 -135 -215t-96 -152q-113 -168 -113 -229q0 -57 57 -103 q57 -47 121 -47q2 0 168 43q68 16 120 29.5t89 24.5q70 14 146.5 23t164.5 16q78 4 155 10t157 10q25 2 51.5 3t48 10.5t35.5 31t14 62.5z" />
<glyph unicode="{" horiz-adv-x="860" d="M737 -57v14q0 39 -23.5 71.5t-64.5 32.5q-14 0 -24.5 -4t-24.5 -10q-47 -25 -78 -24q-25 0 -37 16t-12 45q0 4 1 8t1 8q4 27 7 53.5t7 61.5q8 53 16.5 122t16.5 157q2 16 2 30v33q0 61 -15 113.5t-58 103.5q43 37 70.5 84t45 105.5t26.5 129t17 154.5q4 39 11.5 82 t20.5 80t34.5 60.5t56.5 23.5h41q18 0 34.5 3t29 13.5t21.5 31t11 54.5v19q0 63 -26.5 80.5t-71.5 17.5q-90 0 -160.5 -40t-121 -104.5t-80 -147.5t-37.5 -169l-4 -59q-6 -66 -12.5 -115t-24 -82.5t-50 -51t-89.5 -17.5q-35 0 -64 -13.5t-48.5 -35t-29.5 -48t-10 -53.5 q0 -43 26.5 -76.5t84.5 -33.5q82 0 109.5 -24t27.5 -79q0 -16 -1 -30.5t-3 -34.5q-6 -66 -15.5 -127.5t-17.5 -118.5v2q-8 -43 -13.5 -82t-7.5 -68q-2 -16 -3 -33.5t-1 -33.5q0 -119 48.5 -181.5t162.5 -62.5q61 0 148 23q-4 -2 5 1l15 5l-2 -2q18 4 41 11t42.5 20.5 t32.5 35t17 56.5z" />
<glyph unicode="|" horiz-adv-x="391" d="M311 12l2 31q2 10 3 23.5t1 29.5l117 1342q0 12 2 29.5t2 35.5q4 27 6 55.5t2 59.5q0 55 -16 95t-63 40q-4 0 -9.5 -1t-9.5 -1q-43 -12 -65.5 -27.5t-34.5 -42t-17.5 -67.5t-9.5 -101v3q-2 -10 -2 -23q0 -12 -2 -27l-127 -1452v4q-4 -14 -4 -24v-19q0 -37 12.5 -60.5 t30.5 -37.5t38.5 -19t39.5 -5q33 0 60.5 40.5t41.5 120.5z" />
<glyph unicode="}" horiz-adv-x="737" d="M596 942l2 -2q-10 2 -19.5 7t-16.5 16.5t-11 33t-4 60.5q0 88 13 191.5t36 211.5l-2 -2q6 20 8 39t2 37q0 51 -14.5 98t-45 84t-76.5 58.5t-110 21.5q-57 0 -96 -3t-86 -15h2q-47 -10 -69.5 -46t-22.5 -77t24.5 -74t84.5 -33q-2 0 4 1t15 2t19.5 2t16.5 1l57 7 q10 0 31 -5h-2q16 -4 21 -13t5 -19v-13q0 -6 -2 -12q-25 -121 -39 -238.5t-14 -216.5q0 -154 66 -225q-74 -55 -107 -142t-41 -196l-16 -196q-2 -20 -5 -45t-12.5 -46.5t-25.5 -38t-43 -18.5q-78 -10 -120 -50t-48 -89v-16q0 -68 38 -92.5t79 -24.5q70 0 135 36t116.5 94 t84 134t38.5 154l17 194q2 25 9 61.5t25.5 71.5t50.5 60.5t85 25.5q72 0 108.5 42t36.5 87q0 39 -27.5 70t-84.5 33l-45 4q-6 2 -11.5 4t-13.5 6z" />
<glyph unicode="~" horiz-adv-x="1013" d="M702 1264q80 0 193 108q113 106 113 187q0 39 -39 65q-33 20 -68 21q-41 0 -82 -41q-6 -8 -20.5 -26.5t-29.5 -37t-29.5 -33t-22.5 -12.5q-27 2 -53.5 15.5t-53 28.5t-52.5 30.5t-50 25.5q-86 41 -158 41q-33 0 -82 -21.5t-96 -54t-86 -68.5t-53 -67q-18 -41 -19 -73 q0 -82 90 -82q49 0 86 30q2 0 16.5 14.5l33 33t38 33t35.5 14.5q18 0 47 -6.5t59 -16.5t55.5 -22.5t39.5 -26.5q59 -59 188 -59z" />
<glyph unicode="&#xa1;" horiz-adv-x="712" d="M8 90q0 -39 35 -78q39 -39 76 -39q45 0 74 37q14 14 40 74q16 37 29.5 80t30.5 90q27 88 45 150.5t35 107.5l100 371q51 168 51 180q0 41 -23.5 66.5t-64.5 25.5q-35 0 -55 -14q-37 -23 -74 -137q-39 -123 -63.5 -215.5t-40.5 -151.5q-10 -31 -111 -289 q-84 -221 -84 -258zM324 1440q0 -135 141 -135q76 0 139 38q70 45 70 123q0 51 -41 99q-43 47 -96 47q-78 0 -146 -49q-67 -47 -67 -123z" />
<glyph unicode="&#xa2;" horiz-adv-x="1298" d="M633 119l2 31q2 10 3 23t1 30l12 76q16 4 36 8t42 8q35 12 60.5 22.5t46.5 20.5q375 160 374 266q6 23 -11 42.5t-44 31.5t-55.5 15t-44.5 -7q-31 -18 -77 -48t-94 -58.5t-93.5 -51t-73.5 -28.5q-100 -41 -187 -41q-92 0 -145 47q-43 45 -43 125q0 35 10 55.5t33 58.5 q-2 0 94 134q41 63 86 117.5t94 99.5q68 68 112 98.5t99 34.5q35 2 48.5 -11.5t16.5 -33t2 -40t9 -34.5q18 -39 62 -39q78 0 77 119q0 98 -35.5 156.5t-99.5 76.5q2 8 2 29q4 27 6.5 55.5t2.5 59.5q0 55 -16.5 95t-63.5 40q-4 0 -9.5 -1t-9.5 -1q-43 -12 -65.5 -27.5 t-34.5 -42t-17.5 -67.5t-9.5 -101v2q-2 -10 -2 -22t-2 -27l-4 -31l-25 -12q-16 -8 -41.5 -27.5t-54 -41t-54.5 -42t-38 -32.5q-92 -90 -149.5 -154.5t-88.5 -107.5q-29 -47 -48 -78t-34.5 -57.5t-31 -56.5t-33.5 -73q-35 -78 -24.5 -146.5t32.5 -115.5q18 -29 48 -58.5 t77 -57.5q31 -20 74 -35t96 -21l-20 -147v4q-4 -14 -4 -25v-18q0 -37 12 -60.5t30.5 -38t39 -19.5t38.5 -5q33 0 60.5 41t42.5 121z" />
<glyph unicode="&#xa3;" horiz-adv-x="1327" d="M899 680q0 41 -18.5 63.5t-55.5 38.5q-29 8 -73.5 13.5t-108.5 5.5q-6 0 -32.5 -1t-73.5 -5q-23 -2 -45.5 -3t-45.5 -1l19 114l217 8q10 2 30.5 4.5t51.5 6.5q25 4 43 4h37q53 0 70.5 13t17.5 48v17q-2 4 -2 20q0 45 -90 74q-78 18 -158 18q-41 0 -87 -1t-95 -3l59 350 l2 4q2 70 -43 123q-49 53 -115 54q-61 0 -88 -52q-25 -31 -39 -102q-6 -29 -12 -56.5t-10 -56.5q-20 -90 -35.5 -161.5t-28.5 -126.5q-10 -2 -18 -3.5t-16 -1.5q-37 -4 -58.5 -6t-27.5 -4q-37 -6 -66 -20q-39 -14 -39 -37q6 -35 34 -67.5t58 -47.5q16 -4 39 -6t54 -2 q-4 -35 -9.5 -64.5t-9.5 -60.5q-49 -4 -61 -6q-29 -4 -49.5 -23.5t-20.5 -42.5q0 -55 74 -92q8 -4 15 -8t17 -8q-10 -76 -13 -139.5t-3 -116.5q0 -158 66 -236q74 -84 231 -84q31 0 83 9.5t130 25.5q35 10 72 22.5t80 28.5q37 16 73.5 30.5t75.5 31.5q86 35 144.5 61.5 t99.5 42.5q51 27 115 49q61 37 61 97q0 51 -29 98q-33 51 -86 51q-29 0 -182 -69q-72 -31 -125 -52.5t-92 -38.5q-47 -16 -92 -32.5t-92 -32.5q-104 -33 -191 -33q-31 0 -45 64l-6 28l31 180q193 6 344 19q37 2 53 2h22q31 6 52 37q16 22 16 47z" />
<glyph unicode="&#xa4;" horiz-adv-x="1298" d="M782 666q0 90 -57 122q-49 23 -143 23q-4 0 -25.5 -1t-58.5 -5t-73 -5t-71 -5q10 18 22.5 38.5t26.5 45.5q14 29 33 59l176 10q8 2 24.5 5t39.5 8q39 6 63 6q41 0 55.5 15t14.5 58v21q-2 4 -2 22q0 55 -72 91q-59 20 -117 22q154 178 275 178q49 0 68 -57q4 -29 11 -55.5 t13 -55.5q20 -57 70 -57q90 0 90 168q0 145 -35 221q-53 102 -184 102q-119 0 -219 -67q-23 -14 -50.5 -38t-62.5 -58q-39 -35 -63.5 -60.5t-41.5 -44.5q-47 -55 -85.5 -104t-71.5 -92q-31 -4 -65 -9.5t-68 -9.5q-29 -6 -46.5 -8t-21.5 -4q-29 -10 -51 -27q-31 -18 -31 -43 q4 -43 26.5 -83t45.5 -56q23 -8 51 -10q-23 -45 -41 -80t-33 -64q-16 -29 -28.5 -66.5t-24.5 -84.5q-20 -90 -20 -162q0 -141 32 -207q37 -84 140 -164q106 -86 315 -86q55 0 221 45q41 16 72 30.5t53 31.5q430 223 430 375q0 51 -30.5 80.5t-81.5 29.5t-109 -41 q-47 -37 -93 -74.5t-100 -72.5q-72 -45 -120.5 -74t-75.5 -39q-115 -59 -215 -59q-109 0 -166 67q-51 63 -51 174v23q0 12 2 24h10q6 0 102 7q92 4 168 10t142 12q29 2 43 3t16 1q23 6 41 43q12 27 12 58z" />
<glyph unicode="&#xa5;" horiz-adv-x="1378" d="M1075 399q0 43 -17.5 69t-53.5 42q-29 10 -75 15t-108 5h-28q-20 0 -58 -4q4 10 6 20.5t6.5 18.5t9.5 28.5t15 55.5l88 4q10 2 30.5 5.5t49.5 7.5q51 6 82 6q53 0 70.5 13t17.5 52v19q-2 4 -2 20q0 49 -92 82q-66 16 -150 21q66 111 171.5 236.5t256.5 270.5q59 59 60 64 q18 20 18 68q0 123 -112 122q-66 0 -222 -153q-53 -51 -102 -105.5t-96 -111.5q-27 -35 -50.5 -67t-46.5 -66q-80 -104 -102 -105q-33 0 -123 90q-35 37 -60.5 66t-45.5 55q-25 41 -40.5 69.5t-25.5 49.5q-16 27 -25.5 46t-17.5 32l-55 133q-39 76 -111 76q-55 0 -84.5 -41 t-29.5 -99q0 -53 55 -176q39 -96 86 -172q49 -82 110.5 -151.5t139.5 -128.5q12 -14 28 -25q-27 -4 -53.5 -6t-54.5 -6q-37 -6 -58.5 -8t-27.5 -5q-18 -4 -33.5 -9t-32.5 -13q-39 -18 -39 -39q6 -41 34 -76t59 -51q23 -6 60.5 -9t94.5 1l107 4l-29 -127h-6 q-94 -10 -146.5 -13t-68.5 -7q-29 -4 -49.5 -27t-20.5 -47q0 -61 74 -99q63 -41 158 -40h6l-23 -105v-6q0 -59 35 -105q47 -53 96 -53q29 0 51 17q25 18 66 133q25 80 37 129q72 4 134 7t120 7q39 2 56.5 3t19.5 1q31 6 53 39q14 22 14 53z" />
<glyph unicode="&#xa8;" horiz-adv-x="888" d="M135 1913q-4 -70 30 -112t81 -38q23 0 41 11.5t31.5 28t21.5 34.5t10 33q6 18 6 43q0 37 -19.5 71.5t-60.5 53.5q-31 12 -55 6t-42.5 -24.5t-30 -47t-13.5 -59.5zM494 1913q-2 -35 6 -63.5t23.5 -49t36 -31t44.5 -8.5q23 0 41.5 11.5t31.5 28t20.5 34.5t11.5 33 q2 10 3 20t1 25q0 35 -18.5 69.5t-59.5 53.5q-31 12 -56.5 6t-44 -24.5t-28.5 -46t-12 -58.5z" />
<glyph unicode="&#xa9;" horiz-adv-x="1167" d="M1151 1012q0 -39 -9 -72t-20 -68q-35 -127 -159 -227q-104 -86 -250 -139q-35 -10 -78 -17.5t-96 -7.5q-49 0 -97.5 10.5t-95.5 26.5q-166 68 -231 152q-8 20 -27 53q-39 68 -47 121q-4 35 -6 68.5t-2 66.5q0 39 26 137q16 66 72 150q57 88 113 118q16 12 37.5 29 t54.5 39q4 4 40 16.5t101 34.5q61 23 168 23q57 0 102.5 -17.5t94.5 -33.5q4 -2 14 -6.5t23 -8.5q68 -29 137 -104q35 -37 60.5 -74t41.5 -72q4 -10 9.5 -34.5t13.5 -61.5q4 -37 7 -62.5t3 -39.5zM1012 1044q0 6 -11 43q-35 131 -130 198t-234 67q-152 0 -270 -80 q-135 -90 -174 -219q-12 -41 -19.5 -70t-7.5 -55q0 -37 11 -74t32 -76q25 -39 121 -90q12 -6 33.5 -13t54.5 -13q63 -14 96 -15q70 0 160 23q47 14 151 88q33 23 64 53.5t57 71.5q66 89 66 161zM776 887q0 -57 -114 -101q-49 -18 -90.5 -28t-75.5 -10q-186 0 -187 219 q0 55 56 133q23 33 46 58.5t52 51.5q8 4 16 9.5t25 15.5q59 41 102 41q86 0 123 -76q10 -20 15.5 -30.5t5.5 -14.5q0 -10 -8.5 -23.5t-18.5 -13.5l-31 19q-16 10 -26.5 14t-22.5 4q-66 0 -188 -141q-41 -47 -41 -92q0 -41 45 -41q72 0 153 41q84 39 103 39q27 0 44 -22.5 t17 -51.5z" />
<glyph unicode="&#xaa;" horiz-adv-x="753" d="M328 1190l-2 -2q20 6 37.5 12t35.5 12q35 12 68 21.5t70 9.5q4 0 13 -18.5t11 -22.5l-4 -47q-203 -14 -336 -80.5t-155 -204.5q0 -4 -1.5 -11t-1.5 -11q0 -31 13.5 -65.5t37 -64.5t54.5 -49.5t65 -19.5q84 0 162 29t131 51h2q0 -29 9.5 -44t46.5 -15q55 0 77.5 29.5 t22.5 88.5l29 418q0 51 -10.5 83t-29 50.5t-43 24.5t-52.5 6q-84 0 -177.5 -19.5t-169.5 -72.5q-29 -14 -49 -28.5t-24 -57.5q0 -27 15 -32t44 -5t61.5 13.5t47.5 19.5h-4h4v0q0 2 2 2zM635 371q57 0 87 23.5t30 56.5t-36 59.5t-114 26.5h-389q-10 0 -25.5 -1t-27.5 -4 q-8 -2 -15 -2h-8q-59 0 -89 -24.5t-30 -52.5q0 -33 33 -56.5t99 -23.5l20 -4zM276 793h-24q-39 8 -45 17t-6 50v6q6 68 97 105t251 65l6 -112q-4 -6 -27.5 -26.5t-61.5 -44.5t-87.5 -42t-102.5 -18z" />
<glyph unicode="&#xab;" horiz-adv-x="872" d="M426 1118h-6q-35 0 -68 -22l-243 -160q-33 -14 -59.5 -41t-33.5 -61q-4 -41 6.5 -57.5t28.5 -26.5l197 -236l6 -6v2q14 -23 27.5 -35t40.5 -18h18q23 0 41 16t39 66v-2q4 8 5 13t3 11q4 23 -6 45.5t-43 52.5l-129 156l158 103q47 23 66.5 55.5t21.5 50.5q2 4 2 12t-6 15 q-10 39 -23.5 51t-42.5 16zM872 1106h-6q-35 0 -67 -23l-244 -159q-33 -14 -59.5 -41t-32.5 -62q-4 -41 6 -57t29 -27l196 -235l6 -6v2q14 -23 27.5 -35t40.5 -19h18q23 0 41.5 16.5t38.5 65.5v-2q4 8 5 13.5t3 11.5q4 23 -6 45t-43 53l-129 156l158 102q47 23 66.5 55.5 t21.5 51.5q2 4 2 12t-6 14q-10 39 -23.5 51.5t-42.5 16.5z" />
<glyph unicode="&#xac;" horiz-adv-x="1943" d="M1761 354q57 35 94 66q41 35 67 77t9 91q-10 45 -33.5 76.5t-56.5 60.5q-35 31 -98.5 39t-136 2t-145 -25.5t-126.5 -44.5q-4 -63 -14 -138t-21.5 -149.5t-22.5 -146.5t-17 -131q-8 -37 1 -52.5t31 -39.5q27 -23 48.5 -38t54.5 -28q29 -18 51 -19t63 9q33 8 73 22.5 t79 32t75 38t60 44.5q35 29 51.5 61t5.5 75q-4 35 -30.5 67.5t-61.5 50.5zM1030 160q4 -41 8 -75t9 -65q6 -29 16 -40t33 -17q25 -10 47 -11t49 -1q25 0 32 7t7 26q-6 86 -11.5 181t-9.5 185t-5 171t3 141q0 25 -9 38t-38 23q-37 10 -81 19.5t-113 13.5q-41 4 -62.5 -9.5 t-36.5 -35.5q-39 -61 -84 -144.5t-89 -171.5t-83 -173t-65 -152q-14 -43 -4 -55.5t32 -28.5q16 -8 32 -14.5t28 -12.5q25 -8 34 -5t19 21q16 33 31.5 67t38.5 73q55 16 127.5 25.5t144.5 19.5zM1352 1470q4 20 0 31.5t-29 26.5q-51 33 -106 45q-29 6 -42.5 3t-19.5 -30 q-20 -68 -38.5 -155.5t-41.5 -180.5q-35 -4 -72.5 -6t-78.5 -6q23 78 38 143.5t31 112.5q4 23 -1 34t-29 25q-27 16 -56.5 27.5t-56.5 20.5q-29 8 -43 4t-19 -31q-14 -68 -28.5 -155t-30.5 -176t-33.5 -174t-36.5 -152q-6 -29 2.5 -43.5t30.5 -24.5q20 -12 47 -19.5 t49 -13.5q27 -6 35 -1t13 22q12 49 22 109.5t29 127.5q39 6 79 11.5t78 11.5q-10 -55 -16 -101.5t-10 -83.5q-10 -37 13.5 -54t64.5 -30q41 -10 68.5 -15t27.5 24q14 82 35.5 174t43 182t43.5 172t38 145zM1427 1511l-110 -591q-4 -27 3 -45.5t23 -34.5q18 -18 35 -29.5 t33 -24.5q14 -10 34.5 -15t63.5 5q59 10 125 23.5t129 25.5q27 6 33 13.5t-4 27.5q-6 18 -13 36t-18 38q-10 16 -26.5 23.5t-44.5 3.5q-47 -4 -89 -7.5t-88 -13.5q10 29 15.5 56.5t15.5 56.5q55 12 114.5 21.5t117.5 19.5q27 6 34 12t-4 29q-6 18 -13 35.5t-17 35.5 q-10 16 -25.5 22.5t-42.5 4.5q-66 0 -113 -8q14 47 25.5 89t26.5 79q63 10 120.5 15t110.5 11q25 4 31 10.5t2 28.5q-4 18 -10.5 33.5t-16.5 36.5q-18 35 -65 35q-104 -4 -209 -22t-183 -36zM702 1440q27 4 31 10t0 25q-20 47 -49 81q-10 10 -22.5 15.5t-40.5 5.5 q-51 -2 -116 -7t-133.5 -11.5t-134 -14.5t-118.5 -16q-16 -4 -21.5 -10.5t2.5 -24.5q10 -16 23.5 -43t34.5 -45q16 -16 30.5 -20.5t38.5 1.5q16 4 40 7.5t50 7.5q-14 -59 -30.5 -130t-29.5 -142.5t-24.5 -138t-15.5 -113.5q-10 -41 15.5 -58.5t64.5 -30.5q43 -12 69.5 -17 t30.5 24q14 74 31.5 153.5t37 161.5t40 163t39.5 152q41 4 81.5 7.5t75.5 7.5zM481 12q31 6 33 12.5t-2 28.5q-8 18 -15.5 37t-17.5 35q-16 18 -29.5 24.5t-39.5 4.5q-47 -4 -87 -8.5t-87 -10.5q16 63 34.5 133t37 137.5t36.5 130t37 113.5q6 20 0 31.5t-29 26.5 q-53 29 -116 43q-27 8 -39.5 3t-22.5 -28q-20 -61 -42.5 -145t-42 -172.5t-35 -169t-23.5 -138.5q-4 -25 4 -42t24 -33q23 -18 37.5 -29.5t30.5 -24.5q14 -10 32.5 -16t63.5 6q59 12 125.5 25.5t132.5 25.5zM596 463q12 12 26.5 32.5t29 44t26.5 48t20 45.5q2 12 3 20.5 t1 12.5q0 16 -14 32q-12 10 -27.5 21.5t-31.5 21.5q-23 14 -36 11.5t-24 -21.5q-12 -27 -29.5 -61.5t-36 -69.5t-35.5 -67.5t-30 -55.5q-14 -33 27 -41q16 -2 34.5 -4t32.5 2q18 0 33 7.5t31 21.5zM1513 420q10 47 20.5 87t25.5 77q78 33 130 35t62 -21q4 -14 -10.5 -36.5 t-45 -48.5t-77 -50.5t-105.5 -42.5zM846 293q47 86 88 164t78 139q0 -68 2 -139.5t8 -145.5q-47 -4 -90 -8t-86 -10zM1473 266q78 27 126 20t56 -28q8 -33 -52.5 -75t-166.5 -68q10 39 18.5 75.5t18.5 75.5z" />
<glyph unicode="&#xad;" horiz-adv-x="927" d="M899 535q0 -72 -37 -112t-108 -40h-166l-193 -12q-47 -4 -71 -7l-23 -2h-96q-88 0 -134 48.5t-46 132.5q0 20 20 43q25 25 43 24h238l36 3q35 3 107 10l279 20q151 15 151 -108z" />
<glyph unicode="&#xae;" horiz-adv-x="1243" d="M1225 1149q0 -8 -3 -28.5t-14 -55.5q-16 -61 -38.5 -109.5t-51.5 -83.5q-35 -41 -71.5 -76.5t-79.5 -72.5q-27 -23 -86.5 -56.5t-151.5 -80.5q-70 -35 -151 -35h-54q-8 0 -49 8q-16 2 -38.5 4t-55.5 6q-152 16 -258 181q-4 4 -11.5 18t-23.5 37q-4 8 -11 18.5t-16 26.5 q-2 10 -5 21.5t-7 27.5q-20 70 -20 127q0 66 2 120t10 97q4 20 4 25v12q0 10 -4 28.5t-4 28.5q0 63 90 144q4 2 40 27.5t107 74.5q43 31 148 64q53 16 94 24t70 10q68 4 102.5 6.5t36.5 2.5q104 0 240 -62q156 -76 213 -196q47 -88 47 -283zM717 1247q0 -4 -1 1t-3 16 q-12 2 -25.5 3t-30.5 1q-121 0 -153 -37q-12 -10 -12 -53q0 -33 30 -33q12 0 28.5 4t37.5 10q25 8 40 13.5t25 13.5q64 41 64 61zM1057 1190q0 16 -2 34.5t-11 41.5q0 14 -26 63q-98 176 -320 176q-385 0 -495 -274q-6 -16 -14.5 -42t-12.5 -61q-8 -35 -12 -59.5t-4 -46.5 q0 -23 12 -72q4 -10 8 -21t13 -30q27 -90 114.5 -143.5t184.5 -53.5q113 0 319 144l2 10q-29 23 -58.5 41t-58.5 39q-78 49 -127 49q-51 0 -75 -18q-2 0 -19 -97q-10 -84 -57 -84q-27 0 -51.5 30t-24.5 58q0 16 4 46t4 47v256q0 10 -3 32.5t-3 32.5q0 25 12 43q23 39 136 70 q47 16 85.5 22.5t71.5 6.5q84 0 139 -29q80 -37 80 -105q0 -72 -22 -127q-4 -14 -12.5 -28.5t-20.5 -30.5q-39 -45 -39 -49l10 -11q9 -10 31 -32q20 -23 30.5 -34t14.5 -15q4 -10 7 -28.5t1 -51.5h15q174 125 174 301z" />
<glyph unicode="&#xaf;" horiz-adv-x="753" d="M643 1749q57 0 87 23.5t30 56.5t-36 59.5t-114 26.5h-389q-10 0 -25.5 -1t-27.5 -3q-8 -2 -14 -2h-9q-59 0 -88.5 -24.5t-29.5 -53.5q0 -33 32.5 -56.5t98.5 -23.5l20 -4z" />
<glyph unicode="&#xb0;" horiz-adv-x="518" d="M463 1602q-51 27 -127 36q-29 4 -60.5 -3t-54.5 -21q-53 -35 -89 -85t-53.5 -105.5t-15 -109.5t26.5 -95q10 -18 28.5 -33t37.5 -23q25 -12 54.5 -17t57.5 -7q82 -8 138 28q41 33 68.5 79t40.5 95.5t15 97.5t-8 89q-8 23 -20 40.5t-39 33.5zM358 1550q14 -4 20.5 -22.5 t7.5 -46t-4 -58t-13 -57.5q-20 -70 -55 -114t-66 -33q-16 4 -24.5 22.5t-9.5 44t4 56t15.5 57t25.5 55.5t32.5 51.5t35 34.5t31.5 10z" />
<glyph unicode="&#xb1;" horiz-adv-x="944" d="M1020 1065q0 86 -82 104q-55 8 -97 11.5t-71 5.5q-84 6 -90 14q-31 25 -31 74q0 12 2 34.5t5 46t6.5 45t3.5 34.5q0 135 -113 135q-78 0 -102 -90q-4 -16 -7.5 -54.5t-7.5 -95.5q-4 -41 -6 -69.5t-6 -51.5q-8 -51 -141 -51q-102 0 -148 -10q-84 -23 -84 -98q0 -43 23 -82 q31 -57 137 -58q10 0 34.5 2t41.5 2q68 0 67 -51q0 -16 -1 -36.5t-3 -49.5q-6 -59 -6 -88q0 -164 113 -164q47 0 65 23q20 25 41 102q10 35 16.5 62.5t10.5 48.5q12 66 47 110q39 55 100 56h166q49 0 88 45q29 35 29 94zM911 342q0 125 -151 109l-279 -21q-72 -6 -107 -9 l-36 -3h-238q-18 0 -43 -25q-20 -20 -20 -43q0 -86 46 -133t134 -47h96l23 2l72 6l192 12h166q72 0 108.5 40t36.5 112z" />
<glyph unicode="&#xb4;" horiz-adv-x="923" d="M315 1853q0 86 119 297l78 150q63 104 127 104q43 0 74.5 -31.5t31.5 -74.5q0 -14 -4 -30.5t-14 -35.5q-31 -53 -55.5 -92t-44.5 -65l2 2q-6 -14 -14.5 -27.5t-14.5 -26.5q-10 -23 -15 -34t-16 -33q-29 -55 -51 -92t-39 -58q-31 -35 -82 -34q-82 -1 -82 81z" />
<glyph unicode="&#xb6;" horiz-adv-x="958" d="M774 1251q-109 0 -224.5 -41t-213.5 -118.5t-165 -191.5t-75 -259v2q-2 -12 -2 -27v-22q0 -147 69.5 -231t201.5 -84h32q18 0 35 2l-29 -463v-15q0 -63 28 -94t65 -31q16 0 26 5l-2 -2q35 8 58.5 25.5t38 48t23.5 75.5t15 113l86 1081h13q2 0 5 1t7 1q6 0 13 -3t16 -17 l-99 -1170v-18q0 -61 28 -92t67 -31h10t16 4l-2 -2q35 8 58.5 24.5t38 47t22.5 76.5t14 114l74 1159v6q0 41 -27.5 65.5t-66.5 39t-82 18.5t-72 4z" />
<glyph unicode="&#xb7;" horiz-adv-x="352" d="M362 891q0 53 -55 90q-47 35 -102 35q-100 0 -127 -58q-20 -43 -21 -81q0 -66 36 -109t102 -43q63 0 114 51q53 54 53 115z" />
<glyph unicode="&#xb8;" horiz-adv-x="741" d="M305 78h232l-119 -96q41 -4 73.5 -16.5t67.5 -28.5q37 -25 63.5 -56t26.5 -71v-15v-8q0 -35 -41 -63.5t-103.5 -49t-137 -32t-140.5 -11.5q-37 0 -72.5 5.5t-62 13.5t-39 20.5t-4.5 28.5q20 37 70.5 42t113 7t129 15.5t117.5 62.5q0 27 -32.5 38t-75.5 14t-83 0t-52 -3 h-121q-51 0 -52 2q0 23 8.5 29t30.5 20z" />
<glyph unicode="&#xba;" horiz-adv-x="919" d="M961 1124q-12 55 -45 92t-76 62t-91.5 41t-93.5 31q-37 10 -67.5 13t-59.5 3q-88 0 -159.5 -31.5t-129 -81t-101.5 -112t-77 -123.5q-29 -63 -28 -115q0 -66 29.5 -125t76.5 -98q49 -41 114.5 -59.5t137.5 -18.5q53 0 107 6q92 18 157.5 47t124.5 58q12 6 22.5 11t22.5 9 h-2q86 39 119 115t33 162q0 59 -12 112zM84 326q16 -25 57 -33t101 -8q25 0 51 1t57 1h6q31 0 82 1t103.5 3t95.5 5t57 7h41q53 0 78 3t45 18q18 8 23.5 17t5.5 26q-10 23 -20.5 43t-20.5 28q-53 49 -135 62.5t-176 13.5h-89q-20 0 -41.5 -2t-42.5 -2q-102 0 -154 -1t-75 -5 h2q-41 -8 -63.5 -17.5t-22.5 -40.5v-8q0 -8 2 -12v-14q4 -16 11.5 -43t21.5 -43zM772 979q-25 -45 -74 -76t-107.5 -50t-117.5 -27.5t-102 -8.5q-37 0 -59.5 9.5t-32.5 39.5q0 6 -1.5 14.5t-1.5 18.5q0 61 24 104.5t58.5 75t74.5 54t75 43.5q8 6 17.5 7t21.5 1 q31 0 71.5 -13.5t77.5 -36t62.5 -53t25.5 -65.5q0 -23 -8 -33z" />
<glyph unicode="&#xbb;" horiz-adv-x="817" d="M477 442h6q33 0 68 23l244 160q33 14 59.5 40.5t32.5 61.5q4 41 -6.5 57.5t-28.5 26.5l-203 242v-2q-14 23 -27.5 35t-39.5 18h-19q-23 0 -41 -16.5t-39 -65.5v2q-4 -8 -5 -13t-3 -12q-4 -23 6.5 -45t42.5 -53l129 -156l-157 -102q-47 -23 -66.5 -55.5t-21.5 -50.5 q-2 -4 -2 -13q0 -8 6 -14q10 -39 23 -51.5t42 -16.5zM31 455h6q33 0 67 22l244 160q33 14 59.5 41t32.5 61q4 41 -6 57.5t-28 26.5l-203 240q-14 23 -27.5 35t-40.5 18h-18q-23 0 -41.5 -16.5t-38.5 -65.5v2q-4 -8 -5 -13t-3 -11q-4 -23 6 -45.5t43 -53.5l129 -155 l-158 -103q-47 -23 -66.5 -55.5t-21.5 -50.5q-2 -4 -2 -12t6 -15q10 -39 23.5 -51t42.5 -16z" />
<glyph unicode="&#xbf;" horiz-adv-x="1343" d="M23 379q-25 -117 67 -223q90 -96 203 -119q43 -8 100.5 -12.5t134.5 -4.5q125 0 191 15q199 27 266 49q313 92 342 221q8 35 -12.5 58.5t-54.5 23.5q-45 0 -125 -33q-61 -23 -94 -35t-37 -14q-41 -10 -95.5 -20.5t-122.5 -20.5q-70 -10 -123 -15t-94 -5h-4 q-336 0 -305 145q27 131 307 227q35 12 59.5 19.5t41.5 11.5q43 6 103 19.5t142 31.5q39 10 68 16.5t45 10.5q41 10 70.5 47t40.5 78q0 10 1 28.5t-1 51.5q0 242 -80 241q-68 0 -123 -157l-12 -35q-12 -12 -25.5 -22.5t-30.5 -14.5q-4 -2 -19.5 -4t-43.5 -6 q-68 -10 -146.5 -35t-171.5 -66q-190 -82 -292 -172q-27 -25 -52.5 -56.5t-52.5 -74.5q-23 -45 -41 -80.5t-24 -68.5zM868 1466q-12 -53 39 -98q47 -35 103 -35q109 0 149 62q16 25 25 37l8 12q43 201 -105 201q-68 0 -135 -56q-70 -53 -84 -123z" />
<glyph unicode="&#xc0;" d="M1188 92q0 -88 -92 -88q-117 0 -142 66q-6 14 -32 133q-10 41 -22.5 100t-33.5 137q-4 18 -10 43t-18 60q-4 4 -9.5 11t-9.5 17q-72 -4 -160 -32q-39 -12 -76.5 -24.5t-76.5 -27.5q-35 -10 -57.5 -14t-34.5 -8q-49 -20 -68 -59q-10 -16 -33 -87l-65 -182 q-4 -16 -12.5 -37.5t-24.5 -50.5q-20 -33 -74 -33q-49 0 -82 27q-39 27 -39 78q0 53 47 168q16 45 32 88t32 88q25 82 60.5 175t80.5 200q33 74 69 162t75 192q55 147 149 309q10 16 22.5 40t30.5 54q8 14 39 25q31 12 49 12q82 0 121 -84q4 -10 14.5 -49t28.5 -110 l101 -383q10 -45 19 -79t18 -57q16 -27 73 -51q53 -14 72 -59q2 -4 2 -19q0 -51 -16 -77l-27.5 -27.5t-24.5 -28.5q-8 -8 -8 -20q0 2 3 -16.5t13.5 -57.5t17.5 -77t17 -74q10 -33 20.5 -66t20.5 -68q21 -76 21 -139zM754 815q-4 16 -12.5 63.5t-24.5 120.5q-35 160 -41 166 q-6 8 -25 13q-35 -41 -86 -181q-72 -199 -71 -213q0 -10 8 -32h69l99 22q68 18 84 41zM854 1833q0 86 -119 296l-78 150q-66 104 -127 104q-43 0 -74.5 -31.5t-31.5 -74.5q0 -14 4 -30.5t14 -35.5q31 -53 55.5 -92t44.5 -65l-2 2q6 -14 14.5 -27.5t14.5 -25.5 q10 -23 15.5 -34.5t15.5 -33.5q29 -55 51 -92t39 -58q31 -35 82 -34q82 0 82 82z" />
<glyph unicode="&#xc1;" d="M1188 92q0 -88 -92 -88q-117 0 -142 66q-6 14 -32 133q-10 41 -22.5 100t-33.5 137q-4 18 -10 43t-18 60q-4 4 -9.5 11t-9.5 17q-72 -4 -160 -32q-39 -12 -76.5 -24.5t-76.5 -27.5q-35 -10 -57.5 -14t-34.5 -8q-49 -20 -68 -59q-10 -16 -33 -87l-65 -182 q-4 -16 -12.5 -37.5t-24.5 -50.5q-20 -33 -74 -33q-49 0 -82 27q-39 27 -39 78q0 53 47 168q16 45 32 88t32 88q25 82 60.5 175t80.5 200q33 74 69 162t75 192q55 147 149 309q10 16 22.5 40t30.5 54q8 14 39 25q31 12 49 12q82 0 121 -84q4 -10 14.5 -49t28.5 -110 l101 -383q10 -45 19 -79t18 -57q16 -27 73 -51q53 -14 72 -59q2 -4 2 -19q0 -51 -16 -77l-27.5 -27.5t-24.5 -28.5q-8 -8 -8 -20q0 2 3 -16.5t13.5 -57.5t17.5 -77t17 -74q10 -33 20.5 -66t20.5 -68q21 -76 21 -139zM754 815q-4 16 -12.5 63.5t-24.5 120.5q-35 160 -41 166 q-6 8 -25 13q-35 -41 -86 -181q-72 -199 -71 -213q0 -10 8 -32h69l99 22q68 18 84 41zM542 1847q0 86 119 297l78 150q63 104 127 104q43 0 74.5 -31.5t31.5 -74.5q0 -14 -4 -30.5t-14 -35.5q-31 -53 -55.5 -92t-44.5 -65l2 2q-6 -14 -14.5 -27.5t-14.5 -26.5 q-10 -23 -15 -34t-16 -33q-29 -55 -51 -92t-39 -58q-31 -35 -82 -34q-82 -1 -82 81z" />
<glyph unicode="&#xc2;" d="M1188 92q0 -88 -92 -88q-117 0 -142 66q-6 14 -32 133q-10 41 -22.5 100t-33.5 137q-4 18 -10 43t-18 60q-4 4 -9.5 11t-9.5 17q-72 -4 -160 -32q-39 -12 -76.5 -24.5t-76.5 -27.5q-35 -10 -57.5 -14t-34.5 -8q-49 -20 -68 -59q-10 -16 -33 -87l-65 -182 q-4 -16 -12.5 -37.5t-24.5 -50.5q-20 -33 -74 -33q-49 0 -82 27q-39 27 -39 78q0 53 47 168q16 45 32 88t32 88q25 82 60.5 175t80.5 200q33 74 69 162t75 192q55 147 149 309q10 16 22.5 40t30.5 54q8 14 39 25q31 12 49 12q82 0 121 -84q4 -10 14.5 -49t28.5 -110 l101 -383q10 -45 19 -79t18 -57q16 -27 73 -51q53 -14 72 -59q2 -4 2 -19q0 -51 -16 -77l-27.5 -27.5t-24.5 -28.5q-8 -8 -8 -20q0 2 3 -16.5t13.5 -57.5t17.5 -77t17 -74q10 -33 20.5 -66t20.5 -68q21 -76 21 -139zM754 815q-4 16 -12.5 63.5t-24.5 120.5q-35 160 -41 166 q-6 8 -25 13q-35 -41 -86 -181q-72 -199 -71 -213q0 -10 8 -32h69l99 22q68 18 84 41zM961 1776q51 2 30 35q-16 31 -34.5 68.5t-38 79.5t-38 85t-32.5 84q-8 27 -19.5 37t-27.5 22q-23 10 -45.5 17.5t-42.5 17.5q-23 8 -41 5t-35 -25q-39 -37 -78 -81t-72.5 -88t-62 -83 t-49.5 -68q-23 -29 10 -59q16 -16 35 -28.5t35 -22.5q12 -4 19.5 -7.5t15.5 -3.5q14 2 26 19q37 47 82 103.5t99 115.5q29 -57 52 -107.5t42 -85.5q27 -31 74 -34q29 -4 51 -2t45 6z" />
<glyph unicode="&#xc3;" d="M1188 92q0 -88 -92 -88q-117 0 -142 66q-6 14 -32 133q-10 41 -22.5 100t-33.5 137q-4 18 -10 43t-18 60q-4 4 -9.5 11t-9.5 17q-72 -4 -160 -32q-39 -12 -76.5 -24.5t-76.5 -27.5q-35 -10 -57.5 -14t-34.5 -8q-49 -20 -68 -59q-10 -16 -33 -87l-65 -182 q-4 -16 -12.5 -37.5t-24.5 -50.5q-20 -33 -74 -33q-49 0 -82 27q-39 27 -39 78q0 53 47 168q16 45 32 88t32 88q25 82 60.5 175t80.5 200q33 74 69 162t75 192q55 147 149 309q10 16 22.5 40t30.5 54q8 14 39 25q31 12 49 12q82 0 121 -84q4 -10 14.5 -49t28.5 -110 l101 -383q10 -45 19 -79t18 -57q16 -27 73 -51q53 -14 72 -59q2 -4 2 -19q0 -51 -16 -77l-27.5 -27.5t-24.5 -28.5q-8 -8 -8 -20q0 2 3 -16.5t13.5 -57.5t17.5 -77t17 -74q10 -33 20.5 -66t20.5 -68q21 -76 21 -139zM754 815q-4 16 -12.5 63.5t-24.5 120.5q-35 160 -41 166 q-6 8 -25 13q-35 -41 -86 -181q-72 -199 -71 -213q0 -10 8 -32h69l99 22q68 18 84 41zM817 1772q61 0 137 76q80 74 80 133q0 27 -26 47q-23 14 -50 14q-29 0 -57 -28q-4 -6 -14 -18.5t-21.5 -27t-21.5 -23.5t-17 -9q-39 4 -75.5 30.5t-71.5 40.5q-31 14 -57.5 21.5 t-55.5 7.5q-25 0 -59.5 -15.5t-68.5 -38t-61.5 -49t-37.5 -46.5q-12 -29 -12 -54q0 -57 63 -57q39 0 62 20q2 0 12 10.5t22.5 24t26.5 23.5t27 10q14 0 34.5 -4t41 -11t39 -16.5t28.5 -19.5q41 -41 133 -41z" />
<glyph unicode="&#xc4;" d="M1188 92q0 -88 -92 -88q-117 0 -142 66q-6 14 -32 133q-10 41 -22.5 100t-33.5 137q-4 18 -10 43t-18 60q-4 4 -9.5 11t-9.5 17q-72 -4 -160 -32q-39 -12 -76.5 -24.5t-76.5 -27.5q-35 -10 -57.5 -14t-34.5 -8q-49 -20 -68 -59q-10 -16 -33 -87l-65 -182 q-4 -16 -12.5 -37.5t-24.5 -50.5q-20 -33 -74 -33q-49 0 -82 27q-39 27 -39 78q0 53 47 168q16 45 32 88t32 88q25 82 60.5 175t80.5 200q33 74 69 162t75 192q55 147 149 309q10 16 22.5 40t30.5 54q8 14 39 25q31 12 49 12q82 0 121 -84q4 -10 14.5 -49t28.5 -110 l101 -383q10 -45 19 -79t18 -57q16 -27 73 -51q53 -14 72 -59q2 -4 2 -19q0 -51 -16 -77l-27.5 -27.5t-24.5 -28.5q-8 -8 -8 -20q0 2 3 -16.5t13.5 -57.5t17.5 -77t17 -74q10 -33 20.5 -66t20.5 -68q21 -76 21 -139zM754 815q-4 16 -12.5 63.5t-24.5 120.5q-35 160 -41 166 q-6 8 -25 13q-35 -41 -86 -181q-72 -199 -71 -213q0 -10 8 -32h69l99 22q68 18 84 41zM399 1901q-4 -70 30 -112t81 -38q23 0 41 11.5t31.5 28t21.5 34.5t10 33q6 18 6 43q0 37 -19.5 71.5t-60.5 53.5q-31 12 -55 6t-42.5 -24.5t-30 -47t-13.5 -59.5zM758 1901 q-2 -35 6 -63.5t23.5 -49t36 -31t44.5 -8.5q23 0 41.5 11.5t31.5 28t20.5 34.5t11.5 33q2 10 3 20t1 25q0 35 -18.5 69.5t-59.5 53.5q-31 12 -56.5 6t-44 -24.5t-28.5 -46t-12 -58.5z" />
<glyph unicode="&#xc5;" d="M1188 92q0 66 -21 139q-10 35 -20 68t-20.5 65.5t-18.5 73.5t-16.5 77t-12.5 58.5t-4 16.5q0 12 8 20q12 16 23.5 27.5l28.5 28.5q16 29 16 77q0 16 -2 19q-16 43 -72 59q-59 25 -73 51q-16 45 -37 136l-101 383q-18 72 -28.5 110.5t-14.5 48.5q-41 84 -121 84 q-18 0 -49 -12q-29 -8 -39 -25q-18 -31 -30.5 -54t-22.5 -40q-94 -160 -149 -309q-39 -104 -75 -192.5t-69 -161.5q-45 -106 -80.5 -199.5t-60.5 -175.5q-16 -45 -31.5 -88t-32.5 -88q-47 -117 -47 -168t39 -78q33 -27 82 -27q53 0 74 33q16 29 24.5 50.5t12.5 37.5l65 182 q10 35 19.5 56.5t13.5 30.5q16 37 68 59q12 4 34.5 8t57.5 14q39 14 77 26.5t76 25.5q45 14 85 22t75 10q8 -18 19 -28q12 -35 18 -59.5t10 -43.5q20 -78 32.5 -137t23.5 -100q29 -121 32 -133q25 -66 142 -66q92 0 92 88zM754 815q-16 -23 -84 -41l-99 -22h-69q-8 18 -8 32 q0 10 71 213q53 141 86 181q18 -4 25 -13q8 -8 41 -166q16 -74 24.5 -121t12.5 -63zM877 2175q-51 27 -127 37q-29 4 -61 -3t-54 -22q-53 -35 -89 -85t-53.5 -105t-15.5 -109.5t27 -95.5q10 -18 28.5 -32.5t36.5 -22.5q25 -12 54.5 -17.5t58.5 -7.5q82 -8 137 29 q41 33 68.5 79t41 95t15.5 97t-8 89q-8 23 -20 40.5t-39 33.5zM772 2124q14 -4 20.5 -22.5t7.5 -46t-4 -58.5t-14 -58q-20 -70 -55 -113.5t-65 -33.5q-16 4 -24.5 22.5t-9.5 44t4 56.5t15 57.5t25.5 55t33 51t35 35t31.5 10.5z" />
<glyph unicode="&#xc6;" horiz-adv-x="2291" d="M2286 209q4 49 -18.5 93t-67.5 63q-47 -6 -94.5 -11.5t-94.5 -3.5q-53 -6 -104.5 -7t-104.5 -5q-98 -16 -189 -37.5t-190 -32.5q-29 -2 -57.5 -3t-60.5 3q-43 10 -59.5 36t-4.5 52q0 78 6 137.5t10 114.5q2 27 5.5 51.5t14.5 43t32.5 28.5t58.5 10q25 4 48.5 9.5 t51.5 9.5q74 12 146 27.5t149 9.5q37 0 77 -1t79 -5q33 -2 65.5 14t34.5 53q10 47 -14.5 84t-67.5 53q-16 4 -31.5 7.5t-31.5 3.5q-68 14 -135.5 15t-136 -5t-136 -16.5t-135.5 -18.5l-14 6q-20 14 -19 45q4 33 5 66q0 33 4 67l24 84q25 0 38 5.5t24 11.5q39 16 75.5 23 t73.5 11q37 8 73 11.5t73 5.5q57 12 109 13t104 1q51 0 102 5t108 28q18 27 17.5 62.5t-16 71.5t-43 65.5t-60.5 46.5q-39 20 -106 10q-27 -8 -53.5 -7t-55.5 -5q-70 -4 -137.5 -14.5t-138.5 -28.5q-80 -18 -160 -31q-16 -4 -29.5 -8t-28.5 -8v30q-12 84 -90 84 q-55 -14 -94 -41.5t-92 -89.5q-72 -84 -134.5 -159.5t-115.5 -149.5q-72 -104 -136.5 -192.5t-121.5 -161.5q-78 -106 -144.5 -199.5t-117.5 -175.5q-31 -45 -60.5 -88t-60.5 -88q-84 -115 -102 -168q-14 -51 14 -78q25 -27 74 -27q51 0 84 33q29 29 42 50.5t23 37.5 l125 182q23 35 38 56.5t24 29.5q29 37 86 60q14 4 36.5 8t61.5 14q84 27 172 52q49 14 91 22t79 10q2 -20 8 -28v-60q12 -51 3 -117.5t-13 -134t12.5 -129t79.5 -98.5q4 -2 18.5 -4t32 -4t33.5 -3t25 -1q49 -4 97 -3t93 11q160 37 317.5 62.5t323.5 21.5q41 0 81 5t81 7 q43 10 76 40t37 75zM995 813q-25 -23 -98 -41l-104 -22h-70q-4 18 0 32q4 8 39 60.5t102 152.5q98 139 144 181q20 -4 22 -13q6 -6 -14 -166q-8 -74 -14.5 -121t-6.5 -63z" />
<glyph unicode="&#xc7;" horiz-adv-x="1298" d="M188 -80q-23 -14 -30.5 -20t-7.5 -29q0 -2 51 -2h121q12 0 52 3t83 0t75.5 -14.5t32.5 -37.5q-51 -49 -117.5 -62.5t-129 -15.5t-112.5 -7t-71 -42q-8 -16 4.5 -28.5t39 -21t62 -13.5t72.5 -5q66 0 140.5 11.5t137 35t103.5 56t41 75.5q-4 39 -15 71t-38 54.5t-70 34.5 t-108 12l49 41q31 4 76 14.5t104 26.5q41 16 72 30.5t53 31.5q430 223 430 375q0 51 -30.5 80.5t-81.5 29.5t-109 -41q-47 -37 -93 -74.5t-100 -72.5q-72 -45 -120.5 -74t-75.5 -39q-115 -59 -215 -59q-109 0 -166 67q-51 63 -51 174q0 100 51 205q2 2 27.5 49t78.5 140 q94 174 207 307q158 188 283 188q49 0 68 -57q4 -29 11 -55.5t13 -55.5q20 -57 70 -57q90 0 90 168q0 145 -35 221q-53 102 -184 102q-119 0 -219 -67q-23 -14 -50.5 -38t-62.5 -58q-39 -35 -63.5 -60.5t-41.5 -44.5q-104 -125 -171.5 -217t-102.5 -151q-78 -145 -117 -222 q-16 -29 -28.5 -66.5t-24.5 -84.5q-20 -90 -20 -162q0 -141 32 -207q37 -84 140 -164q55 -47 141 -67z" />
<glyph unicode="&#xc8;" horiz-adv-x="1363" d="M1348 231q-4 -45 -37 -74.5t-76 -39.5q-41 -2 -81 -7.5t-81 -5.5q-166 4 -323.5 -21.5t-317.5 -62.5q-45 -10 -93 -11t-97 3q-61 4 -105.5 34t-72 75t-36 98t2.5 107q6 59 13 118.5t17 118.5q10 61 17.5 121.5t13.5 120.5q6 51 6 106v56t-2 55v145v109q0 29 -1 55.5 t-3 54.5q-4 33 10.5 57.5t39 41t56 22.5t60.5 4q41 16 80 23.5t82 21.5q80 12 160 31q72 18 139 28.5t137 14.5q29 6 55.5 5t53.5 7q63 10 106 -10q33 -16 60.5 -46t43 -65.5t16.5 -71.5t-17 -63q-57 -23 -108.5 -27.5t-102.5 -4.5t-103.5 -1t-109.5 -14q-37 -2 -73 -5 t-73 -11q-37 -4 -73.5 -11t-75.5 -24q-10 -6 -21.5 -11t-23.5 -5h-17l-10 -15l-6 -16l-2 -16l-2 -19l-4 -18q-2 -23 -3 -45.5t-1 -44.5q6 -10 0.5 -21.5t-3.5 -21.5q-2 -31 19 -45l14 -6q68 8 135.5 18t135 16t135 5t135.5 -15q16 0 31.5 -3t31.5 -7q43 -16 68 -53t14 -84 q-2 -37 -34.5 -53.5t-65.5 -14.5q-39 4 -79 5t-77 1q-78 6 -149.5 -9t-145.5 -28q-35 -4 -67.5 -11t-67.5 -11q-41 -6 -57 -40t-16 -67q-4 -61 -11.5 -122.5t-5.5 -120.5v-15q0 -10 -2 -16q-12 -27 4.5 -52.5t59.5 -35.5q33 -4 61.5 -3t56.5 3q98 10 190.5 31.5t188.5 37.5 q53 4 104.5 5.5t104.5 7.5q47 -2 94 3t95 11q45 -18 67.5 -62.5t18.5 -93.5zM824 1833q0 86 -119 296l-78 150q-66 104 -127 104q-43 0 -74.5 -31.5t-31.5 -74.5q0 -14 4 -30.5t14 -35.5q31 -53 55.5 -92t44.5 -65l-2 2q6 -14 14.5 -27.5t14.5 -25.5q10 -23 15.5 -34.5 t15.5 -33.5q29 -55 51 -92t39 -58q31 -35 82 -34q82 0 82 82z" />
<glyph unicode="&#xc9;" horiz-adv-x="1363" d="M1348 231q-4 -45 -37 -74.5t-76 -39.5q-41 -2 -81 -7.5t-81 -5.5q-166 4 -323.5 -21.5t-317.5 -62.5q-45 -10 -93 -11t-97 3q-61 4 -105.5 34t-72 75t-36 98t2.5 107q6 59 13 118.5t17 118.5q10 61 17.5 121.5t13.5 120.5q6 51 6 106v56t-2 55v145v109q0 29 -1 55.5 t-3 54.5q-4 33 10.5 57.5t39 41t56 22.5t60.5 4q41 16 80 23.5t82 21.5q80 12 160 31q72 18 139 28.5t137 14.5q29 6 55.5 5t53.5 7q63 10 106 -10q33 -16 60.5 -46t43 -65.5t16.5 -71.5t-17 -63q-57 -23 -108.5 -27.5t-102.5 -4.5t-103.5 -1t-109.5 -14q-37 -2 -73 -5 t-73 -11q-37 -4 -73.5 -11t-75.5 -24q-10 -6 -21.5 -11t-23.5 -5h-17l-10 -15l-6 -16l-2 -16l-2 -19l-4 -18q-2 -23 -3 -45.5t-1 -44.5q6 -10 0.5 -21.5t-3.5 -21.5q-2 -31 19 -45l14 -6q68 8 135.5 18t135 16t135 5t135.5 -15q16 0 31.5 -3t31.5 -7q43 -16 68 -53t14 -84 q-2 -37 -34.5 -53.5t-65.5 -14.5q-39 4 -79 5t-77 1q-78 6 -149.5 -9t-145.5 -28q-35 -4 -67.5 -11t-67.5 -11q-41 -6 -57 -40t-16 -67q-4 -61 -11.5 -122.5t-5.5 -120.5v-15q0 -10 -2 -16q-12 -27 4.5 -52.5t59.5 -35.5q33 -4 61.5 -3t56.5 3q98 10 190.5 31.5t188.5 37.5 q53 4 104.5 5.5t104.5 7.5q47 -2 94 3t95 11q45 -18 67.5 -62.5t18.5 -93.5zM532 1839q0 86 119 297l78 150q63 104 127 104q43 0 74.5 -31.5t31.5 -74.5q0 -14 -4 -30.5t-14 -35.5q-31 -53 -55.5 -92t-44.5 -65l2 2q-6 -14 -14.5 -27.5t-14.5 -26.5q-10 -23 -15 -34 t-16 -33q-29 -55 -51 -92t-39 -58q-31 -35 -82 -34q-82 -1 -82 81z" />
<glyph unicode="&#xca;" horiz-adv-x="1363" d="M1348 231q-4 -45 -37 -74.5t-76 -39.5q-41 -2 -81 -7.5t-81 -5.5q-166 4 -323.5 -21.5t-317.5 -62.5q-45 -10 -93 -11t-97 3q-61 4 -105.5 34t-72 75t-36 98t2.5 107q6 59 13 118.5t17 118.5q10 61 17.5 121.5t13.5 120.5q6 51 6 106v56t-2 55v145v109q0 29 -1 55.5 t-3 54.5q-4 33 10.5 57.5t39 41t56 22.5t60.5 4q41 16 80 23.5t82 21.5q80 12 160 31q72 18 139 28.5t137 14.5q29 6 55.5 5t53.5 7q63 10 106 -10q33 -16 60.5 -46t43 -65.5t16.5 -71.5t-17 -63q-57 -23 -108.5 -27.5t-102.5 -4.5t-103.5 -1t-109.5 -14q-37 -2 -73 -5 t-73 -11q-37 -4 -73.5 -11t-75.5 -24q-10 -6 -21.5 -11t-23.5 -5h-17l-10 -15l-6 -16l-2 -16l-2 -19l-4 -18q-2 -23 -3 -45.5t-1 -44.5q6 -10 0.5 -21.5t-3.5 -21.5q-2 -31 19 -45l14 -6q68 8 135.5 18t135 16t135 5t135.5 -15q16 0 31.5 -3t31.5 -7q43 -16 68 -53t14 -84 q-2 -37 -34.5 -53.5t-65.5 -14.5q-39 4 -79 5t-77 1q-78 6 -149.5 -9t-145.5 -28q-35 -4 -67.5 -11t-67.5 -11q-41 -6 -57 -40t-16 -67q-4 -61 -11.5 -122.5t-5.5 -120.5v-15q0 -10 -2 -16q-12 -27 4.5 -52.5t59.5 -35.5q33 -4 61.5 -3t56.5 3q98 10 190.5 31.5t188.5 37.5 q53 4 104.5 5.5t104.5 7.5q47 -2 94 3t95 11q45 -18 67.5 -62.5t18.5 -93.5zM967 1817q51 2 30 35q-16 31 -34.5 68.5t-38 79.5t-38 85t-32.5 84q-8 27 -19.5 37t-27.5 22q-23 10 -45.5 17.5t-42.5 17.5q-23 8 -41 5t-35 -25q-39 -37 -78 -81t-72.5 -88t-62 -83t-49.5 -68 q-23 -29 10 -59q16 -16 35 -28.5t35 -22.5q12 -4 19.5 -7.5t15.5 -3.5q14 2 26 19q37 47 82 103.5t99 115.5q29 -57 52 -107.5t42 -85.5q27 -31 74 -34q29 -4 51 -2t45 6z" />
<glyph unicode="&#xcb;" horiz-adv-x="1363" d="M1348 231q4 49 -18.5 93.5t-67.5 62.5q-47 -6 -94.5 -11t-94.5 -3q-53 -6 -104 -7t-105 -6q-98 -16 -189 -37.5t-190 -31.5q-29 -2 -57.5 -3t-60.5 3q-43 10 -59.5 35.5t-4.5 52.5q2 4 2 16v15q-2 59 5 120.5t12 122.5q0 33 16 67t57 40q35 4 68 11t67 11q74 12 146 27.5 t149 9.5q37 0 77 -1t79 -5q33 -2 65.5 14.5t34.5 53.5q10 47 -14.5 83.5t-67.5 53.5q-16 4 -31.5 7t-31.5 3q-68 14 -135.5 15t-135 -5t-135 -16t-135.5 -18l-14 6q-20 14 -19 45q-2 10 3.5 21t-0.5 22q0 23 1 45t3 45l4 18l2 19l2 16l6 16l10 15h17q12 0 23 5t22 11 q39 16 75.5 23.5t73.5 11.5q37 8 73 11t73 5q57 12 109 13.5t104 1.5q51 0 102 5t109 27q18 27 17 63t-16.5 71.5t-43 65.5t-60.5 46q-39 20 -106 10q-27 -8 -53.5 -7t-55.5 -5q-70 -4 -137.5 -14t-138.5 -29q-80 -18 -160 -31q-43 -14 -82 -21t-80 -24q-29 2 -60.5 -5 t-56 -22.5t-39 -40t-10.5 -57.5q2 -29 3 -55t1 -55v-109v-145q2 -14 2 -29v-26v-56q0 -55 -6 -106q-6 -59 -13 -119.5t-18 -122.5q-10 -59 -17 -118.5t-13 -118.5q-10 -53 -1 -106.5t35.5 -98.5t70.5 -75t106 -34q49 -4 97 -3t93 11q160 37 317.5 63t323.5 21q41 0 81 5.5 t81 7.5q43 10 76 39.5t37 74.5zM371 1907q-4 -70 29.5 -112t80.5 -38q23 0 41.5 11.5t31.5 27.5t21.5 34.5t10.5 33.5q6 18 6 43q0 37 -19.5 71.5t-60.5 53.5q-31 12 -55.5 6t-43 -24.5t-29.5 -47t-13 -59.5zM729 1907q-2 -35 6 -63.5t23.5 -49t36 -31t45.5 -8.5 q23 0 41 11.5t31.5 27.5t20.5 34.5t11 33.5q2 10 3 20t1 25q0 35 -18.5 69.5t-59.5 53.5q-31 12 -56.5 6t-43.5 -24.5t-28.5 -46t-12.5 -58.5z" />
<glyph unicode="&#xcc;" horiz-adv-x="1300" d="M1278 1477q0 47 -64 122l-133 11q-143 -10 -227 -16.5t-110.5 -10.5t-51 -6t-51.5 -4q-49 -6 -98 -8t-84 -13q-41 -6 -86 -14t-88 -16q-111 -16 -166.5 -46t-55.5 -87q0 -125 175 -125q4 0 20 2t45 6q47 6 84 12t62 10q10 2 17 3t15 1q6 0 35 2.5t82 6.5q-6 -53 -6 -113 q0 -76 -6 -164t-17 -186l-45 -350q-4 -29 -6 -57.5t-6 -59.5q-12 -74 -47 -103q-33 -23 -88 -34q-8 -2 -33 -6.5t-68 -10.5q-35 -6 -60.5 -11t-41.5 -9q-41 -8 -67.5 -13.5t-43.5 -13.5q-57 -27 -57 -86q-10 -96 55 -113q33 -6 56.5 -10t40.5 -4q33 0 73.5 6t122.5 21 q281 45 441.5 70.5t189.5 27.5q106 12 175 27.5t75 15.5q84 150 -47 225q-92 -12 -142.5 -19t-62.5 -9t-32.5 -3t-47.5 -1q-29 0 -50.5 -2.5t-35.5 -10.5q-39 0 -45 7.5t-6 46.5v14l68 645q2 6 2 16v15q0 221 47 280q25 0 81 10.5t148 26.5q166 1 166 105zM881 1804 q0 86 -119 297l-78 150q-66 104 -127 104q-43 0 -74.5 -31.5t-31.5 -74.5q0 -14 4 -30.5t14 -35.5q31 -53 55.5 -92t44.5 -66l-2 3q6 -14 14.5 -27.5t14.5 -26.5q10 -23 15 -34t16 -33q29 -55 51 -92t39 -58q31 -35 82 -35q82 0 82 82z" />
<glyph unicode="&#xcd;" horiz-adv-x="1300" d="M1278 1477q0 47 -64 122l-133 11q-143 -10 -227 -16.5t-110.5 -10.5t-51 -6t-51.5 -4q-49 -6 -98 -8t-84 -13q-41 -6 -86 -14t-88 -16q-111 -16 -166.5 -46t-55.5 -87q0 -125 175 -125q4 0 20 2t45 6q47 6 84 12t62 10q10 2 17 3t15 1q6 0 35 2.5t82 6.5q-6 -53 -6 -113 q0 -76 -6 -164t-17 -186l-45 -350q-4 -29 -6 -57.5t-6 -59.5q-12 -74 -47 -103q-33 -23 -88 -34q-8 -2 -33 -6.5t-68 -10.5q-35 -6 -60.5 -11t-41.5 -9q-41 -8 -67.5 -13.5t-43.5 -13.5q-57 -27 -57 -86q-10 -96 55 -113q33 -6 56.5 -10t40.5 -4q33 0 73.5 6t122.5 21 q281 45 441.5 70.5t189.5 27.5q106 12 175 27.5t75 15.5q84 150 -47 225q-92 -12 -142.5 -19t-62.5 -9t-32.5 -3t-47.5 -1q-29 0 -50.5 -2.5t-35.5 -10.5q-39 0 -45 7.5t-6 46.5v14l68 645q2 6 2 16v15q0 221 47 280q25 0 81 10.5t148 26.5q166 1 166 105zM569 1853 q0 86 119 297l78 150q63 104 127 104q43 0 74.5 -31.5t31.5 -74.5q0 -14 -4 -30.5t-14 -35.5q-31 -53 -55.5 -92t-44.5 -65l2 2q-6 -14 -14.5 -27.5t-14.5 -26.5q-10 -23 -15 -34t-16 -33q-29 -55 -51 -92t-39 -58q-31 -35 -82 -34q-82 -1 -82 81z" />
<glyph unicode="&#xce;" horiz-adv-x="1300" d="M1278 1477q0 47 -64 122l-133 11q-143 -10 -227 -16.5t-110.5 -10.5t-51 -6t-51.5 -4q-49 -6 -98 -8t-84 -13q-41 -6 -86 -14t-88 -16q-111 -16 -166.5 -46t-55.5 -87q0 -125 175 -125q4 0 20 2t45 6q47 6 84 12t62 10q10 2 17 3t15 1q6 0 35 2.5t82 6.5q-6 -53 -6 -113 q0 -76 -6 -164t-17 -186l-45 -350q-4 -29 -6 -57.5t-6 -59.5q-12 -74 -47 -103q-33 -23 -88 -34q-8 -2 -33 -6.5t-68 -10.5q-35 -6 -60.5 -11t-41.5 -9q-41 -8 -67.5 -13.5t-43.5 -13.5q-57 -27 -57 -86q-10 -96 55 -113q33 -6 56.5 -10t40.5 -4q33 0 73.5 6t122.5 21 q281 45 441.5 70.5t189.5 27.5q106 12 175 27.5t75 15.5q84 150 -47 225q-92 -12 -142.5 -19t-62.5 -9t-32.5 -3t-47.5 -1q-29 0 -50.5 -2.5t-35.5 -10.5q-39 0 -45 7.5t-6 46.5v14l68 645q2 6 2 16v15q0 221 47 280q25 0 81 10.5t148 26.5q166 1 166 105zM1008 1790 q51 2 30 35q-16 31 -34.5 68.5t-38 79.5t-38 85t-32.5 84q-8 27 -19.5 37t-27.5 23q-23 10 -45.5 17t-42.5 17q-23 8 -41.5 5t-34.5 -25q-39 -37 -78 -81t-72.5 -88t-62.5 -83t-49 -68q-23 -29 10 -59q16 -16 34.5 -28.5t35.5 -22.5q12 -4 19 -7t16 -3q14 2 26 18 q37 47 82 103.5t98 115.5q29 -57 52.5 -107.5t42.5 -84.5q27 -31 73 -35q29 -4 51.5 -2t45.5 6z" />
<glyph unicode="&#xcf;" horiz-adv-x="1300" d="M1278 1477q0 47 -64 122l-133 11q-143 -10 -227 -16.5t-110.5 -10.5t-51 -6t-51.5 -4q-49 -6 -98 -8t-84 -13q-41 -6 -86 -14t-88 -16q-111 -16 -166.5 -46t-55.5 -87q0 -125 175 -125q4 0 20 2t45 6q47 6 84 12t62 10q10 2 17 3t15 1q6 0 35 2.5t82 6.5q-6 -53 -6 -113 q0 -76 -6 -164t-17 -186l-45 -350q-4 -29 -6 -57.5t-6 -59.5q-12 -74 -47 -103q-33 -23 -88 -34q-8 -2 -33 -6.5t-68 -10.5q-35 -6 -60.5 -11t-41.5 -9q-41 -8 -67.5 -13.5t-43.5 -13.5q-57 -27 -57 -86q-10 -96 55 -113q33 -6 56.5 -10t40.5 -4q33 0 73.5 6t122.5 21 q281 45 441.5 70.5t189.5 27.5q106 12 175 27.5t75 15.5q84 150 -47 225q-92 -12 -142.5 -19t-62.5 -9t-32.5 -3t-47.5 -1q-29 0 -50.5 -2.5t-35.5 -10.5q-39 0 -45 7.5t-6 46.5v14l68 645q2 6 2 16v15q0 221 47 280q25 0 81 10.5t148 26.5q166 1 166 105zM432 1927 q-4 -70 30 -111.5t81 -37.5q23 0 41 11t31.5 27.5t21.5 35t10 32.5q6 18 6 43q0 37 -19.5 72t-60.5 53q-31 12 -55 6t-42.5 -24.5t-30 -47t-13.5 -59.5zM791 1927q-2 -35 6 -63.5t23.5 -49t36 -30.5t44.5 -8q23 0 41.5 11t31.5 27.5t20 35t12 32.5q2 10 3 20.5t1 24.5 q0 35 -18.5 70t-59.5 53q-31 12 -56.5 6t-44 -24.5t-28.5 -46t-12 -58.5z" />
<glyph unicode="&#xd0;" horiz-adv-x="1353" d="M1352 915q0 246 -56 342q-37 59 -72.5 101.5t-68.5 71.5q-41 35 -88 60.5t-98 45.5q-53 16 -102.5 29.5t-98.5 29.5q-25 8 -72 13q-55 6 -73 14q-37 12 -87.5 19.5t-115.5 7.5q-145 0 -146 -95v-34q0 -29 3.5 -65t3.5 -52q0 -29 -2.5 -64.5t-6.5 -83.5q-4 -61 -6 -96 t-4 -51q-4 -53 -6 -92h-186q-16 0 -43 -27q-27 -33 -27 -45q0 -92 51 -142t144 -50h22q-12 -125 -22.5 -215.5t-16.5 -153.5l-16 -135q-6 -55 -6 -62q0 -100 45 -141t145 -41q25 0 53.5 8t59.5 27q27 16 53.5 28.5t54.5 28.5q86 35 143.5 61.5t96.5 49.5q545 298 545 708z M924 934q0 100 -125 115q-4 2 -15 2h-26l-281 -25q4 25 7 49.5t8 48.5q6 39 9 61.5t5 31.5q4 10 5 19t1 13q4 16 5 33.5t3 34.5q4 23 7 37t8 24h16q252 2 385 -71q168 -98 168 -336q0 4 -2 -10.5t-8 -49.5q-8 -37 -13.5 -60.5t-9.5 -33.5q-53 -145 -219 -285 q-139 -115 -313 -184q-61 -25 -84 -24q-39 0 -39 53q0 10 3 44t7 91q4 49 7 84t5 57q4 14 6 24.5t5 18.5q2 16 3 30.5t3 29.5q104 6 187 13t151 13q51 2 55 6q37 8 57 60q15 43 19 86z" />
<glyph unicode="&#xd1;" horiz-adv-x="1312" d="M1270 524q0 -41 -3 -102.5t-7 -138.5q-12 -209 -29 -232q-25 -47 -76 -47q-84 0 -250 139q-72 61 -125 114.5t-88 100.5q-16 23 -35.5 55.5t-48.5 75.5q-18 20 -63 76q-20 35 -51 82t-76 113l8 -8q2 0 0 2q-4 6 -9 14t-14 20q-53 68 -88 68q-10 0 -10 -78v-47v-14 q0 -10 -2 -19v-28v-80v-113l2 -27q2 -28 6 -83l17 -215q8 -49 -17 -91q-25 -49 -67 -49q-29 0 -115 6q-66 39 -80 86q-12 49 0 158q-2 43 -3 86t-1 86q-6 53 -11 122t-9 153q-6 113 -7 139q0 4 7 88l8 184q6 100 6 109v174q0 14 6 43q2 14 3 24.5t1 14.5q14 135 117 135 q92 0 139 -66q16 -23 38 -69.5t54 -130.5q96 -231 170 -340q47 -66 93.5 -133.5t93.5 -135.5q156 -223 188 -223q25 0 27 19q10 31 16 200q10 176 6 211l-47 566q-4 55 22.5 89.5t82.5 34.5q53 0 102 -49q51 -37 68 -92q12 -55 21 -140t13 -208q0 -29 1 -71t3 -101 q2 -12 3.5 -33.5t1.5 -50.5l5 -235zM756 1743q61 0 137 76q80 74 80 133q0 27 -26 47q-23 14 -50 14q-29 0 -57 -28q-4 -6 -14 -18.5t-21.5 -27t-21.5 -23.5t-17 -9q-39 4 -75.5 30.5t-71.5 40.5q-31 14 -57.5 21.5t-55.5 7.5q-25 0 -59.5 -15.5t-68.5 -38t-61.5 -49 t-37.5 -46.5q-12 -29 -12 -54q0 -57 63 -57q39 0 62 20q2 0 12 10.5t22.5 24t26.5 23.5t27 10q14 0 34.5 -4t41 -11t39 -16.5t28.5 -19.5q41 -41 133 -41z" />
<glyph unicode="&#xd2;" horiz-adv-x="1644" d="M1589 950q0 55 -18 127q-10 31 -16.5 60.5t-16.5 62.5q-10 47 -26.5 87t-36.5 75q-37 63 -85.5 114.5t-113.5 92.5q-137 88 -268 88q-16 0 -48 -6t-49 -6q-164 0 -424 -181q-86 -59 -171 -168.5t-179 -283.5q-29 -51 -46 -104.5t-28 -110.5q-10 -53 -14 -89t-4 -53 q-27 -84 18 -237q55 -154 99 -176q16 -23 34.5 -40.5t41.5 -35.5q12 -8 40.5 -23.5t73.5 -38.5q45 -16 75 -29.5t52 -17.5q143 -35 193 -34q190 0 313 47q45 23 78 38t55 27q53 23 95 49.5t77 55.5q139 121 219 321q43 98 61.5 194.5t18.5 194.5zM1333 903q0 -178 -112 -346 q-113 -172 -273 -235q-86 -41 -221 -41q-14 0 -35.5 3t-52.5 7q-178 41 -250 115q-88 88 -88 266q0 68 28.5 141.5t84 159.5t121 151.5t141.5 124.5q156 119 291 119q168 0 270 -151q96 -140 96 -314zM1071 1864q0 86 -119 297l-78 149q-66 104 -126 105q-43 0 -75 -32 t-32 -75q0 -14 4 -30.5t14 -34.5q31 -53 55.5 -92.5t45.5 -65.5l-2 2q6 -14 14 -27.5t14 -25.5q10 -23 15.5 -34t15.5 -34q29 -55 51.5 -92t38.5 -57q31 -35 82 -35q82 0 82 82z" />
<glyph unicode="&#xd3;" horiz-adv-x="1644" d="M1589 950q0 55 -18 127q-10 31 -16.5 60.5t-16.5 62.5q-10 47 -26.5 87t-36.5 75q-37 63 -85.5 114.5t-113.5 92.5q-137 88 -268 88q-16 0 -48 -6t-49 -6q-164 0 -424 -181q-86 -59 -171 -168.5t-179 -283.5q-29 -51 -46 -104.5t-28 -110.5q-10 -53 -14 -89t-4 -53 q-27 -84 18 -237q55 -154 99 -176q16 -23 34.5 -40.5t41.5 -35.5q12 -8 40.5 -23.5t73.5 -38.5q45 -16 75 -29.5t52 -17.5q143 -35 193 -34q190 0 313 47q45 23 78 38t55 27q53 23 95 49.5t77 55.5q139 121 219 321q43 98 61.5 194.5t18.5 194.5zM1333 903q0 -178 -112 -346 q-113 -172 -273 -235q-86 -41 -221 -41q-14 0 -35.5 3t-52.5 7q-178 41 -250 115q-88 88 -88 266q0 68 28.5 141.5t84 159.5t121 151.5t141.5 124.5q156 119 291 119q168 0 270 -151q96 -140 96 -314zM723 1858q0 86 119 296l78 150q63 104 127 104q43 0 74.5 -31.5 t31.5 -74.5q0 -14 -4 -30.5t-14 -35.5q-31 -53 -55.5 -92t-45.5 -65l2 2q-6 -14 -14 -27.5t-14 -25.5q-10 -23 -15.5 -34.5t-15.5 -33.5q-29 -55 -51.5 -92t-38.5 -58q-31 -35 -82 -34q-82 0 -82 82z" />
<glyph unicode="&#xd4;" horiz-adv-x="1644" d="M1589 950q0 -98 -18.5 -194.5t-61.5 -194.5q-80 -201 -219 -321q-35 -29 -77 -55.5t-95 -49.5q-23 -12 -55.5 -27.5t-77.5 -37.5q-119 -47 -313 -47q-53 0 -193 34q-23 4 -52.5 17.5t-74.5 29.5q-90 45 -114 62q-23 18 -41.5 35.5t-34.5 40.5q-43 20 -99 176 q-23 78 -27.5 136t9.5 101q0 16 4 52t14 90q10 57 28 110.5t46 104.5q94 172 179 282.5t171 169.5q131 90 235.5 135.5t188.5 45.5q16 0 48 6t49 6q131 0 268 -88q66 -41 114 -92.5t85 -114.5q20 -35 36.5 -75t26.5 -87q10 -33 16.5 -62.5t16.5 -60.5q18 -72 18 -127z M1333 903q0 176 -96 314q-102 152 -270 151q-133 0 -291 -119q-76 -59 -141.5 -125.5t-120.5 -150.5q-55 -86 -84 -160t-29 -141q0 -176 88 -266q74 -76 250 -115q31 -4 52.5 -7t35.5 -3q139 0 221 41q160 63 273 235q112 168 112 346zM1223 1811q51 2 30 35 q-16 31 -34.5 68.5t-38 79.5t-38 85t-32.5 84q-8 27 -19.5 37t-27.5 22q-23 10 -45.5 17.5t-42.5 17.5q-23 8 -41 5t-35 -25q-39 -37 -78 -81t-72.5 -88t-62 -83t-49.5 -68q-23 -29 10 -59q16 -16 35 -28.5t35 -22.5q12 -4 19.5 -7.5t15.5 -3.5q14 2 26 19q37 47 82 103.5 t99 115.5q29 -57 52 -107.5t42 -85.5q27 -31 74 -34q29 -4 51 -2t45 6z" />
<glyph unicode="&#xd5;" horiz-adv-x="1644" d="M1589 950q0 -98 -18.5 -194.5t-61.5 -194.5q-80 -201 -219 -321q-35 -29 -77 -55.5t-95 -49.5q-23 -12 -55.5 -27.5t-77.5 -37.5q-119 -47 -313 -47q-53 0 -193 34q-23 4 -52.5 17.5t-74.5 29.5q-90 45 -114 62q-23 18 -41.5 35.5t-34.5 40.5q-43 20 -99 176 q-23 78 -27.5 136t9.5 101q0 16 4 52t14 90q10 57 28 110.5t46 104.5q94 172 179 282.5t171 169.5q131 90 235.5 135.5t188.5 45.5q16 0 48 6t49 6q131 0 268 -88q66 -41 114 -92.5t85 -114.5q20 -35 36.5 -75t26.5 -87q10 -33 16.5 -62.5t16.5 -60.5q18 -72 18 -127z M1333 903q0 176 -96 314q-102 152 -270 151q-133 0 -291 -119q-76 -59 -141.5 -125.5t-120.5 -150.5q-55 -86 -84 -160t-29 -141q0 -176 88 -266q74 -76 250 -115q31 -4 52.5 -7t35.5 -3q139 0 221 41q160 63 273 235q112 168 112 346zM1073 1765q61 0 137 76q80 74 80 133 q0 27 -26 47q-23 14 -50 14q-29 0 -57 -28q-4 -6 -14 -18.5t-21.5 -27t-21.5 -23.5t-17 -9q-39 4 -75.5 30.5t-71.5 40.5q-31 14 -57.5 21.5t-55.5 7.5q-25 0 -59.5 -15.5t-68.5 -38t-61.5 -49t-37.5 -46.5q-12 -29 -12 -54q0 -57 63 -57q39 0 62 20q2 0 12 10.5t22.5 24 t26.5 23.5t27 10q14 0 34.5 -4t41 -11t39 -16.5t28.5 -19.5q41 -41 133 -41z" />
<glyph unicode="&#xd6;" horiz-adv-x="1644" d="M1589 950q0 55 -18 127q-10 31 -16.5 60.5t-16.5 62.5q-10 47 -26.5 87t-36.5 75q-37 63 -85.5 114.5t-113.5 92.5q-137 88 -268 88q-16 0 -48 -6t-49 -6q-164 0 -424 -181q-86 -59 -171 -168.5t-179 -283.5q-29 -51 -46 -104.5t-28 -110.5q-10 -53 -14 -89t-4 -53 q-27 -84 18 -237q55 -154 99 -176q16 -23 34.5 -40.5t41.5 -35.5q12 -8 40.5 -23.5t73.5 -38.5q45 -16 75 -29.5t52 -17.5q143 -35 193 -34q190 0 313 47q45 23 78 38t55 27q53 23 95 49.5t77 55.5q139 121 219 321q43 98 61.5 194.5t18.5 194.5zM1333 903q0 -178 -112 -346 q-113 -172 -273 -235q-86 -41 -221 -41q-14 0 -35.5 3t-52.5 7q-178 41 -250 115q-88 88 -88 266q0 68 28.5 141.5t84 159.5t121 151.5t141.5 124.5q156 119 291 119q168 0 270 -151q96 -140 96 -314zM666 1933q-4 -70 29.5 -111.5t80.5 -37.5q23 0 41.5 11t31.5 27.5 t21.5 35t10.5 32.5q6 18 6 43q0 37 -19.5 72t-60.5 53q-31 12 -55.5 6t-43 -24.5t-29.5 -47t-13 -59.5zM1024 1933q-2 -35 6 -63.5t23.5 -49t36 -30.5t45.5 -8q23 0 41 11t31.5 27.5t20.5 35t11 32.5q2 10 3 20.5t1 24.5q0 35 -18.5 70t-59.5 53q-31 12 -56.5 6t-43.5 -24.5 t-28.5 -46t-12.5 -58.5z" />
<glyph unicode="&#xd7;" horiz-adv-x="909" d="M836 475q61 61 16 133q-33 45 -58.5 77t-43.5 54q-27 33 -42.5 52.5t-13.5 25.5q-2 33 31 72q18 16 47 35.5t45 36.5q49 47 52 91t-33 85q-55 57 -136 8q-10 -4 -16 -8t-13 -10.5t-20.5 -18.5t-34.5 -31q-35 -25 -54 -42t-40 -34q-43 -27 -137 68q-37 37 -64.5 61.5 t-44.5 34.5q-76 47 -131 -10q-16 -12 -26 -31.5t-15 -38.5q-18 -66 56 -137q6 -10 24.5 -25.5t32.5 -27.5q45 -49 8 -84q-6 -6 -21.5 -23.5t-30.5 -37t-29.5 -36t-20.5 -22.5q-115 -111 -37 -196q37 -31 66 -31q23 0 100 43q59 33 96 59q29 18 42 30.5t40 16.5 q70 10 109 -32l114 -119q18 -18 42 -25.5t55 -7.5q43 6 86 45z" />
<glyph unicode="&#xd8;" horiz-adv-x="1644" d="M1309 1630q0 72 -27 116t-74 44q-41 0 -59 -25q-37 -55 -49 -94l-10 -22q-23 4 -42.5 6t-39.5 2q-16 0 -48 -6t-49 -6q-164 0 -424 -181q-86 -59 -171 -168.5t-179 -283.5q-29 -51 -46 -104.5t-28 -110.5q-10 -53 -14 -89t-4 -53q-27 -84 18 -237q55 -154 99 -176 q16 -23 34.5 -40.5t41.5 -35.5q12 -8 40.5 -23.5t73.5 -38.5l17.5 -7t15.5 -7q-6 -29 -6 -41q0 -53 45 -117q43 -72 80 -71q27 0 45 37q8 31 16 45q10 23 18.5 44t16.5 44q23 -4 41 -6t31 -2q190 0 313 47q45 23 78 38t55 27q53 23 95 49.5t77 55.5q139 121 219 321 q43 98 61.5 194.5t18.5 194.5q0 55 -18 127q-10 31 -16.5 60.5t-16.5 62.5q-10 47 -26.5 87t-36.5 75q-35 57 -77 105.5t-102 86.5q13 31 13 76zM1333 903q0 -178 -112 -346q-113 -172 -273 -235q-86 -41 -221 -41h-22q10 20 17 37.5t15 33.5q20 53 32.5 93t23.5 69 q35 80 77.5 171t94.5 202q47 90 91 176t91 178q6 12 12 25.5t12 25.5q16 -16 33 -34.5t33 -40.5q96 -140 96 -314zM389 406q-88 88 -88 266q0 68 28.5 141.5t84 159.5t121 151.5t141.5 124.5q145 113 276 119q-53 -100 -108.5 -213t-116.5 -250q-4 -14 -59.5 -142 t-161.5 -376q-4 -12 -10.5 -24.5t-10.5 -22.5q-61 27 -96 66z" />
<glyph unicode="&#xd9;" horiz-adv-x="1439" d="M1389 1409q0 166 -113 166q-162 0 -162 -174v-27v-12v-10q0 -10 -3 -40t-11 -81q-2 -23 -9.5 -110t-17.5 -247q-10 -111 -22.5 -197.5t-28.5 -154.5q-12 -59 -61 -90q-33 -14 -53.5 -22.5t-37.5 -14.5q-166 -61 -284.5 -93t-190.5 -32q-102 0 -102 131q0 74 7 163t22 194 q16 88 30.5 173t30.5 177l12 54t25 91q12 45 19 80t7 64q0 68 -51 106q-51 47 -110 47q-45 0 -68 -41q-16 -45 -24.5 -82.5t-16.5 -66.5q-33 -160 -58.5 -310.5t-49.5 -304.5q-20 -135 -30.5 -228t-10.5 -157q0 -94 18 -167q23 -78 74 -115q109 -78 301 -78q49 0 137 19.5 t219 56.5l30 10t89 33q49 14 75.5 21t33.5 7q55 -49 104 -110q109 -47 133 -17q43 18 43 89q0 10 -1 23t-5 42q-10 41 -10 62q0 6 7 57t19 156q16 141 34 310t34 374q4 55 7 100t7 78q13 86 13 98zM975 1745q0 86 -119 297l-78 149q-66 104 -127 105q-43 0 -74.5 -32 t-31.5 -75q0 -14 4 -30.5t14 -34.5q31 -53 55.5 -92t45.5 -66l-2 2q6 -14 14 -27.5t14 -25.5q10 -23 15.5 -34t15.5 -34q29 -55 51.5 -92t38.5 -57q31 -35 82 -35q82 0 82 82z" />
<glyph unicode="&#xda;" horiz-adv-x="1439" d="M1389 1409q0 166 -113 166q-162 0 -162 -174v-27v-12v-10q0 -10 -3 -40t-11 -81q-2 -23 -9.5 -110t-17.5 -247q-10 -111 -22.5 -197.5t-28.5 -154.5q-12 -59 -61 -90q-33 -14 -53.5 -22.5t-37.5 -14.5q-166 -61 -284.5 -93t-190.5 -32q-102 0 -102 131q0 74 7 163t22 194 q16 88 30.5 173t30.5 177l12 54t25 91q12 45 19 80t7 64q0 68 -51 106q-51 47 -110 47q-45 0 -68 -41q-16 -45 -24.5 -82.5t-16.5 -66.5q-33 -160 -58.5 -310.5t-49.5 -304.5q-20 -135 -30.5 -228t-10.5 -157q0 -94 18 -167q23 -78 74 -115q109 -78 301 -78q49 0 137 19.5 t219 56.5l30 10t89 33q49 14 75.5 21t33.5 7q55 -49 104 -110q109 -47 133 -17q43 18 43 89q0 10 -1 23t-5 42q-10 41 -10 62q0 6 7 57t19 156q16 141 34 310t34 374q4 55 7 100t7 78q13 86 13 98zM662 1745q0 86 118 297l78 149q63 104 127 105q43 0 75 -32t32 -75 q0 -14 -4.5 -30.5t-14.5 -34.5q-31 -53 -55.5 -92t-44.5 -66l2 2q-6 -14 -14.5 -27.5t-14.5 -25.5q-10 -23 -15 -34t-16 -34q-29 -55 -51 -92t-39 -57q-31 -35 -82 -35q-81 0 -81 82z" />
<glyph unicode="&#xdb;" horiz-adv-x="1439" d="M1389 1409q0 166 -113 166q-162 0 -162 -174v-27v-12v-10q0 -10 -3 -40t-11 -81q-2 -23 -9.5 -110t-17.5 -247q-10 -111 -22.5 -197.5t-28.5 -154.5q-12 -59 -61 -90q-33 -14 -53.5 -22.5t-37.5 -14.5q-166 -61 -284.5 -93t-190.5 -32q-102 0 -102 131q0 74 7 163t22 194 q16 88 30.5 173t30.5 177l12 54t25 91q12 45 19 80t7 64q0 68 -51 106q-51 47 -110 47q-45 0 -68 -41q-16 -45 -24.5 -82.5t-16.5 -66.5q-33 -160 -58.5 -310.5t-49.5 -304.5q-20 -135 -30.5 -228t-10.5 -157q0 -94 18 -167q23 -78 74 -115q109 -78 301 -78q49 0 137 19.5 t219 56.5l30 10t89 33q49 14 75.5 21t33.5 7q55 -49 104 -110q109 -47 133 -17q43 18 43 89q0 10 -1 23t-5 42q-10 41 -10 62q0 6 7 57t19 156q16 141 34 310t34 374q4 55 7 100t7 78q13 86 13 98zM1096 1702q51 2 30 35q-16 31 -34.5 68.5t-38 79.5t-38 85t-32.5 84 q-8 27 -19.5 37t-27.5 23q-23 10 -45.5 17t-42.5 17q-23 8 -41.5 5t-34.5 -25q-39 -37 -78 -81t-72.5 -88t-62.5 -83t-49 -68q-23 -29 10 -59q16 -16 34.5 -28.5t35.5 -22.5q12 -4 19 -7t16 -3q14 2 26 18q37 47 82 103.5t98 115.5q29 -57 52.5 -107.5t42.5 -84.5 q27 -31 73 -35q29 -4 51.5 -2t45.5 6z" />
<glyph unicode="&#xdc;" horiz-adv-x="1439" d="M1389 1409q0 166 -113 166q-162 0 -162 -174v-27v-12v-10q0 -10 -3 -40t-11 -81q-2 -23 -9.5 -110t-17.5 -247q-10 -111 -22.5 -197.5t-28.5 -154.5q-12 -59 -61 -90q-33 -14 -53.5 -22.5t-37.5 -14.5q-166 -61 -284.5 -93t-190.5 -32q-102 0 -102 131q0 74 7 163t22 194 q16 88 30.5 173t30.5 177l12 54t25 91q12 45 19 80t7 64q0 68 -51 106q-51 47 -110 47q-45 0 -68 -41q-16 -45 -24.5 -82.5t-16.5 -66.5q-33 -160 -58.5 -310.5t-49.5 -304.5q-20 -135 -30.5 -228t-10.5 -157q0 -94 18 -167q23 -78 74 -115q109 -78 301 -78q49 0 137 19.5 t219 56.5l30 10t89 33q49 14 75.5 21t33.5 7q55 -49 104 -110q109 -47 133 -17q43 18 43 89q0 10 -1 23t-5 42q-10 41 -10 62q0 6 7 57t19 156q16 141 34 310t34 374q4 55 7 100t7 78q13 86 13 98zM500 1876q-4 -70 29.5 -112t80.5 -38q23 0 41.5 11.5t31.5 28t21.5 35 t10.5 32.5q6 18 6 43q0 37 -19.5 71.5t-60.5 53.5q-31 12 -55.5 6t-43 -24.5t-29.5 -47t-13 -59.5zM858 1876q-2 -35 6 -63.5t23.5 -49t36 -31t45.5 -8.5q23 0 41 11.5t31.5 28t20.5 35t11 32.5q2 10 3 20.5t1 24.5q0 35 -18.5 69.5t-59.5 53.5q-31 12 -56 6t-43.5 -24.5 t-29 -46t-12.5 -58.5z" />
<glyph unicode="&#xdd;" horiz-adv-x="1378" d="M1372 1518q0 123 -112 122q-66 0 -222 -153q-53 -51 -102 -105.5t-96 -111.5q-27 -35 -50.5 -67t-46.5 -66q-80 -104 -102 -105q-33 0 -123 90q-35 37 -60.5 66t-45.5 55q-25 41 -40.5 69.5t-25.5 49.5q-16 27 -25.5 46t-17.5 32l-55 133q-39 76 -111 76q-55 0 -84.5 -41 t-29.5 -99q0 -53 55 -176q39 -96 86 -172q49 -82 110.5 -151.5t139.5 -128.5q16 -16 33.5 -27.5t33.5 -24.5q43 -41 43 -69v-8l-131 -578v-6q0 -59 35 -105q47 -53 96 -53q29 0 51 17q25 18 66 133q16 51 26.5 89t14.5 64q20 94 37.5 156.5t28.5 95.5q4 10 12 39t24 80 q10 37 20.5 65.5t20.5 51.5q117 246 469 585q59 59 60 64q18 21 18 68zM544 1857q0 86 119 297l78 150q63 104 127 104q43 0 74.5 -31.5t31.5 -74.5q0 -14 -4 -30.5t-14 -35.5q-31 -53 -55.5 -92t-44.5 -65l2 2q-6 -14 -14.5 -27.5t-14.5 -26.5q-10 -23 -15 -34t-16 -33 q-29 -55 -51 -92t-39 -58q-31 -35 -82 -34q-82 -1 -82 81z" />
<glyph unicode="&#xde;" horiz-adv-x="1150" d="M752 334q98 51 176 106.5t133 118t84 133t29 154.5q-10 127 -64.5 211t-171.5 149q-37 18 -86 37t-107.5 34t-121 27.5t-123.5 20.5q10 43 20 97.5t21 105.5q0 33 -12.5 62.5t-34 52t-49 36t-58.5 13.5h-29q-8 10 1.5 14t0.5 4q-39 0 -76.5 -108.5t-78.5 -315.5t-88 -508 t-103 -686q6 -43 31 -69l2 -5h-4q2 0 14 -8l117 -57h25q14 25 22 38t13.5 25.5t8.5 27.5t7 42q0 8 18 111h49q74 12 134.5 25.5t112.5 29.5t97.5 36.5t90.5 45.5zM360 428l-6 4l-22 27l-2 6q6 45 20.5 128t29.5 172t28.5 166t21.5 109q20 55 49 56q39 0 90.5 -5.5 t103.5 -16.5t102 -28.5t87 -44.5q0 -8 6 -8q2 -2 9 -2q63 -72 63 -137q0 -59 -42 -112.5t-112.5 -103.5t-164 -98t-195.5 -94z" />
<glyph unicode="&#xdf;" horiz-adv-x="2547" d="M483 14q199 0 445 172q246 174 309 357q10 25 13 62.5t3 88.5q0 244 -133 330q-102 68 -360 68q-57 0 -170 -13q-55 -4 -97 -7t-71 -3q-84 0 -84 45q0 51 131 137q94 59 184 95q35 16 67 26t64 27q41 16 73 22t61 6q35 0 71 -57q20 -61 68 -49q41 14 51 14q27 0 44 23.5 t17 54.5q0 59 -86 143q-82 80 -149 93q-10 0 -19.5 1t-21.5 1h-37q-111 -2 -209 -35q-57 -20 -192 -86q-39 -23 -69 -36t-46 -24q-45 -33 -77 -57t-54 -41q-41 -29 -74 -58.5t-61 -64.5q-72 -96 -72 -162t43 -135q51 -86 176 -121q74 -18 217 -18q20 0 65.5 1t94.5 2t93 2 t65 1q80 0 151 -22q92 -35 92 -105q0 -131 -268 -313q-33 -20 -52.5 -32.5t-25.5 -16.5q-70 -35 -170 -35q-23 0 -90 20q-70 23 -86 33q-16 16 -35.5 28.5t-38.5 29.5q-41 31 -83 30q-43 0 -78 -32.5t-35 -75.5q0 -127 164 -226q145 -88 282 -88zM1722 12q199 0 445 172 q246 174 309 357q10 25 13 62.5t3 88.5q0 244 -133 330q-102 68 -360 68q-57 0 -170 -13q-55 -4 -97 -7t-71 -3q-84 0 -84 45q0 51 131 137q94 59 184 94q35 16 67 26.5t64 27.5q41 16 73 22t61 6q35 0 71 -57q20 -61 68 -49q41 14 51 14q27 0 44 23.5t17 54.5q0 59 -86 143 q-82 80 -149 93q-10 0 -19.5 1t-21.5 1h-37q-111 -2 -209 -35q-57 -20 -192 -86q-39 -23 -69 -36t-46 -24q-45 -33 -77 -57.5t-54 -40.5q-41 -29 -74 -58.5t-61 -64.5q-72 -96 -72 -162t43 -135q51 -86 176 -121q74 -18 217 -18q20 0 65.5 1t94.5 2t93 2t65 1q80 0 151 -22 q92 -35 92 -105q0 -131 -268 -313q-33 -20 -52.5 -32.5t-25.5 -16.5q-70 -35 -170 -35q-23 0 -90 20q-70 23 -86 33q-16 16 -35.5 28.5t-37.5 28.5q-41 31 -84 31t-78 -32.5t-35 -75.5q0 -127 164 -226q145 -88 282 -88z" />
<glyph unicode="&#xe0;" d="M1188 92q0 66 -21 139q-10 35 -20 68t-20.5 65.5t-18.5 73.5t-16.5 77t-12.5 58.5t-4 16.5q0 12 8 20q12 16 23.5 27.5l28.5 28.5q16 29 16 77q0 16 -2 19q-16 43 -72 59q-59 25 -73 51q-16 45 -37 136l-101 383q-18 72 -28.5 110.5t-14.5 48.5q-41 84 -121 84 q-18 0 -49 -12q-29 -8 -39 -25q-18 -31 -30.5 -54t-22.5 -40q-94 -160 -149 -309q-39 -104 -75 -192.5t-69 -161.5q-45 -106 -80.5 -199.5t-60.5 -175.5q-16 -45 -31.5 -88t-32.5 -88q-47 -117 -47 -168t39 -78q33 -27 82 -27q53 0 74 33q16 29 24.5 50.5t12.5 37.5l65 182 q10 35 19.5 56.5t13.5 30.5q16 37 68 59q12 4 34.5 8t57.5 14q39 14 77 26.5t76 25.5q45 14 85 22t75 10q8 -18 19 -28q12 -35 18 -59.5t10 -43.5q20 -78 32.5 -137t23.5 -100q29 -121 32 -133q25 -66 142 -66q92 0 92 88zM754 815q-16 -23 -84 -41l-99 -22h-69q-8 18 -8 32 q0 10 71 213q53 141 86 181q18 -4 25 -13q8 -8 41 -166q16 -74 24.5 -121t12.5 -63zM854 1833q0 86 -119 297l-78 149q-66 104 -127 105q-43 0 -74.5 -32t-31.5 -75q0 -14 4 -30.5t14 -34.5q31 -53 55.5 -92t45.5 -66l-2 2q6 -14 14 -27.5t14 -25.5q10 -23 15.5 -34 t15.5 -34q29 -55 51.5 -92t38.5 -57q31 -35 82 -35q82 0 82 82z" />
<glyph unicode="&#xe1;" d="M1188 92q0 66 -21 139q-10 35 -20 68t-20.5 65.5t-18.5 73.5t-16.5 77t-12.5 58.5t-4 16.5q0 12 8 20q12 16 23.5 27.5l28.5 28.5q16 29 16 77q0 16 -2 19q-16 43 -72 59q-59 25 -73 51q-16 45 -37 136l-101 383q-18 72 -28.5 110.5t-14.5 48.5q-41 84 -121 84 q-18 0 -49 -12q-29 -8 -39 -25q-18 -31 -30.5 -54t-22.5 -40q-94 -160 -149 -309q-39 -104 -75 -192.5t-69 -161.5q-45 -106 -80.5 -199.5t-60.5 -175.5q-16 -45 -31.5 -88t-32.5 -88q-47 -117 -47 -168t39 -78q33 -27 82 -27q53 0 74 33q16 29 24.5 50.5t12.5 37.5l65 182 q10 35 19.5 56.5t13.5 30.5q16 37 68 59q12 4 34.5 8t57.5 14q39 14 77 26.5t76 25.5q45 14 85 22t75 10q8 -18 19 -28q12 -35 18 -59.5t10 -43.5q20 -78 32.5 -137t23.5 -100q29 -121 32 -133q25 -66 142 -66q92 0 92 88zM754 815q-16 -23 -84 -41l-99 -22h-69q-8 18 -8 32 q0 10 71 213q53 141 86 181q18 -4 25 -13q8 -8 41 -166q16 -74 24.5 -121t12.5 -63zM543 1845q0 86 119 297l77 150q63 104 127 104q43 0 75 -31.5t32 -74.5q0 -14 -4 -30.5t-15 -35.5q-31 -53 -55.5 -92t-44.5 -66l2 2q-6 -14 -14 -27t-15 -26q-10 -23 -15 -34l-15 -33 q-29 -55 -51.5 -92t-38.5 -58q-31 -35 -82 -35q-82 0 -82 82z" />
<glyph unicode="&#xe2;" d="M1188 92q0 66 -21 139q-10 35 -20 68t-20.5 65.5t-18.5 73.5t-16.5 77t-12.5 58.5t-4 16.5q0 12 8 20q12 16 23.5 27.5l28.5 28.5q16 29 16 77q0 16 -2 19q-16 43 -72 59q-59 25 -73 51q-16 45 -37 136l-101 383q-18 72 -28.5 110.5t-14.5 48.5q-41 84 -121 84 q-18 0 -49 -12q-29 -8 -39 -25q-18 -31 -30.5 -54t-22.5 -40q-94 -160 -149 -309q-39 -104 -75 -192.5t-69 -161.5q-45 -106 -80.5 -199.5t-60.5 -175.5q-16 -45 -31.5 -88t-32.5 -88q-47 -117 -47 -168t39 -78q33 -27 82 -27q53 0 74 33q16 29 24.5 50.5t12.5 37.5l65 182 q10 35 19.5 56.5t13.5 30.5q16 37 68 59q12 4 34.5 8t57.5 14q39 14 77 26.5t76 25.5q45 14 85 22t75 10q8 -18 19 -28q12 -35 18 -59.5t10 -43.5q20 -78 32.5 -137t23.5 -100q29 -121 32 -133q25 -66 142 -66q92 0 92 88zM754 815q-16 -23 -84 -41l-99 -22h-69q-8 18 -8 32 q0 10 71 213q53 141 86 181q18 -4 25 -13q8 -8 41 -166q16 -74 24.5 -121t12.5 -63zM961 1774q51 2 30 34q-16 31 -34.5 69t-38 80t-38 85t-32.5 84q-8 27 -19.5 37t-27.5 22q-23 10 -45.5 17.5t-42.5 17.5q-23 8 -41.5 5t-34.5 -25q-39 -37 -78 -81t-72.5 -88t-62.5 -83 t-49 -68q-23 -29 10 -59q16 -16 34.5 -28.5t35.5 -23.5q12 -4 19 -7t15 -3q14 2 27 19q37 47 82 103t98 116q29 -57 52.5 -107.5t42.5 -85.5q27 -31 73 -35q29 -4 51.5 -1.5t45.5 6.5z" />
<glyph unicode="&#xe3;" d="M1188 92q0 66 -21 139q-10 35 -20 68t-20.5 65.5t-18.5 73.5t-16.5 77t-12.5 58.5t-4 16.5q0 12 8 20q12 16 23.5 27.5l28.5 28.5q16 29 16 77q0 16 -2 19q-16 43 -72 59q-59 25 -73 51q-16 45 -37 136l-101 383q-18 72 -28.5 110.5t-14.5 48.5q-41 84 -121 84 q-18 0 -49 -12q-29 -8 -39 -25q-18 -31 -30.5 -54t-22.5 -40q-94 -160 -149 -309q-39 -104 -75 -192.5t-69 -161.5q-45 -106 -80.5 -199.5t-60.5 -175.5q-16 -45 -31.5 -88t-32.5 -88q-47 -117 -47 -168t39 -78q33 -27 82 -27q53 0 74 33q16 29 24.5 50.5t12.5 37.5l65 182 q10 35 19.5 56.5t13.5 30.5q16 37 68 59q12 4 34.5 8t57.5 14q39 14 77 26.5t76 25.5q45 14 85 22t75 10q8 -18 19 -28q12 -35 18 -59.5t10 -43.5q20 -78 32.5 -137t23.5 -100q29 -121 32 -133q25 -66 142 -66q92 0 92 88zM754 815q-16 -23 -84 -41l-99 -22h-69q-8 18 -8 32 q0 10 71 213q53 141 86 181q18 -4 25 -13q8 -8 41 -166q16 -74 24.5 -121t12.5 -63zM817 1772q61 0 137 75q80 74 80 133q0 27 -26 48q-23 14 -50 14q-29 0 -57 -29q-4 -6 -14 -18.5t-21.5 -26.5t-21.5 -23.5t-17 -9.5q-39 4 -75.5 31t-71.5 41q-31 14 -57.5 21.5t-55.5 7.5 q-25 0 -59.5 -15.5t-68 -38t-61.5 -49t-38 -47.5q-12 -29 -12 -53q0 -57 63 -57q39 0 62 20q2 0 12 10.5t22.5 23.5t26.5 23.5t27 10.5q14 0 34.5 -4.5t41 -11.5t39 -16t28.5 -20q41 -40 133 -40z" />
<glyph unicode="&#xe4;" d="M1188 92q0 66 -21 139q-10 35 -20 68t-20.5 65.5t-18.5 73.5t-16.5 77t-12.5 58.5t-4 16.5q0 12 8 20q12 16 23.5 27.5l28.5 28.5q16 29 16 77q0 16 -2 19q-16 43 -72 59q-59 25 -73 51q-16 45 -37 136l-101 383q-18 72 -28.5 110.5t-14.5 48.5q-41 84 -121 84 q-18 0 -49 -12q-29 -8 -39 -25q-18 -31 -30.5 -54t-22.5 -40q-94 -160 -149 -309q-39 -104 -75 -192.5t-69 -161.5q-45 -106 -80.5 -199.5t-60.5 -175.5q-16 -45 -31.5 -88t-32.5 -88q-47 -117 -47 -168t39 -78q33 -27 82 -27q53 0 74 33q16 29 24.5 50.5t12.5 37.5l65 182 q10 35 19.5 56.5t13.5 30.5q16 37 68 59q12 4 34.5 8t57.5 14q39 14 77 26.5t76 25.5q45 14 85 22t75 10q8 -18 19 -28q12 -35 18 -59.5t10 -43.5q20 -78 32.5 -137t23.5 -100q29 -121 32 -133q25 -66 142 -66q92 0 92 88zM754 815q-16 -23 -84 -41l-99 -22h-69q-8 18 -8 32 q0 10 71 213q53 141 86 181q18 -4 25 -13q8 -8 41 -166q16 -74 24.5 -121t12.5 -63zM399 1898q-4 -70 30 -111.5t81 -37.5q23 0 41 11.5t31.5 27.5t21.5 34.5t10 32.5q6 18 7 43q0 37 -19.5 72t-60.5 53q-31 12 -55.5 6t-43 -24t-30 -47t-13.5 -60zM758 1898q-2 -35 6 -63.5 t23.5 -49t36 -30.5t44.5 -8q23 0 41.5 11t31.5 27.5t20.5 35t11.5 32.5q2 10 3 20.5t1 24.5q0 35 -18.5 70t-59.5 53q-31 12 -56.5 6t-44 -24t-28.5 -46t-12 -59z" />
<glyph unicode="&#xe5;" d="M1188 92q0 -88 -92 -88q-117 0 -142 66q-6 14 -32 133q-10 41 -22.5 100t-33.5 137q-4 18 -10 43t-18 60q-4 4 -9.5 11t-9.5 17q-72 -4 -160 -32q-39 -12 -76.5 -24.5t-76.5 -27.5q-35 -10 -57.5 -14t-34.5 -8q-49 -20 -68 -59q-10 -16 -33 -87l-65 -182 q-4 -16 -12.5 -37.5t-24.5 -50.5q-20 -33 -74 -33q-49 0 -82 27q-39 27 -39 78q0 53 47 168q16 45 32 88t32 88q25 82 60.5 175t80.5 200q33 74 69 162t75 192q55 147 149 309q10 16 22.5 40t30.5 54q8 14 39 25q31 12 49 12q82 0 121 -84q4 -10 14.5 -49t28.5 -110 l101 -383q10 -45 19 -79t18 -57q16 -27 73 -51q53 -14 72 -59q2 -4 2 -19q0 -51 -16 -77l-27.5 -27.5t-24.5 -28.5q-8 -8 -8 -20q0 2 3 -16.5t13.5 -57.5t17.5 -77t17 -74q10 -33 20.5 -66t20.5 -68q21 -76 21 -139zM754 815q-4 16 -12.5 63.5t-24.5 120.5q-35 160 -41 166 q-6 8 -25 13q-35 -41 -86 -181q-72 -199 -71 -213q0 -10 8 -32h69l99 22q68 18 84 41zM877 2177q-51 27 -127 37q-29 4 -60.5 -3t-54.5 -22q-53 -35 -89 -85t-53 -105t-15 -109.5t26 -95.5q10 -18 28.5 -32.5t37.5 -22.5q25 -12 54.5 -17.5t57.5 -7.5q82 -8 138 29 q41 33 68.5 79t41 95t15.5 97t-9 89q-8 23 -20 40.5t-39 33.5zM773 2126q14 -4 20 -22.5t7 -46t-4 -58.5t-13 -57q-20 -70 -55 -114t-66 -34q-16 4 -24.5 22.5t-9.5 44t4 56.5t15.5 57.5t26 55t32.5 51t35 35t32 10.5z" />
<glyph unicode="&#xe6;" horiz-adv-x="2291" d="M2286 209q4 49 -18.5 93t-67.5 63q-47 -6 -94.5 -11.5t-94.5 -3.5q-53 -6 -104.5 -7t-104.5 -5q-98 -16 -189 -37.5t-190 -32.5q-29 -2 -57.5 -3t-60.5 3q-43 10 -59.5 36t-4.5 52q0 78 6 137.5t10 114.5q2 27 5.5 51.5t14.5 43t32.5 28.5t58.5 10q25 4 48.5 9.5 t51.5 9.5q74 12 146 27.5t149 9.5q37 0 77 -1t79 -5q33 -2 65.5 14t34.5 53q10 47 -14.5 84t-67.5 53q-16 4 -31.5 7.5t-31.5 3.5q-68 14 -135.5 15t-136 -5t-136 -16.5t-135.5 -18.5l-14 6q-20 14 -19 45q4 33 5 66q0 33 4 67l24 84q25 0 38 5.5t24 11.5q39 16 75.5 23 t73.5 11q37 8 73 11.5t73 5.5q57 12 109 13t104 1q51 0 102 5t108 28q18 27 17.5 62.5t-16 71.5t-43 65.5t-60.5 46.5q-39 20 -106 10q-27 -8 -53.5 -7t-55.5 -5q-70 -4 -137.5 -14.5t-138.5 -28.5q-80 -18 -160 -31q-16 -4 -29.5 -8t-28.5 -8v30q-12 84 -90 84 q-55 -14 -94 -41.5t-92 -89.5q-72 -84 -134.5 -159.5t-115.5 -149.5q-72 -104 -136.5 -192.5t-121.5 -161.5q-78 -106 -144.5 -199.5t-117.5 -175.5q-31 -45 -60.5 -88t-60.5 -88q-84 -115 -102 -168q-14 -51 14 -78q25 -27 74 -27q51 0 84 33q29 29 42 50.5t23 37.5 l125 182q23 35 38 56.5t24 29.5q29 37 86 60q14 4 36.5 8t61.5 14q84 27 172 52q49 14 91 22t79 10q2 -20 8 -28v-60q12 -51 3 -117.5t-13 -134t12.5 -129t79.5 -98.5q4 -2 18.5 -4t32 -4t33.5 -3t25 -1q49 -4 97 -3t93 11q160 37 317.5 62.5t323.5 21.5q41 0 81 5t81 7 q43 10 76 40t37 75zM995 813q-25 -23 -98 -41l-104 -22h-70q-4 18 0 32q4 8 39 60.5t102 152.5q98 139 144 181q20 -4 22 -13q6 -6 -14 -166q-8 -74 -14.5 -121t-6.5 -63z" />
<glyph unicode="&#xe7;" horiz-adv-x="1298" d="M188 -80q-23 -14 -30.5 -20t-7.5 -29q0 -2 51 -2h121q12 0 52 3t83 0t75.5 -14.5t32.5 -37.5q-51 -49 -117.5 -62.5t-129 -15.5t-112.5 -7t-71 -42q-8 -16 4.5 -28.5t39 -21t62 -13.5t72.5 -5q66 0 140.5 11.5t137 35t103.5 56t41 75.5q-4 39 -15 71t-38 54.5t-70 34.5 t-108 12l49 41q31 4 76 14.5t104 26.5q41 16 72 30.5t53 31.5q430 223 430 375q0 51 -30.5 80.5t-81.5 29.5t-109 -41q-47 -37 -93 -74.5t-100 -72.5q-72 -45 -120.5 -74t-75.5 -39q-115 -59 -215 -59q-109 0 -166 67q-51 63 -51 174q0 100 51 205q2 2 27.5 49t78.5 140 q94 174 207 307q158 188 283 188q49 0 68 -57q4 -29 11 -55.5t13 -55.5q20 -57 70 -57q90 0 90 168q0 145 -35 221q-53 102 -184 102q-119 0 -219 -67q-23 -14 -50.5 -38t-62.5 -58q-39 -35 -63.5 -60.5t-41.5 -44.5q-104 -125 -171.5 -217t-102.5 -151q-78 -145 -117 -222 q-16 -29 -28.5 -66.5t-24.5 -84.5q-20 -90 -20 -162q0 -141 32 -207q37 -84 140 -164q55 -47 141 -67z" />
<glyph unicode="&#xe8;" horiz-adv-x="1363" d="M1348 231q4 49 -18.5 93.5t-67.5 62.5q-47 -6 -94.5 -11t-94.5 -3q-53 -6 -104 -7t-105 -6q-98 -16 -189 -37.5t-190 -31.5q-29 -2 -57.5 -3t-60.5 3q-43 10 -59.5 35.5t-4.5 52.5q2 4 2 16v15q-2 59 5 120.5t12 122.5q0 33 16 67t57 40q35 4 68 11t67 11q74 12 146 27.5 t149 9.5q37 0 77 -1t79 -5q33 -2 65.5 14.5t34.5 53.5q10 47 -14.5 83.5t-67.5 53.5q-16 4 -31.5 7t-31.5 3q-68 14 -135.5 15t-135 -5t-135 -16t-135.5 -18l-14 6q-20 14 -19 45q-2 10 3.5 21t-0.5 22q0 23 1 45t3 45l4 18l2 19l2 16l6 16l10 15h17q12 0 23 5t22 11 q39 16 75.5 23.5t73.5 11.5q37 8 73 11t73 5q57 12 109 13.5t104 1.5q51 0 102 5t109 27q18 27 17 63t-16.5 71.5t-43 65.5t-60.5 46q-39 20 -106 10q-27 -8 -53.5 -7t-55.5 -5q-70 -4 -137.5 -14t-138.5 -29q-80 -18 -160 -31q-43 -14 -82 -21t-80 -24q-29 2 -60.5 -5 t-56 -22.5t-39 -40t-10.5 -57.5q2 -29 3 -55t1 -55v-109v-145q2 -14 2 -29v-26v-56q0 -55 -6 -106q-6 -59 -13 -119.5t-18 -122.5q-10 -59 -17 -118.5t-13 -118.5q-10 -53 -1 -106.5t35.5 -98.5t70.5 -75t106 -34q49 -4 97 -3t93 11q160 37 317.5 63t323.5 21q41 0 81 5.5 t81 7.5q43 10 76 39.5t37 74.5zM823 1833q0 86 -118 297l-78 149q-66 104 -127 105q-43 0 -75 -32t-32 -75q0 -14 4 -30.5t15 -34.5q31 -53 55.5 -92t44.5 -66l-2 2q6 -14 14 -27.5t15 -25.5q10 -23 15 -34t15 -34q29 -55 51.5 -92t38.5 -57q31 -35 82 -35q82 0 82 82z" />
<glyph unicode="&#xe9;" horiz-adv-x="1363" d="M1348 231q4 49 -18.5 93.5t-67.5 62.5q-47 -6 -94.5 -11t-94.5 -3q-53 -6 -104 -7t-105 -6q-98 -16 -189 -37.5t-190 -31.5q-29 -2 -57.5 -3t-60.5 3q-43 10 -59.5 35.5t-4.5 52.5q2 4 2 16v15q-2 59 5 120.5t12 122.5q0 33 16 67t57 40q35 4 68 11t67 11q74 12 146 27.5 t149 9.5q37 0 77 -1t79 -5q33 -2 65.5 14.5t34.5 53.5q10 47 -14.5 83.5t-67.5 53.5q-16 4 -31.5 7t-31.5 3q-68 14 -135.5 15t-135 -5t-135 -16t-135.5 -18l-14 6q-20 14 -19 45q-2 10 3.5 21t-0.5 22q0 23 1 45t3 45l4 18l2 19l2 16l6 16l10 15h17q12 0 23 5t22 11 q39 16 75.5 23.5t73.5 11.5q37 8 73 11t73 5q57 12 109 13.5t104 1.5q51 0 102 5t109 27q18 27 17 63t-16.5 71.5t-43 65.5t-60.5 46q-39 20 -106 10q-27 -8 -53.5 -7t-55.5 -5q-70 -4 -137.5 -14t-138.5 -29q-80 -18 -160 -31q-43 -14 -82 -21t-80 -24q-29 2 -60.5 -5 t-56 -22.5t-39 -40t-10.5 -57.5q2 -29 3 -55t1 -55v-109v-145q2 -14 2 -29v-26v-56q0 -55 -6 -106q-6 -59 -13 -119.5t-18 -122.5q-10 -59 -17 -118.5t-13 -118.5q-10 -53 -1 -106.5t35.5 -98.5t70.5 -75t106 -34q49 -4 97 -3t93 11q160 37 317.5 63t323.5 21q41 0 81 5.5 t81 7.5q43 10 76 39.5t37 74.5zM532 1837q0 86 119 297l78 150q63 104 127 104q43 0 75 -32t32 -75q0 -14 -4.5 -30.5t-14.5 -34.5q-31 -53 -55.5 -92t-44.5 -66l2 2q-6 -14 -14.5 -27.5t-14.5 -25.5q-10 -23 -15 -34t-16 -34q-29 -55 -51 -92t-39 -57q-31 -35 -82 -35 q-82 0 -82 82z" />
<glyph unicode="&#xea;" horiz-adv-x="1363" d="M1348 231q4 49 -18.5 93.5t-67.5 62.5q-47 -6 -94.5 -11t-94.5 -3q-53 -6 -104 -7t-105 -6q-98 -16 -189 -37.5t-190 -31.5q-29 -2 -57.5 -3t-60.5 3q-43 10 -59.5 35.5t-4.5 52.5q2 4 2 16v15q-2 59 5 120.5t12 122.5q0 33 16 67t57 40q35 4 68 11t67 11q74 12 146 27.5 t149 9.5q37 0 77 -1t79 -5q33 -2 65.5 14.5t34.5 53.5q10 47 -14.5 83.5t-67.5 53.5q-16 4 -31.5 7t-31.5 3q-68 14 -135.5 15t-135 -5t-135 -16t-135.5 -18l-14 6q-20 14 -19 45q-2 10 3.5 21t-0.5 22q0 23 1 45t3 45l4 18l2 19l2 16l6 16l10 15h17q12 0 23 5t22 11 q39 16 75.5 23.5t73.5 11.5q37 8 73 11t73 5q57 12 109 13.5t104 1.5q51 0 102 5t109 27q18 27 17 63t-16.5 71.5t-43 65.5t-60.5 46q-39 20 -106 10q-27 -8 -53.5 -7t-55.5 -5q-70 -4 -137.5 -14t-138.5 -29q-80 -18 -160 -31q-43 -14 -82 -21t-80 -24q-29 2 -60.5 -5 t-56 -22.5t-39 -40t-10.5 -57.5q2 -29 3 -55t1 -55v-109v-145q2 -14 2 -29v-26v-56q0 -55 -6 -106q-6 -59 -13 -119.5t-18 -122.5q-10 -59 -17 -118.5t-13 -118.5q-10 -53 -1 -106.5t35.5 -98.5t70.5 -75t106 -34q49 -4 97 -3t93 11q160 37 317.5 63t323.5 21q41 0 81 5.5 t81 7.5q43 10 76 39.5t37 74.5zM967 1815q51 2 30 34q-16 31 -34.5 69t-38 80t-38 85t-32.5 84q-8 27 -19.5 37t-27.5 22q-23 10 -45.5 17.5t-42.5 17.5q-23 8 -41.5 5t-34.5 -25q-39 -37 -78 -81t-72.5 -88t-62.5 -83t-49 -68q-23 -29 10 -59q16 -16 34.5 -28.5t35.5 -23.5 q12 -4 19 -7t16 -3q14 2 26 19q37 47 82 103t98 116q29 -57 52.5 -107.5t42.5 -85.5q27 -31 73 -35q29 -4 51.5 -1.5t45.5 6.5z" />
<glyph unicode="&#xeb;" horiz-adv-x="1363" d="M1348 231q4 49 -18.5 93.5t-67.5 62.5q-47 -6 -94.5 -11t-94.5 -3q-53 -6 -104 -7t-105 -6q-98 -16 -189 -37.5t-190 -31.5q-29 -2 -57.5 -3t-60.5 3q-43 10 -59.5 35.5t-4.5 52.5q2 4 2 16v15q-2 59 5 120.5t12 122.5q0 33 16 67t57 40q35 4 68 11t67 11q74 12 146 27.5 t149 9.5q37 0 77 -1t79 -5q33 -2 65.5 14.5t34.5 53.5q10 47 -14.5 83.5t-67.5 53.5q-16 4 -31.5 7t-31.5 3q-68 14 -135.5 15t-135 -5t-135 -16t-135.5 -18l-14 6q-20 14 -19 45q-2 10 3.5 21t-0.5 22q0 23 1 45t3 45l4 18l2 19l2 16l6 16l10 15h17q12 0 23 5t22 11 q39 16 75.5 23.5t73.5 11.5q37 8 73 11t73 5q57 12 109 13.5t104 1.5q51 0 102 5t109 27q18 27 17 63t-16.5 71.5t-43 65.5t-60.5 46q-39 20 -106 10q-27 -8 -53.5 -7t-55.5 -5q-70 -4 -137.5 -14t-138.5 -29q-80 -18 -160 -31q-43 -14 -82 -21t-80 -24q-29 2 -60.5 -5 t-56 -22.5t-39 -40t-10.5 -57.5q2 -29 3 -55t1 -55v-109v-145q2 -14 2 -29v-26v-56q0 -55 -6 -106q-6 -59 -13 -119.5t-18 -122.5q-10 -59 -17 -118.5t-13 -118.5q-10 -53 -1 -106.5t35.5 -98.5t70.5 -75t106 -34q49 -4 97 -3t93 11q160 37 317.5 63t323.5 21q41 0 81 5.5 t81 7.5q43 10 76 39.5t37 74.5zM371 1907q-4 -70 29.5 -112t80.5 -38q23 0 41.5 11.5t31.5 27.5t21.5 34.5t10.5 33.5q6 18 6 43q0 37 -19.5 71.5t-60.5 53.5q-31 12 -55.5 6t-43 -24.5t-29.5 -47t-13 -59.5zM729 1907q-2 -35 6 -63.5t23.5 -49t36 -31t45.5 -8.5 q23 0 41 11.5t31.5 27.5t20.5 34.5t11 33.5q2 10 3 20t1 25q0 35 -18.5 69.5t-59.5 53.5q-31 12 -56.5 6t-43.5 -24.5t-28.5 -46t-12.5 -58.5z" />
<glyph unicode="&#xec;" horiz-adv-x="1300" d="M1278 1477q0 -104 -166 -105q-92 -16 -148.5 -26.5t-80.5 -10.5q-47 -57 -47 -280v-15q0 -6 -2 -16l-68 -645v-14q0 -39 6 -46.5t45 -7.5q14 8 35.5 10.5t50.5 2.5q27 0 47.5 1t32.5 3t62.5 9t142.5 19q131 -78 47 -225q-6 0 -74.5 -15.5t-175.5 -27.5 q-29 -2 -190.5 -27.5t-440.5 -70.5q-82 -14 -123 -20.5t-73 -6.5q-16 0 -40 4t-57 10q-66 16 -55 113q0 59 57 86q16 8 43 13.5t68 13.5q16 4 42 9t60 11q43 6 68 10.5t33 6.5q57 12 88 34q35 27 47 103q4 31 6 59.5t6 57.5l45 350q10 98 16.5 186t6.5 164q0 59 6 113 q-53 -4 -82 -6.5t-35 -2.5q-8 0 -15 -1t-17 -3q-25 -4 -62 -10t-84 -12q-29 -4 -45 -6t-20 -2q-174 0 -175 125q0 57 55.5 86.5t166.5 46.5q43 8 88 16t86 14q35 10 84 12.5t98 8.5q27 2 51.5 4t51 6t110.5 10t227 17l133 -11q64 -75 64 -122zM881 1805q0 86 -119 296 l-78 150q-66 104 -127 104q-43 0 -74.5 -31.5t-31.5 -74.5q0 -14 4 -30.5t14 -35.5q31 -53 55.5 -92t44.5 -65l-2 2q6 -14 14.5 -27.5t14.5 -25.5q10 -23 15.5 -34.5t15.5 -33.5q29 -55 51 -92t39 -58q31 -35 82 -34q82 0 82 82z" />
<glyph unicode="&#xed;" horiz-adv-x="1300" d="M1278 1477q0 47 -64 122l-133 11q-143 -10 -227 -16.5t-110.5 -10.5t-51 -6t-51.5 -4q-49 -6 -98 -8t-84 -13q-41 -6 -86 -14t-88 -16q-111 -16 -166.5 -46t-55.5 -87q0 -125 175 -125q4 0 20 2t45 6q47 6 84 12t62 10q10 2 17 3t15 1q6 0 35 2.5t82 6.5q-6 -53 -6 -113 q0 -76 -6 -164t-17 -186l-45 -350q-4 -29 -6 -57.5t-6 -59.5q-12 -74 -47 -103q-33 -23 -88 -34q-8 -2 -33 -6.5t-68 -10.5q-35 -6 -60.5 -11t-41.5 -9q-41 -8 -67.5 -13.5t-43.5 -13.5q-57 -27 -57 -86q-10 -96 55 -113q33 -6 56.5 -10t40.5 -4q33 0 73.5 6t122.5 21 q281 45 441.5 70.5t189.5 27.5q106 12 175 27.5t75 15.5q84 150 -47 225q-92 -12 -142.5 -19t-62.5 -9t-32.5 -3t-47.5 -1q-29 0 -50.5 -2.5t-35.5 -10.5q-39 0 -45 7.5t-6 46.5v14l68 645q2 6 2 16v15q0 221 47 280q25 0 81 10.5t148 26.5q166 1 166 105zM569 1853 q0 86 119 297l78 150q63 104 127 104q43 0 74.5 -31.5t31.5 -74.5q0 -14 -4 -30.5t-14 -35.5q-31 -53 -55.5 -92t-44.5 -65l2 2q-6 -14 -14.5 -27.5t-14.5 -26.5q-10 -23 -15 -34t-16 -33q-29 -55 -51 -92t-39 -58q-31 -35 -82 -34q-82 -1 -82 81z" />
<glyph unicode="&#xee;" horiz-adv-x="1300" d="M1278 1477q0 47 -64 122l-133 11q-143 -10 -227 -16.5t-110.5 -10.5t-51 -6t-51.5 -4q-49 -6 -98 -8t-84 -13q-41 -6 -86 -14t-88 -16q-111 -16 -166.5 -46t-55.5 -87q0 -125 175 -125q4 0 20 2t45 6q47 6 84 12t62 10q10 2 17 3t15 1q6 0 35 2.5t82 6.5q-6 -53 -6 -113 q0 -76 -6 -164t-17 -186l-45 -350q-4 -29 -6 -57.5t-6 -59.5q-12 -74 -47 -103q-33 -23 -88 -34q-8 -2 -33 -6.5t-68 -10.5q-35 -6 -60.5 -11t-41.5 -9q-41 -8 -67.5 -13.5t-43.5 -13.5q-57 -27 -57 -86q-10 -96 55 -113q33 -6 56.5 -10t40.5 -4q33 0 73.5 6t122.5 21 q281 45 441.5 70.5t189.5 27.5q106 12 175 27.5t75 15.5q84 150 -47 225q-92 -12 -142.5 -19t-62.5 -9t-32.5 -3t-47.5 -1q-29 0 -50.5 -2.5t-35.5 -10.5q-39 0 -45 7.5t-6 46.5v14l68 645q2 6 2 16v15q0 221 47 280q25 0 81 10.5t148 26.5q166 1 166 105zM1008 1790 q51 2 30 35q-16 31 -34.5 68.5t-38 79.5t-38 85t-32.5 84q-8 27 -19.5 37t-27.5 23q-23 10 -45.5 17t-42.5 17q-23 8 -41.5 5t-34.5 -25q-39 -37 -78 -81t-72.5 -88t-62.5 -83t-49 -68q-23 -29 10 -59q16 -16 34.5 -28.5t35.5 -22.5q12 -4 19 -7t16 -3q14 2 26 18 q37 47 82 103.5t98 115.5q29 -57 52.5 -107.5t42.5 -84.5q27 -31 73 -35q29 -4 51.5 -2t45.5 6z" />
<glyph unicode="&#xef;" horiz-adv-x="1300" d="M1278 1477q0 47 -64 122l-133 11q-143 -10 -227 -16.5t-110.5 -10.5t-51 -6t-51.5 -4q-49 -6 -98 -8t-84 -13q-41 -6 -86 -14t-88 -16q-111 -16 -166.5 -46t-55.5 -87q0 -125 175 -125q4 0 20 2t45 6q47 6 84 12t62 10q10 2 17 3t15 1q6 0 35 2.5t82 6.5q-6 -53 -6 -113 q0 -76 -6 -164t-17 -186l-45 -350q-4 -29 -6 -57.5t-6 -59.5q-12 -74 -47 -103q-33 -23 -88 -34q-8 -2 -33 -6.5t-68 -10.5q-35 -6 -60.5 -11t-41.5 -9q-41 -8 -67.5 -13.5t-43.5 -13.5q-57 -27 -57 -86q-10 -96 55 -113q33 -6 56.5 -10t40.5 -4q33 0 73.5 6t122.5 21 q281 45 441.5 70.5t189.5 27.5q106 12 175 27.5t75 15.5q84 150 -47 225q-92 -12 -142.5 -19t-62.5 -9t-32.5 -3t-47.5 -1q-29 0 -50.5 -2.5t-35.5 -10.5q-39 0 -45 7.5t-6 46.5v14l68 645q2 6 2 16v15q0 221 47 280q25 0 81 10.5t148 26.5q166 1 166 105zM432 1927 q-4 -70 30 -111.5t81 -37.5q23 0 41 11t31.5 27.5t21.5 35t10 32.5q6 18 6 43q0 37 -19.5 72t-60.5 53q-31 12 -55 6t-42.5 -24.5t-30 -47t-13.5 -59.5zM791 1927q-2 -35 6 -63.5t23.5 -49t36 -30.5t44.5 -8q23 0 41.5 11t31.5 27.5t20 35t12 32.5q2 10 3 20.5t1 24.5 q0 35 -18.5 70t-59.5 53q-31 12 -56.5 6t-44 -24.5t-28.5 -46t-12 -58.5z" />
<glyph unicode="&#xf0;" horiz-adv-x="1353" d="M1352 915q0 246 -56 342q-37 59 -72.5 101.5t-68.5 71.5q-41 35 -88 60.5t-98 45.5q-53 16 -102.5 29.5t-98.5 29.5q-25 8 -72 13q-55 6 -73 14q-37 12 -87.5 19.5t-115.5 7.5q-145 0 -146 -95v-34q0 -29 3.5 -65t3.5 -52q0 -29 -2.5 -64.5t-6.5 -83.5q-4 -61 -6 -96 t-4 -51q-4 -53 -6 -92h-186q-16 0 -43 -27q-27 -33 -27 -45q0 -92 51 -142t144 -50h22q-12 -125 -22.5 -215.5t-16.5 -153.5l-16 -135q-6 -55 -6 -62q0 -100 45 -141t145 -41q25 0 53.5 8t59.5 27q27 16 53.5 28.5t54.5 28.5q86 35 143.5 61.5t96.5 49.5q545 298 545 708z M924 934q0 100 -125 115q-4 2 -15 2h-26l-281 -25q4 25 7 49.5t8 48.5q6 39 9 61.5t5 31.5q4 10 5 19t1 13q4 16 5 33.5t3 34.5q4 23 7 37t8 24h16q252 2 385 -71q168 -98 168 -336q0 4 -2 -10.5t-8 -49.5q-8 -37 -13.5 -60.5t-9.5 -33.5q-53 -145 -219 -285 q-139 -115 -313 -184q-61 -25 -84 -24q-39 0 -39 53q0 10 3 44t7 91q4 49 7 84t5 57q4 14 6 24.5t5 18.5q2 16 3 30.5t3 29.5q104 6 187 13t151 13q51 2 55 6q37 8 57 60q15 43 19 86z" />
<glyph unicode="&#xf1;" horiz-adv-x="1312" d="M1270 524l-2 92q-2 91 -6 281q0 29 -1 50.5t-4 33.5q-2 59 -3 101t-1 71q-4 123 -13 208t-21 140q-16 55 -68 92q-49 49 -102 49q-55 0 -82 -34.5t-23 -89.5l47 -566q4 -35 -6 -211q-6 -166 -16 -200q-4 -18 -27 -19q-33 0 -188 223q-47 68 -93.5 135.5t-93.5 133.5 q-74 109 -170 340q-33 86 -54 132t-38 68q-47 66 -139 66q-102 0 -117 -135q0 -4 -1 -14.5t-3 -24.5q-6 -29 -6 -43v-174q0 -8 -6 -109l-8 -184q-6 -84 -7 -88q0 -27 7 -139q4 -86 9 -154t11 -121q0 -43 1 -86t3 -86q-12 -109 0 -158q14 -47 80 -86q86 -6 115 -6q43 0 67 49 q25 41 17 91l-17 215q-4 55 -6 83l-2 27v113v80v28q2 6 2 19v14v47q0 78 10 78q35 0 88 -68q8 -12 13.5 -20t9.5 -14q2 -2 0 -2l-8 8q45 -66 75.5 -113t51.5 -82q23 -29 38 -47t25 -29q29 -43 48.5 -75.5t35.5 -55.5q68 -92 213 -215q168 -139 250 -139q51 0 76 47 q16 23 29 232q4 78 7 139t3 102zM756 1741q61 0 137 76q80 74 80 133q0 27 -27 47q-23 14 -49 14q-29 0 -57 -29q-4 -6 -14.5 -18t-21.5 -26.5t-21.5 -23.5t-16.5 -9q-39 4 -76 30.5t-72 40.5q-31 14 -57 21.5t-55 7.5q-25 0 -59.5 -15.5t-68.5 -38t-61.5 -49t-37.5 -47.5 q-12 -29 -13 -53q0 -57 64 -57q39 0 61 20q2 0 12.5 10.5t22.5 23.5t26.5 23.5t26.5 10.5q14 0 35 -4t41 -11.5t38.5 -16.5t29.5 -19q41 -41 133 -41z" />
<glyph unicode="&#xf2;" horiz-adv-x="1644" d="M1589 950q0 55 -18 127q-10 31 -16.5 60.5t-16.5 62.5q-10 47 -26.5 87t-36.5 75q-37 63 -85.5 114.5t-113.5 92.5q-137 88 -268 88q-16 0 -48 -6t-49 -6q-164 0 -424 -181q-86 -59 -171 -168.5t-179 -283.5q-29 -51 -46 -104.5t-28 -110.5q-10 -53 -14 -89t-4 -53 q-27 -84 18 -237q55 -154 99 -176q16 -23 34.5 -40.5t41.5 -35.5q12 -8 40.5 -23.5t73.5 -38.5q45 -16 75 -29.5t52 -17.5q143 -35 193 -34q190 0 313 47q45 23 78 38t55 27q53 23 95 49.5t77 55.5q139 121 219 321q43 98 61.5 194.5t18.5 194.5zM1333 903q0 -178 -112 -346 q-113 -172 -273 -235q-86 -41 -221 -41q-14 0 -35.5 3t-52.5 7q-178 41 -250 115q-88 88 -88 266q0 68 28.5 141.5t84 159.5t121 151.5t141.5 124.5q156 119 291 119q168 0 270 -151q96 -140 96 -314zM1071 1864q0 86 -119 297l-78 149q-66 104 -126 105q-43 0 -75 -32 t-32 -75q0 -14 4 -30.5t14 -34.5q31 -53 55.5 -92.5t45.5 -65.5l-2 2q6 -14 14 -27.5t14 -25.5q10 -23 15.5 -34t15.5 -34q29 -55 51.5 -92t38.5 -57q31 -35 82 -35q82 0 82 82z" />
<glyph unicode="&#xf3;" horiz-adv-x="1644" d="M1589 950q0 55 -18 127q-10 31 -16.5 60.5t-16.5 62.5q-10 47 -26.5 87t-36.5 75q-37 63 -85.5 114.5t-113.5 92.5q-137 88 -268 88q-16 0 -48 -6t-49 -6q-164 0 -424 -181q-86 -59 -171 -168.5t-179 -283.5q-29 -51 -46 -104.5t-28 -110.5q-10 -53 -14 -89t-4 -53 q-27 -84 18 -237q55 -154 99 -176q16 -23 34.5 -40.5t41.5 -35.5q12 -8 40.5 -23.5t73.5 -38.5q45 -16 75 -29.5t52 -17.5q143 -35 193 -34q190 0 313 47q45 23 78 38t55 27q53 23 95 49.5t77 55.5q139 121 219 321q43 98 61.5 194.5t18.5 194.5zM1333 903q0 -178 -112 -346 q-113 -172 -273 -235q-86 -41 -221 -41q-14 0 -35.5 3t-52.5 7q-178 41 -250 115q-88 88 -88 266q0 68 28.5 141.5t84 159.5t121 151.5t141.5 124.5q156 119 291 119q168 0 270 -151q96 -140 96 -314zM723 1858q0 86 119 296l78 150q63 104 127 104q43 0 74.5 -31.5 t31.5 -74.5q0 -14 -4 -30.5t-14 -35.5q-31 -53 -55.5 -92t-45.5 -65l2 2q-6 -14 -14 -27.5t-14 -25.5q-10 -23 -15.5 -34.5t-15.5 -33.5q-29 -55 -51.5 -92t-38.5 -58q-31 -35 -82 -34q-82 0 -82 82z" />
<glyph unicode="&#xf4;" horiz-adv-x="1644" d="M1589 950q0 55 -18 127q-10 31 -16.5 60.5t-16.5 62.5q-10 47 -26.5 87t-36.5 75q-37 63 -85.5 114.5t-113.5 92.5q-137 88 -268 88q-16 0 -48 -6t-49 -6q-164 0 -424 -181q-86 -59 -171 -168.5t-179 -283.5q-29 -51 -46 -104.5t-28 -110.5q-10 -53 -14 -89t-4 -53 q-27 -84 18 -237q55 -154 99 -176q16 -23 34.5 -40.5t41.5 -35.5q12 -8 40.5 -23.5t73.5 -38.5q45 -16 75 -29.5t52 -17.5q143 -35 193 -34q190 0 313 47q45 23 78 38t55 27q53 23 95 49.5t77 55.5q139 121 219 321q43 98 61.5 194.5t18.5 194.5zM1333 903q0 -178 -112 -346 q-113 -172 -273 -235q-86 -41 -221 -41q-14 0 -35.5 3t-52.5 7q-178 41 -250 115q-88 88 -88 266q0 68 28.5 141.5t84 159.5t121 151.5t141.5 124.5q156 119 291 119q168 0 270 -151q96 -140 96 -314zM1223 1808q51 2 30 35q-16 31 -34.5 69t-38 80t-38 85t-32.5 84 q-8 27 -19.5 37t-27.5 22q-23 10 -45.5 17.5t-42.5 17.5q-23 8 -41.5 5t-34.5 -26q-39 -37 -78 -81t-72.5 -88t-62.5 -82.5t-49 -67.5q-23 -29 10 -60q16 -16 34.5 -28t35.5 -23q12 -4 19 -7t16 -3q14 2 26 18q37 47 82 103.5t98 116.5q29 -57 52.5 -107.5t42.5 -85.5 q27 -31 73 -35q29 -4 51.5 -2t45.5 6z" />
<glyph unicode="&#xf5;" horiz-adv-x="1644" d="M1589 950q0 55 -18 127q-10 31 -16.5 60.5t-16.5 62.5q-10 47 -26.5 87t-36.5 75q-37 63 -85.5 114.5t-113.5 92.5q-137 88 -268 88q-16 0 -48 -6t-49 -6q-164 0 -424 -181q-86 -59 -171 -168.5t-179 -283.5q-29 -51 -46 -104.5t-28 -110.5q-10 -53 -14 -89t-4 -53 q-27 -84 18 -237q55 -154 99 -176q16 -23 34.5 -40.5t41.5 -35.5q12 -8 40.5 -23.5t73.5 -38.5q45 -16 75 -29.5t52 -17.5q143 -35 193 -34q190 0 313 47q45 23 78 38t55 27q53 23 95 49.5t77 55.5q139 121 219 321q43 98 61.5 194.5t18.5 194.5zM1333 903q0 -178 -112 -346 q-113 -172 -273 -235q-86 -41 -221 -41q-14 0 -35.5 3t-52.5 7q-178 41 -250 115q-88 88 -88 266q0 68 28.5 141.5t84 159.5t121 151.5t141.5 124.5q156 119 291 119q168 0 270 -151q96 -140 96 -314zM1073 1765q61 0 137 76q80 74 80 133q0 27 -26 47q-23 14 -50 15 q-29 0 -57 -29q-4 -6 -14 -18.5t-21.5 -26.5t-21.5 -23.5t-17 -9.5q-39 4 -75.5 31t-71.5 41q-31 14 -57.5 21.5t-55.5 7.5q-25 0 -59.5 -15.5t-68 -38t-61.5 -49t-38 -47.5q-12 -29 -12 -53q0 -57 63 -58q39 0 62 21q2 0 12 10t22.5 23.5t26.5 24t27 10.5q14 0 34.5 -4.5 t41 -11.5t39 -16t28.5 -20q41 -41 133 -41z" />
<glyph unicode="&#xf6;" horiz-adv-x="1644" d="M1589 950q0 55 -18 127q-10 31 -16.5 60.5t-16.5 62.5q-10 47 -26.5 87t-36.5 75q-37 63 -85.5 114.5t-113.5 92.5q-137 88 -268 88q-16 0 -48 -6t-49 -6q-164 0 -424 -181q-86 -59 -171 -168.5t-179 -283.5q-29 -51 -46 -104.5t-28 -110.5q-10 -53 -14 -89t-4 -53 q-27 -84 18 -237q55 -154 99 -176q16 -23 34.5 -40.5t41.5 -35.5q12 -8 40.5 -23.5t73.5 -38.5q45 -16 75 -29.5t52 -17.5q143 -35 193 -34q190 0 313 47q45 23 78 38t55 27q53 23 95 49.5t77 55.5q139 121 219 321q43 98 61.5 194.5t18.5 194.5zM1333 903q0 -178 -112 -346 q-113 -172 -273 -235q-86 -41 -221 -41q-14 0 -35.5 3t-52.5 7q-178 41 -250 115q-88 88 -88 266q0 68 28.5 141.5t84 159.5t121 151.5t141.5 124.5q156 119 291 119q168 0 270 -151q96 -140 96 -314zM666 1933q-4 -70 29.5 -111.5t80.5 -37.5q23 0 41.5 11t31.5 27.5 t21.5 35t10.5 32.5q6 18 6 43q0 37 -19.5 72t-60.5 53q-31 12 -55.5 6t-43 -24.5t-29.5 -47t-13 -59.5zM1024 1933q-2 -35 6 -63.5t23.5 -49t36 -30.5t45.5 -8q23 0 41 11t31.5 27.5t20.5 35t11 32.5q2 10 3 20.5t1 24.5q0 35 -18.5 70t-59.5 53q-31 12 -56.5 6t-43.5 -24.5 t-28.5 -46t-12.5 -58.5z" />
<glyph unicode="&#xf7;" horiz-adv-x="952" d="M918 872q0 125 -152 109l-279 -20q-72 -6 -107 -9l-36 -4h-238q-18 0 -43 -24q-20 -20 -20 -43q0 -86 46 -133.5t134 -47.5h96l24 2q24 3 71 7l192 12h166q72 0 109 39.5t37 111.5zM598 459q0 53 -55 90q-47 35 -103 35q-100 0 -127 -58q-20 -43 -20 -82q0 -66 36 -108.5 t101 -42.5q63 0 115 51q53 54 53 115zM664 1227q0 53 -56 90q-47 35 -102 35q-100 0 -127 -58q-20 -43 -21 -82q0 -66 36 -108.5t102 -42.5q63 0 114 51q54 54 54 115z" />
<glyph unicode="&#xf8;" horiz-adv-x="1644" d="M1309 1630q0 72 -27 116t-74 44q-41 0 -59 -25q-37 -55 -49 -94l-10 -22q-23 4 -42.5 6t-39.5 2q-16 0 -48 -6t-49 -6q-164 0 -424 -181q-86 -59 -171 -168.5t-179 -283.5q-29 -51 -46 -104.5t-28 -110.5q-10 -53 -14 -89t-4 -53q-27 -84 18 -237q55 -154 99 -176 q16 -23 34.5 -40.5t41.5 -35.5q12 -8 40.5 -23.5t73.5 -38.5l17.5 -7t15.5 -7q-6 -29 -6 -41q0 -53 45 -117q43 -72 80 -71q27 0 45 37q8 31 16 45q10 23 18.5 44t16.5 44q23 -4 41 -6t31 -2q190 0 313 47q45 23 78 38t55 27q53 23 95 49.5t77 55.5q139 121 219 321 q43 98 61.5 194.5t18.5 194.5q0 55 -18 127q-10 31 -16.5 60.5t-16.5 62.5q-10 47 -26.5 87t-36.5 75q-35 57 -77 105.5t-102 86.5q13 31 13 76zM1333 903q0 -178 -112 -346q-113 -172 -273 -235q-86 -41 -221 -41h-22q10 20 17 37.5t15 33.5q20 53 32.5 93t23.5 69 q35 80 77.5 171t94.5 202q47 90 91 176t91 178q6 12 12 25.5t12 25.5q16 -16 33 -34.5t33 -40.5q96 -140 96 -314zM389 406q-88 88 -88 266q0 68 28.5 141.5t84 159.5t121 151.5t141.5 124.5q145 113 276 119q-53 -100 -108.5 -213t-116.5 -250q-4 -14 -59.5 -142 t-161.5 -376q-4 -12 -10.5 -24.5t-10.5 -22.5q-61 27 -96 66z" />
<glyph unicode="&#xf9;" horiz-adv-x="1439" d="M1389 1409q0 166 -113 166q-162 0 -162 -174v-27v-12v-10q0 -10 -3 -40t-11 -81q-2 -23 -9.5 -110t-17.5 -247q-10 -111 -22.5 -197.5t-28.5 -154.5q-12 -59 -61 -90q-33 -14 -53.5 -22.5t-37.5 -14.5q-166 -61 -284.5 -93t-190.5 -32q-102 0 -102 131q0 74 7 163t22 194 q16 88 30.5 173t30.5 177l12 54t25 91q12 45 19 80t7 64q0 68 -51 106q-51 47 -110 47q-45 0 -68 -41q-16 -45 -24.5 -82.5t-16.5 -66.5q-33 -160 -58.5 -310.5t-49.5 -304.5q-20 -135 -30.5 -228t-10.5 -157q0 -94 18 -167q23 -78 74 -115q109 -78 301 -78q49 0 137 19.5 t219 56.5l30 10t89 33q49 14 75.5 21t33.5 7q55 -49 104 -110q109 -47 133 -17q43 18 43 89q0 10 -1 23t-5 42q-10 41 -10 62q0 6 7 57t19 156q16 141 34 310t34 374q4 55 7 100t7 78q13 86 13 98zM975 1745q0 86 -119 297l-78 149q-66 104 -127 105q-43 0 -74.5 -32 t-31.5 -75q0 -14 4 -30.5t14 -34.5q31 -53 55.5 -92t45.5 -66l-2 2q6 -14 14 -27.5t14 -25.5q10 -23 15.5 -34t15.5 -34q29 -55 51.5 -92t38.5 -57q31 -35 82 -35q82 0 82 82z" />
<glyph unicode="&#xfa;" horiz-adv-x="1439" d="M1389 1409q0 -12 -13 -98q-4 -33 -7 -78t-7 -100q-16 -205 -33.5 -374t-34.5 -310q-12 -102 -19 -154.5t-7 -58.5q0 -25 10 -62q4 -29 5 -42t1 -23q0 -70 -43 -89q-25 -31 -133 17q-49 61 -104 110q-6 0 -33 -7t-76 -21q-59 -23 -89 -33l-30 -10q-131 -37 -219 -56.5 t-137 -19.5q-195 0 -301 78q-51 37 -74 115q-18 74 -18 167q0 63 10 157.5t31 227.5q25 154 50 305.5t58 309.5q8 29 16.5 66.5t24.5 82.5q20 41 68 41q61 0 110 -47q51 -39 51 -106q0 -29 -7 -64t-19 -80q-16 -55 -24.5 -91t-12.5 -54q-16 -90 -30.5 -176t-30.5 -174 q-14 -104 -21.5 -193.5t-7.5 -163.5q0 -131 102 -131q72 0 191 32t284 93q16 6 37 14.5t54 22.5q49 31 61 90q16 68 28.5 155t22.5 197q10 158 17.5 246t9.5 111q8 51 11 80.5t3 40.5v10v12v27q0 174 162 174q113 0 113 -166zM661 1747q0 86 119 297l78 150q63 104 127 104 q43 0 74.5 -31.5t31.5 -74.5q0 -14 -4 -30.5t-14 -35.5q-31 -53 -55.5 -92t-44.5 -65l2 2q-6 -14 -14.5 -27.5t-14.5 -26.5q-10 -23 -15 -34t-16 -33q-29 -55 -51 -92t-39 -58q-31 -35 -82 -34q-82 -1 -82 81z" />
<glyph unicode="&#xfb;" horiz-adv-x="1439" d="M1389 1409q0 -12 -13 -98q-4 -33 -7 -78t-7 -100q-16 -205 -33.5 -374t-34.5 -310q-12 -102 -19 -154.5t-7 -58.5q0 -25 10 -62q4 -29 5 -42t1 -23q0 -70 -43 -89q-25 -31 -133 17q-49 61 -104 110q-6 0 -33 -7t-76 -21q-59 -23 -89 -33l-30 -10q-131 -37 -219 -56.5 t-137 -19.5q-195 0 -301 78q-51 37 -74 115q-18 74 -18 167q0 63 10 157.5t31 227.5q25 154 50 305.5t58 309.5q8 29 16.5 66.5t24.5 82.5q20 41 68 41q61 0 110 -47q51 -39 51 -106q0 -29 -7 -64t-19 -80q-16 -55 -24.5 -91t-12.5 -54q-16 -90 -30.5 -176t-30.5 -174 q-14 -104 -21.5 -193.5t-7.5 -163.5q0 -131 102 -131q72 0 191 32t284 93q16 6 37 14.5t54 22.5q49 31 61 90q16 68 28.5 155t22.5 197q10 158 17.5 246t9.5 111q8 51 11 80.5t3 40.5v10v12v27q0 174 162 174q113 0 113 -166zM1096 1704q51 2 30 35q-16 31 -34.5 68.5 t-38 79.5t-38 85t-32.5 84q-8 27 -19.5 37t-27.5 22q-23 10 -45.5 17.5t-42.5 17.5q-23 8 -41 5t-35 -25q-39 -37 -78 -81t-72.5 -88t-62 -83t-49.5 -68q-23 -29 10 -59q16 -16 35 -28.5t35 -22.5q12 -4 19.5 -7.5t15.5 -3.5q14 2 26 19q37 47 82 103.5t99 115.5 q29 -57 52 -107.5t42 -85.5q27 -31 74 -34q29 -4 51 -2t45 6z" />
<glyph unicode="&#xfc;" horiz-adv-x="1439" d="M1389 1409q0 -12 -13 -98q-4 -33 -7 -78t-7 -100q-16 -205 -33.5 -374t-34.5 -310q-12 -102 -19 -154.5t-7 -58.5q0 -25 10 -62q4 -29 5 -42t1 -23q0 -70 -43 -89q-25 -31 -133 17q-49 61 -104 110q-6 0 -33 -7t-76 -21q-59 -23 -89 -33l-30 -10q-131 -37 -219 -56.5 t-137 -19.5q-195 0 -301 78q-51 37 -74 115q-18 74 -18 167q0 63 10 157.5t31 227.5q25 154 50 305.5t58 309.5q8 29 16.5 66.5t24.5 82.5q20 41 68 41q61 0 110 -47q51 -39 51 -106q0 -29 -7 -64t-19 -80q-16 -55 -24.5 -91t-12.5 -54q-16 -90 -30.5 -176t-30.5 -174 q-14 -104 -21.5 -193.5t-7.5 -163.5q0 -131 102 -131q72 0 191 32t284 93q16 6 37 14.5t54 22.5q49 31 61 90q16 68 28.5 155t22.5 197q10 158 17.5 246t9.5 111q8 51 11 80.5t3 40.5v10v12v27q0 174 162 174q113 0 113 -166zM500 1878q-4 -70 30 -112t81 -38q23 0 41 11.5 t31.5 28t21.5 34.5t10 33q6 18 6 43q0 37 -19.5 71.5t-60.5 53.5q-31 12 -55 6t-42.5 -24.5t-30 -47t-13.5 -59.5zM859 1878q-2 -35 6 -63.5t23.5 -49t36 -31t44.5 -8.5q23 0 41.5 11.5t31.5 28t20.5 34.5t11.5 33q2 10 3 20t1 25q0 35 -18.5 69.5t-59.5 53.5 q-31 12 -56.5 6t-44 -24.5t-28.5 -46t-12 -58.5z" />
<glyph unicode="&#xfd;" horiz-adv-x="1378" d="M1372 1518q0 123 -112 122q-66 0 -222 -153q-53 -51 -102 -105.5t-96 -111.5q-27 -35 -50.5 -67t-46.5 -66q-80 -104 -102 -105q-33 0 -123 90q-35 37 -60.5 66t-45.5 55q-25 41 -40.5 69.5t-25.5 49.5q-16 27 -25.5 46t-17.5 32l-55 133q-39 76 -111 76q-55 0 -84.5 -41 t-29.5 -99q0 -53 55 -176q39 -96 86 -172q49 -82 110.5 -151.5t139.5 -128.5q16 -16 33.5 -27.5t33.5 -24.5q43 -41 43 -69v-8l-131 -578v-6q0 -59 35 -105q47 -53 96 -53q29 0 51 17q25 18 66 133q16 51 26.5 89t14.5 64q20 94 37.5 156.5t28.5 95.5q4 10 12 39t24 80 q10 37 20.5 65.5t20.5 51.5q117 246 469 585q59 59 60 64q18 21 18 68zM545 1858q0 86 119 296l77 150q63 104 127 104q43 0 75 -31.5t32 -74.5q0 -14 -4 -30.5t-15 -35.5q-31 -53 -55 -92t-45 -65l2 2q-6 -14 -14 -27.5t-15 -25.5l-15 -34.5t-15 -33.5q-29 -55 -51.5 -92 t-38.5 -58q-31 -35 -82 -34q-82 0 -82 82z" />
<glyph unicode="&#xfe;" horiz-adv-x="1150" d="M752 334q98 51 176 106.5t133 118t84 133t29 154.5q-10 127 -64.5 211t-171.5 149q-37 18 -86 37t-107.5 34t-121 27.5t-123.5 20.5q10 43 20 97.5t21 105.5q0 33 -12.5 62.5t-34 52t-49 36t-58.5 13.5h-29q-8 10 1.5 14t0.5 4q-39 0 -76.5 -108.5t-78.5 -315.5t-88 -508 t-103 -686q6 -43 31 -69l2 -5h-4q2 0 14 -8l117 -57h25q14 25 22 38t13.5 25.5t8.5 27.5t7 42q0 8 18 111h49q74 12 134.5 25.5t112.5 29.5t97.5 36.5t90.5 45.5zM360 428l-6 4l-22 27l-2 6q6 45 20.5 128t29.5 172t28.5 166t21.5 109q20 55 49 56q39 0 90.5 -5.5 t103.5 -16.5t102 -28.5t87 -44.5q0 -8 6 -8q2 -2 9 -2q63 -72 63 -137q0 -59 -42 -112.5t-112.5 -103.5t-164 -98t-195.5 -94z" />
<glyph unicode="&#xff;" horiz-adv-x="1378" d="M1372 1518q0 123 -112 122q-66 0 -222 -153q-53 -51 -102 -105.5t-96 -111.5q-27 -35 -50.5 -67t-46.5 -66q-80 -104 -102 -105q-33 0 -123 90q-35 37 -60.5 66t-45.5 55q-25 41 -40.5 69.5t-25.5 49.5q-16 27 -25.5 46t-17.5 32l-55 133q-39 76 -111 76q-55 0 -84.5 -41 t-29.5 -99q0 -53 55 -176q39 -96 86 -172q49 -82 110.5 -151.5t139.5 -128.5q16 -16 33.5 -27.5t33.5 -24.5q43 -41 43 -69v-8l-131 -578v-6q0 -59 35 -105q47 -53 96 -53q29 0 51 17q25 18 66 133q16 51 26.5 89t14.5 64q20 94 37.5 156.5t28.5 95.5q4 10 12 39t24 80 q10 37 20.5 65.5t20.5 51.5q117 246 469 585q59 59 60 64q18 21 18 68zM418 1929q-4 -70 30 -112t81 -38q23 0 41 11.5t31.5 28t21.5 34.5t10 33q6 18 6 43q0 37 -19.5 71.5t-60.5 53.5q-31 12 -55 6t-42.5 -24.5t-30 -47t-13.5 -59.5zM777 1929q-2 -35 6 -63.5t23.5 -49 t36 -31t44.5 -8.5q23 0 41.5 11.5t31.5 28t20.5 34.5t11.5 33q2 10 3 20t1 25q0 35 -18.5 69.5t-59.5 53.5q-31 12 -56.5 6t-44 -24.5t-28.5 -46t-12 -58.5z" />
<glyph unicode="&#x152;" horiz-adv-x="2603" d="M2580 229q4 49 -18 93.5t-68 62.5q-47 -6 -94 -11t-94 -3q-53 -6 -104.5 -7.5t-104.5 -5.5q-98 -16 -189 -37.5t-190 -31.5q-29 -2 -57.5 -3t-61.5 3q-43 10 -59 35.5t-4 52.5q2 4 2 16v15q-2 59 5 120.5t11 122.5q0 33 16.5 67t57.5 40q35 4 68 11t67 11 q74 12 145.5 27.5t149.5 9.5q37 0 77 -1t79 -5q33 -2 65.5 14.5t34.5 53.5q10 47 -14.5 83.5t-67.5 53.5q-16 4 -31.5 7t-31.5 3q-68 14 -135.5 15t-135 -5t-135 -16t-135.5 -19l-14 7q-20 14 -19 45q-2 10 3.5 21t-1.5 22q0 23 1 45t4 45l4 18l2 19l2 16l6 16l10 15h16 q12 0 23.5 5t22.5 11q39 16 75.5 23.5t73.5 11.5q37 8 73 11t72 5q57 12 109.5 13.5t103.5 1.5t102.5 5t108.5 27q18 27 17.5 63t-16 71.5t-43 65.5t-60.5 46q-39 20 -106 10q-27 -8 -53.5 -7t-55.5 -5q-70 -4 -137.5 -14t-139.5 -29q-80 -18 -159 -31q-43 -14 -82 -21 t-80 -24q-29 2 -57.5 -4t-53.5 -20q-49 49 -104 84q-137 88 -268 88q-16 0 -48 -6t-49 -6q-164 0 -424 -181q-86 -59 -171 -168.5t-179 -283.5q-29 -51 -46 -104.5t-28 -110.5q-10 -53 -14 -89t-4 -53q-27 -84 18 -237q55 -154 99 -176q16 -23 34.5 -40.5t41.5 -35.5 q12 -8 40.5 -23.5t73.5 -38.5q45 -16 75 -29.5t52 -17.5q143 -35 193 -34q190 0 313 47q45 23 78 38t55 27q86 37 144 82q14 -80 67 -141.5t146 -65.5q49 -4 97 -3t93 11q160 37 317.5 62.5t323.5 21.5q41 0 81 5.5t81 7.5q43 10 75.5 39.5t36.5 74.5zM1221 557 q-113 -172 -273 -235q-86 -41 -221 -41q-14 0 -35.5 3t-52.5 7q-178 41 -250 115q-88 88 -88 266q0 68 28.5 141.5t84 159.5t121 151.5t141.5 124.5q156 119 291 119q168 0 270 -151q82 -123 94 -263v-45q0 -25 -1 -48t-3 -46q-22 -133 -106 -258z" />
<glyph unicode="&#x153;" horiz-adv-x="2603" d="M2580 229q4 49 -18 93.5t-68 62.5q-47 -6 -94 -11t-94 -3q-53 -6 -104.5 -7.5t-104.5 -5.5q-98 -16 -189 -37.5t-190 -31.5q-29 -2 -57.5 -3t-61.5 3q-43 10 -59 35.5t-4 52.5q2 4 2 16v15q-2 59 5 120.5t11 122.5q0 33 16.5 67t57.5 40q35 4 68 11t67 11 q74 12 145.5 27.5t149.5 9.5q37 0 77 -1t79 -5q33 -2 65.5 14.5t34.5 53.5q10 47 -14.5 83.5t-67.5 53.5q-16 4 -31.5 7t-31.5 3q-68 14 -135.5 15t-135 -5t-135 -16t-135.5 -19l-14 7q-20 14 -19 45q-2 10 3.5 21t-1.5 22q0 23 1 45t4 45l4 18l2 19l2 16l6 16l10 15h16 q12 0 23.5 5t22.5 11q39 16 75.5 23.5t73.5 11.5q37 8 73 11t72 5q57 12 109.5 13.5t103.5 1.5t102.5 5t108.5 27q18 27 17.5 63t-16 71.5t-43 65.5t-60.5 46q-39 20 -106 10q-27 -8 -53.5 -7t-55.5 -5q-70 -4 -137.5 -14t-139.5 -29q-80 -18 -159 -31q-43 -14 -82 -21 t-80 -24q-29 2 -57.5 -4t-53.5 -20q-49 49 -104 84q-137 88 -268 88q-16 0 -48 -6t-49 -6q-164 0 -424 -181q-86 -59 -171 -168.5t-179 -283.5q-29 -51 -46 -104.5t-28 -110.5q-10 -53 -14 -89t-4 -53q-27 -84 18 -237q55 -154 99 -176q16 -23 34.5 -40.5t41.5 -35.5 q12 -8 40.5 -23.5t73.5 -38.5q45 -16 75 -29.5t52 -17.5q143 -35 193 -34q190 0 313 47q45 23 78 38t55 27q86 37 144 82q14 -80 67 -141.5t146 -65.5q49 -4 97 -3t93 11q160 37 317.5 62.5t323.5 21.5q41 0 81 5.5t81 7.5q43 10 75.5 39.5t36.5 74.5zM1221 557 q-113 -172 -273 -235q-86 -41 -221 -41q-14 0 -35.5 3t-52.5 7q-178 41 -250 115q-88 88 -88 266q0 68 28.5 141.5t84 159.5t121 151.5t141.5 124.5q156 119 291 119q168 0 270 -151q82 -123 94 -263v-45q0 -25 -1 -48t-3 -46q-22 -133 -106 -258z" />
<glyph unicode="&#x178;" horiz-adv-x="1378" d="M1372 1518q0 123 -112 122q-66 0 -222 -153q-53 -51 -102 -105.5t-96 -111.5q-27 -35 -50.5 -67t-46.5 -66q-80 -104 -102 -105q-33 0 -123 90q-35 37 -60.5 66t-45.5 55q-25 41 -40.5 69.5t-25.5 49.5q-16 27 -25.5 46t-17.5 32l-55 133q-39 76 -111 76q-55 0 -84.5 -41 t-29.5 -99q0 -53 55 -176q39 -96 86 -172q49 -82 110.5 -151.5t139.5 -128.5q16 -16 33.5 -27.5t33.5 -24.5q43 -41 43 -69v-8l-131 -578v-6q0 -59 35 -105q47 -53 96 -53q29 0 51 17q25 18 66 133q16 51 26.5 89t14.5 64q20 94 37.5 156.5t28.5 95.5q4 10 12 39t24 80 q10 37 20.5 65.5t20.5 51.5q117 246 469 585q59 59 60 64q18 21 18 68zM418 1929q-4 -70 29.5 -111.5t80.5 -37.5q23 0 41.5 11t31.5 27.5t21.5 35t10.5 32.5q6 18 6 43q0 37 -19.5 72t-60.5 53q-31 12 -55.5 6t-43 -24.5t-29.5 -47t-13 -59.5zM776 1929q-2 -35 6.5 -63.5 t23.5 -49t35.5 -30.5t45.5 -8q23 0 41 11t31.5 27.5t20.5 35t11 32.5q2 10 3 20.5t1 24.5q0 35 -18.5 70t-58.5 53q-31 12 -56.5 6t-44 -24.5t-29 -46t-12.5 -58.5z" />
<glyph unicode="&#x2c6;" horiz-adv-x="915" d="M758 1825q51 2 30 35q-16 31 -34.5 68.5t-38 79.5t-38 85t-32.5 84q-8 27 -19.5 37t-27.5 22q-23 10 -45.5 17.5t-42.5 17.5q-23 8 -41 5t-35 -25q-39 -37 -78 -81t-72.5 -88t-62 -83t-49.5 -68q-23 -29 10 -59q16 -16 35 -28.5t35 -22.5q12 -4 19.5 -7.5t15.5 -3.5 q14 2 26 19q37 47 82 103.5t99 115.5q29 -57 52 -107.5t42 -85.5q27 -31 74 -34q29 -4 51 -2t45 6z" />
<glyph unicode="&#x2da;" horiz-adv-x="948" d="M682 2267q-51 27 -127 37q-29 4 -60.5 -3t-54.5 -22q-53 -35 -89 -85t-53 -105t-15 -109.5t26 -95.5q10 -18 28.5 -32.5t37.5 -22.5q25 -12 54.5 -17.5t57.5 -7.5q82 -8 138 29q41 33 68.5 79t41 95t15.5 97t-9 89q-8 23 -20 40.5t-39 33.5zM578 2216q14 -4 20 -22.5 t7 -46t-4 -58.5t-13 -57q-20 -70 -55 -114t-66 -34q-16 4 -24.5 22.5t-9.5 44t4 56.5t15.5 57.5t26 55t32.5 51t35 35t32 10.5z" />
<glyph unicode="&#x2dc;" horiz-adv-x="1013" d="M688 1745q61 0 137 76q80 74 80 133q0 27 -26 47q-23 14 -50 14q-29 0 -57 -28q-4 -6 -14 -18.5t-21.5 -27t-21.5 -23.5t-17 -9q-39 4 -75.5 30.5t-71.5 40.5q-31 14 -57.5 21.5t-55.5 7.5q-25 0 -59.5 -15.5t-68.5 -38t-61.5 -49t-37.5 -46.5q-12 -29 -12 -54 q0 -57 63 -57q39 0 62 20q2 0 12 10.5t22.5 24t26.5 23.5t27 10q14 0 34.5 -4t41 -11t39 -16.5t28.5 -19.5q41 -41 133 -41z" />
<glyph unicode="&#x2000;" horiz-adv-x="1207" />
<glyph unicode="&#x2001;" horiz-adv-x="2415" />
<glyph unicode="&#x2002;" horiz-adv-x="1207" />
<glyph unicode="&#x2003;" horiz-adv-x="2415" />
<glyph unicode="&#x2004;" horiz-adv-x="805" />
<glyph unicode="&#x2005;" horiz-adv-x="603" />
<glyph unicode="&#x2006;" horiz-adv-x="402" />
<glyph unicode="&#x2007;" horiz-adv-x="402" />
<glyph unicode="&#x2008;" horiz-adv-x="301" />
<glyph unicode="&#x2009;" horiz-adv-x="483" />
<glyph unicode="&#x200a;" horiz-adv-x="134" />
<glyph unicode="&#x2013;" horiz-adv-x="1110" d="M1083 846q0 94 -127 112q-4 2 -14 3h-10h-14l-289 -25q-72 -6 -108 -8l-36 -2h-221h-172q-18 0 -43 -25q-25 -31 -24 -47q0 -92 50 -141t142 -49h105h172q16 0 36.5 1t47.5 1q117 8 210 14t164 14q49 2 56 6q33 6 57 58q18 49 18 88z" />
<glyph unicode="&#x2014;" horiz-adv-x="1419" d="M1397 846q0 94 -127 112q-4 2 -15 3h-10h-14l-289 -25q-72 -6 -108 -8l-35 -2h-535h-172q-18 0 -43 -25q-25 -31 -24 -47q0 -92 50 -141t142 -49h105h485q16 0 36.5 1t47.5 1q117 8 210 14t165 14q49 2 55 6q33 6 57 58q19 49 19 88z" />
<glyph unicode="&#x2018;" horiz-adv-x="370" d="M340 1141q0 33 -12.5 63.5t-27.5 61t-31.5 62.5t-24.5 67q-16 66 -25.5 117t-15.5 83q-8 16 -36 34t-48 18q-47 0 -76 -41q-23 -29 -23 -86q0 -10 3.5 -30t9.5 -58q18 -100 36.5 -165t34.5 -100q12 -23 27.5 -43t38.5 -37q47 -45 86 -45q37 0 66 31q18 15 18 68z" />
<glyph unicode="&#x2019;" horiz-adv-x="354" d="M336 1583q0 23 -4 49.5t-10 59.5q-4 29 -36 48t-61 19q-61 0 -84 -53q-14 -37 -14 -111q-2 -39 -4 -64.5t-6 -37.5q-16 -55 -25.5 -85t-11.5 -34q-8 -8 -35 -71q-20 -39 -20 -74t23.5 -65.5t55.5 -30.5q164 0 222 395q4 33 7 46t3 9z" />
<glyph unicode="&#x201a;" horiz-adv-x="354" d="M336 121q0 23 -4 49.5t-10 58.5q-4 29 -36 48.5t-61 19.5q-61 0 -84 -53q-14 -37 -14 -111q-2 -39 -4 -64.5t-6 -37.5q-16 -55 -25.5 -85t-11.5 -34q-8 -8 -35 -72q-20 -39 -20 -73q0 -35 23.5 -66t55.5 -31q164 0 222 396q4 33 7 46t3 9z" />
<glyph unicode="&#x201e;" horiz-adv-x="696" d="M678 139q0 125 -98 125q-12 0 -50 -18q-29 -12 -36 -31q-16 -66 -25.5 -117t-13.5 -84q-10 -29 -20.5 -58.5t-26.5 -57.5q-10 -18 -19.5 -30.5t-13.5 -23.5q-10 -23 -14.5 -43t-4.5 -41q0 -51 19 -69q29 -29 65 -29q63 0 129 92q25 37 41.5 75t24.5 79q10 47 16 83t13 60 q10 41 12 62.5t2 25.5zM336 174q0 23 -4 49.5t-10 59.5q-4 29 -36 48t-61 19q-61 0 -84 -53q-14 -37 -14 -111q-2 -39 -4 -64.5t-6 -37.5q-16 -55 -25.5 -85t-11.5 -34q-8 -8 -35 -71q-20 -39 -20 -74t23.5 -65.5t55.5 -30.5q164 0 222 395q4 33 7 46t3 9z" />
<glyph unicode="&#x2022;" horiz-adv-x="626" d="M600 889q0 98 -102 166q-90 66 -191 65q-186 0 -237 -106q-37 -86 -37 -154q0 -123 66.5 -201.5t189.5 -78.5q117 0 211 94q100 100 100 215z" />
<glyph unicode="&#x2026;" horiz-adv-x="1216" d="M324 162q0 53 -56 90q-47 35 -102 35q-100 0 -127 -58q-20 -43 -21 -82q0 -66 36 -108.5t102 -42.5q63 0 114 51q54 54 54 115zM752 160q0 53 -56 90q-47 35 -102 35q-100 0 -127 -58q-20 -43 -21 -82q0 -66 36 -108.5t102 -42.5q63 0 114 51q54 54 54 115zM1167 162 q0 53 -55 90q-47 35 -102 35q-100 0 -127 -58q-20 -43 -21 -82q0 -66 36 -108.5t101 -42.5q63 0 115 51q53 54 53 115z" />
<glyph unicode="&#x202f;" horiz-adv-x="483" />
<glyph unicode="&#x2039;" horiz-adv-x="444" d="M426 1118h-6q-35 0 -68 -22l-243 -160q-33 -14 -59.5 -41t-33.5 -61q-4 -41 6.5 -57.5t28.5 -26.5l197 -236l6 -6v2q14 -23 27.5 -35t40.5 -18h18q23 0 41 16t39 66v-2q4 8 5 13t3 11q4 23 -6 45.5t-43 52.5l-129 156l158 103q47 23 66.5 55.5t21.5 50.5q2 4 2 12t-6 15 q-10 39 -23.5 51t-42.5 16z" />
<glyph unicode="&#x203a;" horiz-adv-x="481" d="M106 451h7q33 0 67 22l244 160q33 14 59.5 40.5t32.5 61.5q4 41 -6 57.5t-29 26.5l-196 236l-6 6v-2q-14 23 -27.5 35t-40.5 18h-18q-23 0 -41.5 -16.5t-38.5 -65.5v2q-4 -8 -5.5 -13t-3.5 -11q-4 -23 6.5 -45.5t43.5 -53.5l129 -155l-158 -103q-47 -23 -66.5 -55.5 t-21.5 -50.5q-2 -4 -2 -13q0 -8 6 -14q10 -39 23 -51t42 -16z" />
<glyph unicode="&#x205f;" horiz-adv-x="603" />
<glyph unicode="&#x2122;" horiz-adv-x="1329" d="M1208 950q-18 -8 -45 -8q-31 0 -55.5 17.5t-30.5 58.5q-4 31 -8 60.5t-6 56.5q-10 -14 -14.5 -28.5t-12.5 -29.5v2q-12 -31 -23.5 -50t-31.5 -36q-14 -10 -38.5 -19t-51.5 -9q-29 0 -52.5 12t-43.5 47q-4 39 -6.5 70.5t-6.5 60.5v-2q-2 -4 -7 -20.5t-9 -34.5 q-6 -16 -12 -37t-27 -72q-20 -25 -45 -40t-59 -15h-15q-4 0 -8 1t-8 1q-45 4 -60.5 31.5t-15.5 56.5q0 4 1 8t1 8q2 10 2 17q0 6 4 16v-2q31 96 67 181t77 182q12 29 24.5 56.5t26.5 57.5l-4 -6q10 59 48 84t79 25q39 0 71.5 -22.5t38.5 -55.5v2q2 -6 2 -21q0 -25 -3 -50 t-3 -50q0 -10 1 -23.5t1 -25.5q2 6 17.5 43t36 80t42 82t37.5 49q31 18 74 18q18 0 41 -4t40 -13t27.5 -23.5t8.5 -34.5q-23 -129 -17.5 -263.5t23.5 -242.5v-17q4 -16 4 -24q0 -4 -1 -7.5t-1 -7.5q-6 -63 -74 -90zM524 1452h-2q-25 -8 -45 -9t-45 -1h-20q-14 0 -21 -2 q-10 -49 -20.5 -121t-16.5 -137q-4 -29 -6 -55.5t-2 -51.5v-39q-10 -37 -31.5 -67.5t-70.5 -36.5h-8q-76 0 -95 82q6 86 10.5 164.5t14.5 148.5l6 74q-2 0 -3 -1l-1 -1q-20 -6 -36.5 -10.5t-37.5 -8.5q-4 0 -8 -1t-8 -1q-27 0 -44.5 14.5t-27.5 34t-14 38t-4 26.5 q4 43 17 57.5t44 32.5q4 2 6 4t6 4q45 12 100.5 26.5t113 26t114.5 18.5t107 7h32q18 0 41 -4q23 -18 30 -35.5t7 -40.5q-2 -10 -2 -18q0 -6 -4 -15q-6 -25 -23.5 -57.5t-52.5 -44.5z" />
<glyph unicode="&#x25fc;" horiz-adv-x="1689" d="M0 1690h1690v-1690h-1690v1690z" />
</font>
</defs>
</svg>
